<?xml version="1.0" standalone="no"?>
<!DOCTYPE svg PUBLIC "-//W3C//DTD SVG 20010904//EN"
 "http://www.w3.org/TR/2001/REC-SVG-20010904/DTD/svg10.dtd">
<svg version="1.0" xmlns="http://www.w3.org/2000/svg"
 width="1056.000000pt" height="930.000000pt" viewBox="0 0 1056.000000 930.000000"
 preserveAspectRatio="xMidYMid meet">

<g transform="translate(0.000000,930.000000) scale(0.100000,-0.100000)"
fill="#000000" stroke="none">
<path d="M4583 9273 c-22 -8 -14 -39 12 -51 14 -6 25 -16 25 -22 0 -5 -11 -10
-25 -10 -14 0 -25 -4 -25 -10 0 -11 30 -13 54 -4 24 9 19 31 -9 50 -30 20 -32
34 -5 34 11 0 20 5 20 10 0 10 -26 12 -47 3z"/>
<path d="M4700 9226 c0 -55 1 -56 29 -56 32 0 57 23 45 42 -4 7 -8 24 -8 38
-1 21 -6 26 -33 28 l-33 3 0 -55z m48 21 c2 -10 -3 -17 -12 -17 -10 0 -16 9
-16 21 0 24 23 21 28 -4z m2 -37 c13 -9 13 -11 0 -20 -22 -15 -30 -12 -30 10
0 22 8 25 30 10z"/>
<path d="M4856 9248 c-24 -57 -28 -78 -17 -78 6 0 11 5 11 10 0 14 43 13 58
-2 6 -6 13 -10 16 -7 6 7 -36 109 -46 109 -5 0 -15 -15 -22 -32z m34 -25 c0
-7 -7 -13 -16 -13 -11 0 -14 5 -10 16 3 9 6 21 6 27 0 16 20 -14 20 -30z"/>
<path d="M5020 9270 c0 -5 7 -10 15 -10 11 0 15 -12 15 -45 0 -25 5 -45 10
-45 6 0 10 20 10 45 0 33 4 45 15 45 8 0 15 5 15 10 0 6 -18 10 -40 10 -22 0
-40 -4 -40 -10z"/>
<path d="M5113 9228 c-21 -55 -21 -70 -1 -50 16 16 55 15 61 0 2 -7 8 -10 12
-6 9 9 -27 100 -41 105 -6 2 -20 -20 -31 -49z m35 -17 c-15 -5 -21 7 -13 26 7
17 8 17 15 -2 4 -11 3 -22 -2 -24z"/>
<path d="M5190 9270 c0 -5 7 -10 15 -10 11 0 15 -12 15 -45 0 -25 5 -45 10
-45 6 0 10 20 10 45 0 33 4 45 15 45 8 0 15 5 15 10 0 6 -18 10 -40 10 -22 0
-40 -4 -40 -10z"/>
<path d="M5280 9270 c0 -5 7 -10 15 -10 11 0 15 -12 15 -45 0 -25 5 -45 10
-45 6 0 10 20 10 45 0 33 4 45 15 45 8 0 15 5 15 10 0 6 -18 10 -40 10 -22 0
-40 -4 -40 -10z"/>
<path d="M5388 9269 c-21 -12 -24 -69 -6 -87 30 -30 88 -2 88 43 0 44 -43 67
-82 44z m57 -44 c0 -25 -4 -30 -24 -30 -32 0 -49 28 -31 50 7 9 23 15 34 13
16 -2 21 -10 21 -33z"/>
<path d="M5508 9269 c-21 -12 -24 -69 -6 -87 30 -30 88 -2 88 43 0 44 -43 67
-82 44z m57 -44 c0 -25 -4 -30 -24 -30 -32 0 -49 28 -31 50 7 9 23 15 34 13
16 -2 21 -10 21 -33z"/>
<path d="M4660 9180 c0 -5 5 -10 10 -10 6 0 10 5 10 10 0 6 -4 10 -10 10 -5 0
-10 -4 -10 -10z"/>
<path d="M4790 9180 c0 -5 5 -10 10 -10 6 0 10 5 10 10 0 6 -4 10 -10 10 -5 0
-10 -4 -10 -10z"/>
<path d="M4940 9180 c0 -5 5 -10 10 -10 6 0 10 5 10 10 0 6 -4 10 -10 10 -5 0
-10 -4 -10 -10z"/>
<path d="M4723 8765 c0 -44 2 -61 4 -37 2 23 2 59 0 80 -2 20 -4 1 -4 -43z"/>
<path d="M5340 8765 c0 -43 4 -75 10 -75 6 0 10 18 10 39 0 69 45 63 53 -7 3
-25 4 -21 3 13 -1 48 -2 50 -28 50 -24 -1 -28 3 -28 27 0 15 -4 28 -10 28 -6
0 -10 -32 -10 -75z"/>
<path d="M6033 8765 c0 -44 2 -63 4 -43 8 70 53 76 53 7 0 -21 5 -39 10 -39
16 0 12 76 -5 90 -8 6 -23 9 -34 5 -16 -5 -20 -1 -24 27 -2 18 -4 -3 -4 -47z"/>
<path d="M6240 8765 c0 -43 4 -75 10 -75 6 0 10 32 10 75 0 43 -4 75 -10 75
-6 0 -10 -32 -10 -75z"/>
<path d="M3417 8812 c-23 -25 -22 -85 1 -105 60 -54 142 32 92 96 -25 32 -69
36 -93 9z m91 -50 c2 -24 -3 -35 -22 -48 -24 -15 -28 -15 -51 0 -55 36 -6 126
50 91 11 -7 21 -26 23 -43z"/>
<path d="M4351 8808 c0 -10 -6 -18 -12 -18 -8 0 -8 -4 -1 -13 6 -6 12 -28 14
-47 2 -24 9 -36 21 -38 9 -2 17 1 17 7 0 6 -6 10 -12 9 -8 -2 -14 11 -16 34
-2 28 1 37 15 41 15 4 16 5 1 6 -9 0 -19 9 -21 19 -4 16 -5 16 -6 0z"/>
<path d="M4561 8808 c0 -10 -6 -18 -13 -18 -9 0 -9 -3 0 -12 7 -7 12 -29 12
-50 0 -33 3 -38 23 -38 20 1 20 2 5 11 -12 6 -18 22 -18 44 0 24 5 35 18 38
15 4 15 5 0 6 -9 0 -19 9 -21 19 -4 16 -5 16 -6 0z"/>
<path d="M5790 8807 c0 -9 -6 -17 -12 -17 -10 0 -10 -2 -1 -8 6 -4 13 -25 15
-47 2 -31 7 -40 23 -42 11 -2 14 0 8 3 -14 6 -18 80 -4 86 4 2 0 12 -10 22
-17 17 -19 18 -19 3z"/>
<path d="M3550 8759 c0 -50 16 -69 55 -67 35 1 35 1 35 50 0 26 -4 48 -10 48
-5 0 -10 -18 -10 -39 0 -26 -5 -41 -16 -45 -25 -10 -34 2 -34 45 0 21 -4 39
-10 39 -5 0 -10 -14 -10 -31z"/>
<path d="M3671 8735 c1 -27 3 -39 6 -25 9 56 14 69 31 73 9 3 5 4 -10 4 -27
-1 -28 -3 -27 -52z"/>
<path d="M3790 8738 c0 -26 5 -48 10 -48 6 0 10 18 10 39 0 22 5 41 13 43 25
10 37 -4 37 -43 0 -21 5 -39 10 -39 13 0 13 41 0 74 -8 21 -15 25 -45 24 l-35
-1 0 -49z"/>
<path d="M3912 8778 c-7 -7 -12 -24 -12 -38 0 -14 5 -31 12 -38 15 -15 55 -16
64 0 5 8 2 9 -9 5 -22 -8 -47 2 -47 19 0 9 12 14 35 14 29 0 33 3 28 18 -12
32 -48 43 -71 20z m42 -4 c25 -9 19 -24 -9 -24 -24 0 -32 10 -18 23 8 8 8 8
27 1z"/>
<path d="M4001 8779 c1 -27 26 -84 35 -81 5 1 14 17 20 35 l11 32 12 -37 c7
-21 16 -38 21 -38 9 0 33 90 26 98 -3 3 -9 -9 -12 -27 -9 -45 -22 -48 -30 -6
-8 45 -19 44 -35 -2 l-12 -38 -11 32 c-12 36 -26 54 -25 32z"/>
<path d="M4162 8778 c-7 -7 -12 -24 -12 -38 0 -14 5 -31 12 -38 15 -15 55 -16
64 0 5 8 2 9 -9 5 -22 -8 -47 2 -47 19 0 9 12 14 35 14 29 0 33 3 28 18 -12
32 -48 43 -71 20z m42 -4 c25 -9 19 -24 -9 -24 -24 0 -32 10 -18 23 8 8 8 8
27 1z"/>
<path d="M4261 8776 c-9 -11 -8 -17 3 -29 9 -8 21 -17 28 -19 22 -8 -3 -29
-25 -22 -17 5 -19 4 -10 -6 15 -16 63 -5 63 15 0 9 -11 21 -25 27 -30 14 -27
34 4 31 13 -2 20 1 16 7 -9 15 -41 12 -54 -4z"/>
<path d="M4473 8783 c-21 -8 -14 -33 12 -45 30 -13 27 -34 -4 -31 -11 2 -21
-2 -21 -7 0 -16 46 -11 61 6 11 14 10 18 -5 30 -10 7 -23 15 -29 17 -6 2 -7 9
-3 16 5 7 14 10 22 7 8 -3 14 -1 14 4 0 10 -26 12 -47 3z"/>
<path d="M4613 8776 c27 -71 30 -96 12 -116 -10 -11 -13 -20 -7 -20 6 0 18 10
26 23 23 35 57 127 47 127 -5 0 -16 -19 -23 -42 l-14 -42 -17 42 c-9 23 -20
42 -23 42 -3 0 -4 -6 -1 -14z"/>
<path d="M4772 8778 c-7 -7 -12 -24 -12 -38 0 -14 5 -31 12 -38 15 -15 55 -16
64 0 5 8 2 9 -9 5 -22 -8 -47 2 -47 19 0 9 12 14 35 14 29 0 33 3 28 18 -12
32 -48 43 -71 20z m42 -4 c25 -9 19 -24 -9 -24 -24 0 -32 10 -18 23 8 8 8 8
27 1z"/>
<path d="M4873 8783 c-21 -8 -14 -33 12 -45 30 -13 27 -34 -4 -31 -11 2 -21
-2 -21 -7 0 -16 46 -11 61 6 11 14 10 18 -5 30 -10 7 -23 15 -29 17 -6 2 -7 9
-3 16 5 7 14 10 22 7 8 -3 14 -1 14 4 0 10 -26 12 -47 3z"/>
<path d="M5015 8780 c-4 -6 3 -9 16 -7 34 3 33 -17 -2 -30 -45 -17 -36 -47 14
-50 36 -1 37 0 37 36 0 20 -5 42 -12 49 -15 15 -45 16 -53 2z m45 -54 c0 -18
-27 -29 -36 -14 -4 5 0 14 7 19 20 13 29 11 29 -5z"/>
<path d="M5110 8739 c0 -27 5 -49 10 -49 6 0 10 18 10 40 0 26 6 42 17 48 13
8 11 10 -10 10 -26 0 -27 -3 -27 -49z"/>
<path d="M5186 8768 c-20 -28 -20 -43 0 -62 17 -17 64 -22 64 -6 0 5 -7 7 -15
4 -16 -6 -45 12 -45 27 0 5 16 9 35 9 36 0 46 15 23 38 -19 19 -45 14 -62 -10z
m52 -6 c2 -7 -7 -12 -23 -12 -24 0 -26 2 -15 15 14 17 31 16 38 -3z"/>
<path d="M5462 8778 c-7 -7 -12 -24 -12 -38 0 -14 5 -31 12 -38 15 -15 55 -16
64 -1 4 8 -1 9 -15 4 -22 -7 -51 9 -51 26 0 5 16 9 35 9 22 0 35 5 35 13 0 18
-21 37 -40 37 -9 0 -21 -5 -28 -12z m48 -13 c11 -13 8 -15 -20 -15 -28 0 -31
2 -20 15 7 8 16 15 20 15 4 0 13 -7 20 -15z"/>
<path d="M5561 8735 c1 -27 3 -39 6 -25 9 56 14 69 31 73 9 3 5 4 -10 4 -27
-1 -28 -3 -27 -52z"/>
<path d="M5630 8771 c-13 -26 -13 -54 2 -69 15 -15 55 -16 64 0 5 8 2 9 -9 5
-22 -8 -47 2 -47 19 0 9 12 14 35 14 19 0 35 3 35 6 0 20 -24 44 -45 44 -14 0
-29 -8 -35 -19z m60 -12 c0 -5 -11 -9 -25 -9 -26 0 -34 15 -12 23 16 5 37 -3
37 -14z"/>
<path d="M5862 8778 c-7 -7 -12 -24 -12 -38 0 -31 17 -50 45 -50 28 0 45 19
45 50 0 31 -17 50 -45 50 -12 0 -26 -5 -33 -12z m56 -10 c17 -17 15 -43 -4
-59 -31 -26 -70 25 -44 56 15 18 32 19 48 3z"/>
<path d="M6140 8771 c-13 -26 -13 -54 2 -69 15 -15 55 -16 64 0 5 8 2 9 -9 5
-22 -8 -47 2 -47 19 0 9 12 14 35 14 19 0 35 3 35 6 0 20 -24 44 -45 44 -14 0
-29 -8 -35 -19z m60 -12 c0 -5 -11 -9 -25 -9 -26 0 -34 15 -12 23 16 5 37 -3
37 -14z"/>
<path d="M6290 8713 c0 -42 4 -73 10 -73 6 0 10 13 10 29 0 24 3 28 20 24 28
-7 50 14 50 47 0 35 -17 49 -58 48 l-32 -1 0 -74z m68 55 c27 -27 2 -75 -32
-62 -19 7 -22 60 -3 67 19 8 22 8 35 -5z"/>
<path d="M6470 8739 c21 -51 17 -80 -12 -93 -7 -3 -4 -5 7 -3 14 1 28 22 48
71 16 37 26 70 23 73 -3 3 -13 -14 -22 -38 l-18 -43 -14 42 c-7 23 -18 42 -23
42 -5 0 0 -23 11 -51z"/>
<path d="M6564 8765 c-15 -23 -15 -27 0 -50 29 -44 86 -28 86 25 0 53 -57 69
-86 25z m60 -1 c9 -8 16 -19 16 -24 0 -10 -29 -40 -39 -40 -13 0 -31 24 -31
40 0 16 18 40 31 40 4 0 15 -7 23 -16z"/>
<path d="M6684 8745 l1 -50 38 -2 37 -1 0 49 c0 27 -4 49 -10 49 -5 0 -10 -18
-10 -39 0 -67 -45 -64 -53 4 -3 33 -4 31 -3 -10z"/>
<path d="M4453 8445 c0 -44 2 -61 4 -37 2 23 2 59 0 80 -2 20 -4 1 -4 -43z"/>
<path d="M4733 8445 c0 -44 2 -70 4 -57 5 27 14 28 31 2 7 -11 20 -20 29 -20
13 0 11 6 -10 28 l-27 28 22 22 c13 12 18 22 12 22 -6 0 -19 -10 -30 -21 l-19
-21 -6 48 c-5 40 -6 34 -6 -31z"/>
<path d="M5330 8447 l0 -74 32 -1 c41 -1 58 13 58 48 0 33 -22 54 -50 47 -17
-4 -20 0 -20 24 0 16 -4 29 -10 29 -6 0 -10 -31 -10 -73z m68 1 c27 -27 2 -75
-32 -62 -19 7 -22 60 -3 67 19 8 22 8 35 -5z"/>
<path d="M5651 8488 c0 -10 -6 -18 -13 -18 -9 0 -9 -3 0 -12 7 -7 12 -29 12
-50 0 -33 3 -38 23 -38 20 1 20 2 5 11 -12 6 -18 22 -18 44 0 24 5 35 18 38
15 4 15 5 0 6 -9 0 -19 9 -21 19 -4 16 -5 16 -6 0z"/>
<path d="M4502 8458 c-7 -7 -12 -24 -12 -38 0 -31 17 -50 45 -50 28 0 45 19
45 50 0 31 -17 50 -45 50 -12 0 -26 -5 -33 -12z m56 -10 c17 -17 15 -43 -4
-59 -31 -26 -70 25 -44 56 15 18 32 19 48 3z"/>
<path d="M4614 8445 c-15 -23 -15 -27 0 -50 29 -44 86 -28 86 25 0 53 -57 69
-86 25z m60 -1 c9 -8 16 -19 16 -24 0 -10 -29 -40 -39 -40 -13 0 -31 24 -31
40 0 16 18 40 31 40 4 0 15 -7 23 -16z"/>
<path d="M4873 8456 c27 -71 30 -96 12 -116 -10 -11 -13 -20 -7 -20 6 0 18 10
26 23 23 35 57 127 47 127 -5 0 -16 -19 -23 -42 l-14 -42 -17 42 c-9 23 -20
42 -23 42 -3 0 -4 -6 -1 -14z"/>
<path d="M4986 8454 c-31 -30 -9 -84 34 -84 24 0 50 26 50 50 0 24 -26 50 -50
50 -10 0 -26 -7 -34 -16z m48 0 c20 -8 21 -60 1 -68 -8 -3 -22 -3 -30 0 -18 7
-20 60 -2 67 6 3 13 6 14 6 1 1 8 -2 17 -5z"/>
<path d="M5090 8439 c0 -50 16 -69 55 -67 35 1 35 1 35 50 0 26 -4 48 -10 48
-5 0 -10 -18 -10 -39 0 -26 -5 -41 -16 -45 -25 -10 -34 2 -34 45 0 21 -4 39
-10 39 -5 0 -10 -14 -10 -31z"/>
<path d="M5211 8415 c1 -27 3 -39 6 -25 9 56 14 69 31 73 9 3 5 4 -10 4 -27
-1 -28 -3 -27 -52z"/>
<path d="M5456 8448 c-20 -28 -20 -43 0 -62 17 -17 64 -22 64 -6 0 5 -7 7 -15
4 -16 -6 -45 12 -45 27 0 5 16 9 35 9 36 0 46 15 23 38 -19 19 -45 14 -62 -10z
m52 -6 c2 -7 -7 -12 -23 -12 -24 0 -26 2 -15 15 14 17 31 16 38 -3z"/>
<path d="M5553 8453 c-4 -11 3 -24 21 -38 28 -22 23 -41 -8 -29 -9 3 -16 1
-16 -6 0 -6 11 -10 28 -8 34 4 44 43 13 53 -28 9 -28 39 -1 32 11 -3 20 -1 20
4 0 16 -50 10 -57 -8z"/>
<path d="M5700 8380 c0 -5 5 -10 10 -10 6 0 10 5 10 10 0 6 -4 10 -10 10 -5 0
-10 -4 -10 -10z"/>
<path d="M4540 8050 c0 -35 3 -40 23 -39 16 1 18 2 5 6 -10 2 -18 11 -18 18 0
7 8 16 18 18 16 4 16 5 0 6 -10 0 -18 5 -18 10 0 5 8 12 18 14 13 4 11 5 -5 6
-20 1 -23 -4 -23 -39z"/>
<path d="M4723 8050 c0 -25 2 -35 4 -22 2 12 2 32 0 45 -2 12 -4 2 -4 -23z"/>
<path d="M5170 8081 c0 -5 -9 -11 -21 -14 -29 -8 -22 -51 9 -55 20 -3 22 1 22
37 0 23 -2 41 -5 41 -3 0 -5 -4 -5 -9z m0 -41 c0 -11 -7 -20 -15 -20 -8 0 -15
9 -15 20 0 11 7 20 15 20 8 0 15 -9 15 -20z"/>
<path d="M5320 8082 c0 -6 -10 -12 -22 -14 -29 -4 -33 -52 -5 -54 13 -2 14 -1
2 3 -21 6 -15 37 8 41 12 3 17 -3 17 -22 0 -14 3 -26 8 -26 9 0 7 68 -2 77 -3
4 -6 1 -6 -5z"/>
<path d="M5588 8078 c12 -15 9 -17 -30 -21 l-43 -4 44 -1 c40 -2 42 -3 30 -19
-13 -16 -12 -17 4 -4 9 7 17 19 17 26 0 7 -8 19 -17 26 -16 13 -17 12 -5 -3z"/>
<path d="M4599 8058 c11 -15 11 -21 0 -35 -11 -15 -11 -16 1 -6 11 10 17 10
29 0 14 -11 14 -10 2 6 -11 14 -11 20 0 35 12 15 12 16 -2 5 -12 -10 -18 -10
-29 0 -12 10 -12 9 -1 -5z"/>
<path d="M4650 8026 c0 -22 4 -36 8 -30 4 6 15 13 25 17 27 10 19 52 -10 53
-20 1 -23 -3 -23 -40z m40 14 c0 -11 -7 -20 -15 -20 -15 0 -21 21 -8 33 12 13
23 7 23 -13z"/>
<path d="M4754 8056 c-9 -24 4 -48 23 -44 12 2 18 12 18 28 0 29 -32 41 -41
16z m36 -16 c0 -11 -7 -20 -15 -20 -8 0 -15 9 -15 20 0 11 7 20 15 20 8 0 15
-9 15 -20z"/>
<path d="M4821 8038 c2 -28 2 -29 6 -8 3 14 10 28 17 32 7 5 5 8 -6 8 -14 0
-18 -8 -17 -32z"/>
<path d="M4864 8055 c-9 -23 3 -45 23 -44 17 1 17 2 1 6 -22 5 -24 23 -3 23 8
0 15 7 15 15 0 8 -7 15 -15 15 -9 0 -18 -7 -21 -15z"/>
<path d="M4950 8026 c0 -22 4 -36 8 -30 4 6 15 13 25 17 27 10 19 52 -10 53
-20 1 -23 -3 -23 -40z m40 14 c0 -11 -7 -20 -15 -20 -15 0 -21 21 -8 33 12 13
23 7 23 -13z"/>
<path d="M5021 8038 c2 -28 2 -29 6 -8 3 14 10 28 17 32 7 5 5 8 -6 8 -14 0
-18 -8 -17 -32z"/>
<path d="M5064 8056 c-9 -24 4 -48 23 -44 12 2 18 12 18 28 0 29 -32 41 -41
16z m36 -16 c0 -11 -7 -20 -15 -20 -8 0 -15 9 -15 20 0 11 7 20 15 20 8 0 15
-9 15 -20z"/>
<path d="M5204 8040 c1 -18 7 -26 24 -28 19 -3 22 1 21 30 -2 30 -2 31 -6 6
-5 -34 -30 -37 -36 -5 -3 19 -4 19 -3 -3z"/>
<path d="M5364 8059 c-3 -6 0 -15 7 -20 12 -8 12 -11 -1 -19 -13 -8 -12 -10 3
-10 19 0 23 25 6 36 -8 4 -7 9 2 15 10 6 10 9 2 9 -6 0 -15 -5 -19 -11z"/>
<path d="M4808 7913 c156 -2 408 -2 560 0 152 1 25 2 -283 2 -308 0 -433 -1
-277 -2z"/>
<path d="M8320 2540 c-19 -5 -63 -6 -97 -3 -68 6 -100 -2 -174 -49 -33 -20
-77 -34 -159 -48 -177 -32 -320 -96 -448 -199 -34 -28 -64 -51 -67 -51 -9 0
37 113 61 147 26 38 22 63 -9 63 -36 0 -151 -72 -213 -134 -83 -84 -125 -171
-132 -274 -4 -68 -9 -83 -38 -124 -85 -116 -98 -211 -46 -315 18 -34 32 -70
32 -79 0 -10 -16 -41 -36 -70 -40 -57 -48 -116 -24 -173 9 -23 9 -38 1 -62
-16 -47 -13 -98 9 -148 l20 -43 -25 -30 c-106 -126 -87 -313 45 -448 37 -38
50 -60 55 -92 29 -179 197 -291 371 -249 27 7 54 12 59 12 6 -1 12 -38 15 -83
l5 -83 58 -3 c55 -3 57 -2 57 22 0 13 -6 27 -12 29 -8 3 -6 6 5 6 9 1 17 5 17
11 0 5 -7 7 -16 3 -13 -5 -12 2 5 36 20 39 21 61 2 61 -4 0 -19 -22 -32 -50
-17 -34 -30 -49 -44 -49 -17 -1 -17 1 -5 9 8 5 11 10 5 10 -5 0 -10 15 -9 33
1 45 -31 104 -69 127 -33 21 -121 28 -131 11 -7 -11 17 -21 54 -21 16 0 36 -3
45 -6 14 -6 13 -8 -7 -19 -15 -8 -27 -8 -36 -2 -8 7 -21 6 -39 -2 -21 -10 -29
-9 -44 5 -10 9 -25 14 -35 10 -14 -5 -15 -4 -4 9 11 14 10 14 -15 5 -24 -9
-26 -8 -21 6 5 13 2 15 -14 11 -11 -3 -20 -1 -20 4 0 5 6 9 13 9 8 0 8 3 -2 9
-8 5 -20 7 -28 4 -8 -3 -13 2 -13 16 0 12 -5 21 -10 21 -7 0 -7 8 1 22 11 22
11 22 -7 6 -12 -11 -25 -14 -33 -9 -10 6 -10 10 -1 16 8 5 7 12 -4 24 -16 18
-24 47 -25 95 -1 23 -5 27 -21 23 -15 -4 -32 8 -64 44 -76 84 -104 201 -74
301 17 56 78 121 140 149 75 33 201 34 275 0 205 -91 182 -333 -38 -410 -54
-20 -76 -41 -42 -41 74 0 200 88 234 165 25 55 24 135 -2 186 -25 50 -19 61
12 20 28 -37 43 -40 37 -6 -7 32 12 33 49 0 l28 -24 -32 -1 c-35 0 -63 -22
-63 -49 0 -38 78 -91 133 -91 31 0 50 22 45 52 -4 28 -45 36 -90 17 -24 -10
-32 -9 -45 4 -18 18 -10 37 16 37 10 0 27 12 36 27 18 26 18 27 -14 55 -25 23
-40 28 -71 26 -35 -2 -72 10 -42 13 7 1 17 3 22 4 6 1 18 3 28 4 16 2 16 2 0
15 -21 16 -13 26 19 26 16 0 23 -6 23 -20 0 -11 7 -20 15 -20 8 0 15 5 15 12
0 6 11 1 25 -12 14 -13 28 -21 31 -17 7 6 4 13 -21 57 -17 29 -19 68 -5 90 7
12 10 8 11 -15 1 -42 19 -85 52 -126 15 -19 24 -25 21 -15 -6 15 -4 17 6 11
10 -6 12 -4 7 9 -4 10 -3 15 3 11 11 -7 31 37 34 70 0 11 8 21 17 23 24 4 33
-42 14 -78 -29 -56 -8 -72 24 -19 18 30 19 30 23 9 5 -36 28 -37 28 -2 0 26 3
29 25 24 20 -3 23 -7 14 -18 -8 -10 -3 -15 23 -23 l33 -9 -43 -1 c-34 -1 -50
-7 -73 -30 -30 -30 -36 -46 -21 -55 5 -3 19 8 31 24 12 17 27 30 33 30 9 0 9
-3 0 -12 -7 -7 -12 -16 -12 -20 0 -15 27 -8 45 12 10 11 26 20 36 20 17 0 17
-2 1 -39 -14 -32 -20 -37 -34 -30 -22 12 -68 12 -68 0 0 -5 11 -12 24 -15 33
-8 57 -33 50 -51 -8 -19 -53 -19 -78 0 -25 19 -70 19 -86 0 -17 -21 -4 -51 30
-65 29 -12 59 -7 142 25 11 4 17 -1 21 -17 15 -58 138 -158 195 -158 37 0 25
17 -31 43 -152 69 -195 220 -90 319 42 40 94 58 168 58 82 0 152 -26 216 -80
26 -22 50 -40 53 -40 13 0 5 25 -14 45 -18 19 -19 24 -6 34 38 31 119 22 178
-21 25 -18 34 -2 13 22 -27 29 -99 54 -142 47 l-38 -5 30 14 c17 7 44 11 60 8
l30 -4 -30 13 c-16 8 -34 12 -39 9 -5 -3 -6 0 -3 5 4 6 -2 13 -13 16 -13 3
-21 -1 -25 -12 -3 -10 -17 -29 -32 -42 l-27 -24 21 28 c12 15 25 41 28 58 l7
30 34 -22 c36 -22 78 -19 56 3 -18 18 -15 28 13 38 16 6 25 17 25 32 0 12 12
33 28 46 15 13 22 21 17 19 -7 -4 -9 21 -7 69 3 60 1 74 -11 74 -9 0 -17 -14
-21 -39 -5 -34 -9 -39 -31 -37 -14 0 -25 5 -25 9 0 5 -3 6 -7 4 -5 -3 -6 15
-4 39 4 57 -23 63 -36 7 -4 -20 -15 -39 -22 -41 -9 -3 -11 0 -6 8 6 9 4 11 -5
5 -7 -4 -16 -2 -21 6 -6 10 -9 11 -9 2 0 -27 -16 -11 -18 18 -1 18 -5 36 -8
40 -8 14 -24 11 -24 -4 0 -13 -40 -57 -52 -57 -12 0 4 39 23 56 11 10 49 25
85 34 36 9 65 21 65 26 0 29 -131 0 -179 -41 -16 -13 -56 -75 -88 -136 -41
-79 -67 -117 -88 -130 -37 -23 -79 -24 -96 -4 -9 11 -7 21 14 48 14 18 42 73
63 121 55 132 127 193 242 208 14 2 27 9 29 17 6 20 -72 8 -137 -20 -71 -30
-105 -72 -174 -210 -82 -164 -130 -197 -224 -152 -70 33 -83 130 -23 174 15
12 26 27 24 34 -5 13 43 38 57 30 5 -4 9 -2 9 3 0 12 49 34 61 26 5 -3 12 2
15 10 3 9 10 13 15 10 5 -3 9 0 9 6 0 6 5 8 10 5 6 -3 10 -1 10 6 0 7 3 10 6
7 3 -3 17 5 32 18 15 13 40 35 56 48 16 12 25 25 20 29 -19 11 -113 -30 -181
-80 -84 -63 -109 -73 -179 -73 -82 0 -62 -29 21 -30 l30 -1 -26 -14 c-57 -31
-77 -147 -34 -195 17 -19 17 -20 -9 -30 -90 -34 -179 34 -162 123 3 18 19 54
36 80 36 57 21 77 -21 28 -35 -43 -53 -108 -45 -164 8 -51 1 -57 -64 -57 -27
0 -48 8 -69 26 -27 22 -31 33 -31 73 0 31 9 65 26 100 15 28 24 55 21 58 -13
12 -35 -7 -54 -49 -27 -59 -33 -97 -23 -143 10 -46 2 -55 -51 -55 -62 0 -119
62 -119 130 0 35 23 96 46 122 9 9 13 21 10 27 -12 19 -35 -1 -61 -52 -29 -58
-33 -127 -10 -171 8 -15 15 -30 15 -31 0 -2 -20 -11 -45 -20 -136 -53 -285 79
-236 208 5 13 28 46 52 73 62 72 104 142 130 215 20 57 25 65 45 61 31 -6 125
23 158 49 18 14 25 27 21 39 -7 23 29 37 51 19 19 -15 19 -15 32 54 6 32 23
85 36 119 30 73 105 188 124 188 7 0 11 4 8 9 -3 5 2 15 11 22 10 8 14 9 10 2
-4 -6 -3 -14 2 -17 5 -3 -11 -36 -36 -73 -61 -91 -109 -189 -130 -263 -14 -52
-15 -63 -3 -70 19 -11 20 -10 31 42 13 58 60 159 71 156 5 -2 9 -7 9 -11 -1
-4 -1 -14 -1 -23 0 -8 -4 -13 -8 -10 -4 2 -8 -3 -9 -12 -1 -9 -11 -44 -22 -77
-22 -60 -24 -96 -7 -96 5 0 22 34 36 75 15 41 39 94 54 116 22 34 30 39 42 29
11 -9 14 -8 14 5 0 9 5 16 11 16 5 0 8 -3 6 -7 -77 -147 -117 -293 -80 -293 5
0 16 29 25 64 31 117 77 200 164 293 43 45 107 93 125 93 13 0 15 -36 3 -48
-20 -18 -26 -14 -14 9 7 11 9 23 6 27 -3 3 -6 0 -6 -7 0 -7 -4 -10 -8 -7 -4 3
-8 -6 -8 -18 1 -25 -88 -129 -99 -117 -4 3 -5 1 -4 -4 2 -6 -15 -47 -38 -92
-57 -114 -93 -283 -58 -276 5 1 13 19 17 40 29 155 82 264 170 354 67 68 90
73 33 7 -49 -58 -111 -186 -135 -282 -11 -44 -18 -81 -15 -84 8 -8 35 20 35
37 0 37 61 188 97 240 50 74 102 131 119 131 24 0 23 -16 -3 -46 -70 -81 -110
-154 -134 -247 -16 -61 -16 -68 -1 -65 10 2 23 29 37 74 12 40 33 89 46 110
34 57 129 153 144 148 7 -3 20 5 29 18 9 12 16 17 16 10 0 -7 -9 -20 -19 -29
-11 -9 -17 -21 -14 -27 3 -6 0 -5 -8 2 -18 17 -34 15 -19 -3 10 -12 5 -22 -24
-58 -20 -24 -44 -63 -55 -88 -23 -53 -35 -119 -23 -119 15 0 29 23 36 60 6 35
71 140 87 140 17 0 19 -20 6 -52 -8 -18 -17 -50 -21 -70 -10 -55 19 -52 34 3
6 22 20 49 31 60 10 10 17 19 14 19 -3 0 3 8 13 18 10 12 21 15 27 10 6 -6 5
-13 -5 -19 -13 -9 -12 -10 3 -5 20 6 21 -1 2 -34 -19 -34 -19 -80 0 -80 8 0
15 9 15 21 0 28 19 61 31 54 5 -4 9 -22 9 -41 0 -24 5 -34 15 -34 8 0 15 4 15
9 0 6 12 6 31 -1 16 -6 57 -8 89 -6 50 4 64 9 87 34 15 16 27 32 26 36 -2 3
11 11 28 17 17 6 44 22 61 36 29 25 72 33 82 16 3 -5 -6 -12 -21 -16 -60 -15
-97 -35 -85 -47 8 -8 18 -8 39 0 15 7 45 13 66 15 31 4 37 1 37 -14 0 -13 -7
-19 -24 -19 -38 0 -86 -21 -86 -37 0 -12 6 -13 28 -7 15 4 52 8 83 9 43 1 54
-1 45 -10 -6 -6 -31 -12 -56 -13 -58 -3 -80 -10 -80 -28 0 -11 12 -12 59 -7
49 5 70 2 115 -17 78 -31 96 -55 25 -34 -72 22 -172 24 -176 4 -3 -11 7 -15
40 -16 43 -1 187 -33 197 -44 3 -3 11 -5 19 -5 8 0 16 -5 18 -12 5 -14 -19
-11 -103 11 -65 17 -149 25 -160 14 -13 -14 9 -28 44 -28 20 0 53 -5 72 -10
19 -5 63 -17 98 -26 34 -9 62 -21 62 -25 0 -5 -5 -9 -11 -9 -5 0 -8 -4 -5 -8
3 -5 -18 -2 -47 6 -137 38 -199 53 -204 48 -13 -12 8 -36 32 -36 23 0 234 -66
245 -77 13 -12 -105 10 -170 32 -82 28 -110 31 -110 13 1 -13 184 -78 234 -84
46 -5 43 -14 -6 -14 -25 0 -80 9 -124 20 -76 20 -111 20 -100 1 7 -10 163 -55
189 -53 9 0 17 -3 17 -8 0 -5 6 -7 13 -5 18 7 41 -11 32 -25 -4 -7 -17 -9 -34
-5 -14 4 -37 9 -50 11 -13 3 -32 9 -41 14 -10 5 -43 13 -74 16 -46 6 -56 4
-56 -8 0 -11 15 -18 46 -23 74 -11 78 -14 48 -40 -15 -13 -47 -29 -71 -36 -24
-6 -42 -17 -40 -23 5 -15 53 -9 105 14 44 20 52 18 27 -6 -8 -9 -20 -12 -26
-8 -8 4 -9 3 -5 -4 8 -13 -20 -29 -77 -46 -22 -6 -43 -18 -45 -25 -6 -19 78
-8 113 15 13 9 28 13 34 10 5 -3 12 0 14 6 3 8 6 9 6 2 1 -17 -78 -66 -139
-85 -30 -9 -56 -22 -58 -29 -7 -19 78 -6 128 20 22 11 40 18 40 16 0 -3 12 6
27 20 31 29 45 24 17 -7 -30 -33 -92 -65 -171 -89 -68 -21 -85 -32 -65 -44 15
-9 125 25 187 57 75 40 156 122 191 192 14 30 33 55 42 57 29 6 122 -10 138
-23 9 -7 22 -26 31 -42 32 -63 -18 -142 -160 -250 -48 -36 -88 -97 -89 -133
-1 -16 7 -59 16 -97 14 -57 15 -71 4 -95 -19 -38 -59 -55 -100 -43 l-33 10 30
0 c78 -2 98 14 94 75 -1 22 -5 46 -8 51 -9 17 -13 38 -16 77 -1 21 -8 46 -16
55 -13 17 -13 17 5 3 18 -14 19 -13 13 2 -4 11 0 21 11 27 9 5 17 17 17 25 0
9 2 15 5 14 14 -6 47 36 42 54 -4 15 -7 17 -13 6 -5 -7 -9 -9 -9 -4 0 5 -9 1
-20 -9 -11 -10 -17 -22 -13 -28 3 -5 1 -7 -5 -3 -5 3 -20 -10 -32 -29 -23 -37
-31 -103 -18 -145 4 -14 9 -39 12 -57 3 -27 0 -33 -25 -43 -16 -7 -42 -10 -59
-7 -25 6 -31 2 -44 -25 -9 -17 -16 -37 -16 -43 0 -7 -7 -18 -15 -25 -13 -10
-12 -14 2 -28 10 -11 12 -17 4 -20 -6 -2 -11 -10 -11 -18 0 -8 -5 -14 -11 -14
-5 0 -7 4 -4 10 3 6 -1 7 -10 3 -11 -4 -13 -8 -6 -13 7 -4 2 -15 -14 -30 -27
-25 -33 -65 -12 -73 7 -3 5 -6 -5 -6 -10 -1 -18 -6 -18 -12 0 -6 -9 -8 -20 -4
-18 6 -20 3 -14 -19 5 -22 3 -24 -18 -19 -21 6 -22 5 -8 -12 14 -17 13 -18 -2
-12 -10 3 -18 2 -18 -3 0 -6 -9 -10 -19 -10 -11 0 -21 -5 -23 -12 -2 -6 -18
-11 -36 -11 -18 0 -32 -5 -32 -10 0 -5 -6 -7 -14 -4 -8 3 -16 3 -18 -1 -2 -4
-18 -15 -35 -24 -23 -12 -33 -13 -33 -5 0 7 -10 1 -21 -13 -14 -16 -19 -19
-15 -7 3 9 1 17 -4 17 -6 0 -10 -4 -10 -10 0 -5 -6 -7 -14 -4 -8 3 -17 0 -21
-5 -3 -6 -11 -8 -17 -5 -6 4 -17 -1 -25 -11 -12 -18 -13 -17 -13 6 0 19 -2 21
-10 9 -5 -9 -24 -15 -43 -15 -30 0 -33 2 -23 17 17 27 60 40 122 37 59 -4 87
13 42 25 -101 27 -206 -20 -260 -115 -18 -32 -107 -103 -118 -93 -2 3 8 16 23
30 15 14 27 36 27 49 0 34 -15 31 -37 -5 -9 -16 -20 -30 -23 -30 -4 0 -25 -16
-47 -35 -70 -59 -66 -125 7 -125 26 0 30 3 26 18 -8 24 28 64 82 91 22 11 53
37 70 56 l29 36 87 -11 c202 -25 402 42 528 177 60 66 90 124 112 226 6 25 9
27 44 22 52 -8 103 21 121 70 13 33 13 45 -2 104 -10 36 -17 78 -17 93 0 34
42 83 133 155 81 65 115 113 122 173 5 35 1 52 -14 78 -23 35 -75 72 -104 72
-17 0 -16 4 7 30 14 17 30 48 36 68 10 38 65 99 110 122 13 7 49 16 79 19 59
7 74 22 39 39 -21 10 -21 11 -3 11 55 2 136 94 108 122 -9 9 -20 5 -43 -15
-55 -46 -65 -30 -15 26 68 76 87 105 74 113 -6 4 -35 -16 -66 -46 l-56 -54 32
47 c34 51 39 78 16 78 -8 0 -15 -4 -15 -10 0 -16 -85 -60 -136 -69 -62 -12
-145 2 -200 34 -90 53 -246 223 -214 233 8 3 31 21 52 41 28 29 38 47 43 86
11 85 14 94 47 111 26 14 38 14 71 4 21 -6 41 -9 44 -6 13 12 -10 38 -49 56
-81 37 -126 24 -214 -60 -51 -49 -68 -59 -108 -65 -49 -8 -67 -2 -115 34 l-23
18 57 61 c63 68 68 95 20 100 -20 2 -62 -13 -127 -46 l-98 -49 -52 13 c-29 8
-68 14 -86 14 -30 0 -33 2 -21 16 7 8 26 22 41 30 27 14 33 13 72 -5 23 -12
48 -21 54 -21 22 0 12 26 -20 57 -53 51 -98 62 -178 43z m-150 -80 c0 -5 -2
-10 -4 -10 -3 0 -8 5 -11 10 -3 6 -1 10 4 10 6 0 11 -4 11 -10z m-30 -10 c0
-5 -4 -10 -10 -10 -5 0 -10 5 -10 10 0 6 5 10 10 10 6 0 10 -4 10 -10z m547
-37 c-20 -20 -48 -61 -63 -90 -28 -57 -41 -62 -88 -38 -44 23 -57 1 -15 -24
19 -12 41 -21 49 -21 12 0 15 -18 15 -104 l0 -105 -39 -10 c-46 -11 -60 -7
-74 22 -10 22 -10 22 -22 -5 -7 -16 -19 -28 -27 -28 -18 0 -17 -20 3 -34 26
-20 6 -44 -41 -52 -24 -3 -48 -3 -54 1 -16 10 -13 125 5 177 15 46 16 46 52
40 70 -13 116 -9 120 11 3 15 -5 17 -67 17 -39 0 -71 4 -71 8 0 20 61 101 106
141 61 54 90 69 106 53 14 -14 48 -16 48 -2 0 5 -8 13 -17 19 -10 5 -15 12
-12 15 9 9 114 54 118 50 2 -1 -13 -20 -32 -41z m-671 8 c-34 -35 -116 -95
-116 -84 1 7 129 111 139 113 3 0 -8 -13 -23 -29z m94 22 c0 -5 -17 -16 -38
-26 l-37 -17 30 25 c30 25 45 31 45 18z m34 -52 c3 -5 -3 -11 -15 -14 -16 -4
-18 -3 -8 9 13 16 16 17 23 5z m266 -10 c0 -4 -39 -9 -87 -9 -60 0 -80 2 -63
8 34 11 150 12 150 1z m-316 -16 c-3 -8 -27 -36 -53 -62 -47 -48 -51 -53 -51
-74 0 -8 -6 -7 -17 2 -15 12 -16 12 -9 -5 13 -37 -106 -118 -238 -161 -42 -14
-79 -25 -82 -25 -3 0 3 13 12 29 13 22 29 31 73 41 31 7 79 23 106 36 49 23
155 115 155 135 0 6 5 7 12 3 7 -5 8 -3 3 5 -4 8 7 27 31 52 38 39 68 52 58
24z m-710 -52 c-14 -26 -30 -67 -36 -91 -11 -43 -12 -44 -44 -39 -24 4 -34 2
-34 -8 0 -14 21 -25 51 -25 16 0 19 -7 19 -45 0 -25 7 -62 15 -82 22 -51 19
-58 -25 -78 -22 -10 -40 -22 -40 -26 0 -19 23 -18 60 2 22 12 41 21 43 18 29
-37 47 -71 42 -80 -24 -37 -104 -24 -130 22 -27 46 -36 73 -30 87 4 12 3 12
-9 3 -11 -9 -15 -9 -19 1 -3 7 -6 4 -6 -8 -1 -11 -6 -25 -12 -31 -7 -7 -8 -17
-3 -25 5 -7 10 -22 11 -34 4 -23 -31 -44 -72 -44 -21 0 -27 8 -40 55 -9 30
-15 74 -13 97 l3 43 43 -3 c54 -3 59 23 6 33 -33 6 -35 8 -29 33 16 68 127
197 168 197 14 0 21 5 20 16 -3 13 58 58 79 59 4 0 -4 -21 -18 -47z m939 13
c-3 -4 5 -5 18 -2 19 6 20 5 8 -3 -9 -6 -34 -9 -55 -7 -50 4 -150 -17 -202
-42 -27 -13 -39 -15 -35 -7 6 16 91 54 146 65 52 10 127 8 120 -4z m-398 -33
c-53 -43 -99 -72 -130 -79 l-30 -7 39 41 c24 26 54 44 82 52 25 7 47 17 50 22
3 5 9 6 13 3 3 -4 -7 -18 -24 -32z m965 -46 c-38 -24 -104 -35 -98 -16 2 7 20
17 38 22 19 5 43 15 54 23 15 10 22 11 28 2 4 -8 -4 -19 -22 -31z m-1120 23
c0 -5 -5 -10 -11 -10 -5 0 -7 5 -4 10 3 6 8 10 11 10 2 0 4 -4 4 -10z m-220
-4 c0 -3 -4 -8 -10 -11 -5 -3 -10 -1 -10 4 0 6 5 11 10 11 6 0 10 -2 10 -4z
m650 -6 c-14 -4 -36 -8 -50 -8 l-25 0 25 8 c14 4 36 8 50 8 l25 0 -25 -8z
m-477 -44 c-19 -26 -33 -33 -33 -16 0 6 4 10 10 10 5 0 6 8 3 17 -5 12 -2 15
10 10 9 -3 16 -3 16 1 -3 16 3 26 8 15 2 -7 -4 -24 -14 -37z m167 5 c-43 -37
-106 -69 -151 -77 -34 -7 -34 -7 -16 13 10 12 35 24 55 28 40 7 107 39 117 55
3 5 11 10 18 10 6 0 -4 -13 -23 -29z m-387 5 c-4 -7 -36 -44 -70 -82 -56 -61
-63 -66 -63 -43 0 25 55 86 110 123 30 20 33 20 23 2z m132 -6 c-10 -11 -20
-18 -23 -16 -5 6 21 35 32 36 5 0 1 -9 -9 -20z m1311 -8 c-10 -17 -92 -41
-107 -32 -10 7 -5 12 16 19 17 6 41 17 55 24 25 14 47 7 36 -11z m-1464 -84
c-22 -29 -48 -68 -58 -85 -21 -37 -34 -42 -34 -14 0 15 113 151 126 151 3 0
-13 -24 -34 -52z m103 43 c3 -5 1 -12 -5 -16 -5 -3 -10 1 -10 9 0 18 6 21 15
7z m1325 -26 c-30 -17 -40 -18 -40 -6 0 10 22 18 50 19 8 1 4 -5 -10 -13z
m-1348 -1 c3 -3 -9 -30 -27 -59 -18 -30 -41 -82 -51 -115 -11 -33 -22 -60 -25
-60 -4 0 -14 11 -23 25 -16 24 -15 28 8 74 24 46 94 139 107 140 3 1 8 -2 11
-5z m1272 -44 c5 -17 4 -20 -2 -10 -5 8 -13 26 -16 40 -5 17 -4 20 2 10 5 -8
13 -26 16 -40z m-683 -4 c5 3 9 0 9 -6 0 -7 -6 -10 -12 -7 -7 2 -20 -6 -28
-19 -14 -20 -17 -21 -35 -7 -19 15 -19 15 4 8 17 -5 22 -4 19 6 -5 16 25 43
30 28 2 -5 8 -7 13 -3z m640 -36 c6 -16 15 -28 19 -25 9 5 60 -58 60 -73 0 -6
6 -13 13 -15 7 -4 8 -6 1 -6 -13 -1 -64 62 -64 79 0 6 -4 9 -9 6 -11 -7 -26
12 -34 42 -8 32 2 27 14 -8z m149 -72 c61 -74 157 -146 227 -169 l58 -20 -57
5 c-69 5 -145 44 -191 96 -71 80 -112 137 -112 155 0 6 -4 17 -9 25 -9 18 23
-17 84 -92z m-210 22 c0 -5 -2 -10 -4 -10 -3 0 -8 5 -11 10 -3 6 -1 10 4 10 6
0 11 -4 11 -10z m33 -20 c3 -11 1 -20 -4 -20 -5 0 -9 4 -9 9 0 5 -3 17 -7 27
-4 11 -3 15 4 11 6 -4 13 -16 16 -27z m-1123 4 c0 -8 -4 -12 -10 -9 -5 3 -10
10 -10 16 0 5 5 9 10 9 6 0 10 -7 10 -16z m981 -26 l21 -42 -22 -18 c-27 -22
-59 -23 -66 -3 -4 8 -12 15 -19 15 -7 0 -18 12 -23 28 -9 26 -7 28 37 43 25 9
47 17 48 18 2 0 12 -18 24 -41z m77 0 c-7 -19 -38 -22 -38 -4 0 10 9 16 21 16
12 0 19 -5 17 -12z m132 -46 c0 -9 3 -13 6 -10 3 3 23 -13 45 -37 65 -70 143
-125 216 -151 62 -22 65 -24 31 -24 -92 0 -179 57 -298 198 -52 62 -69 102
-26 63 14 -14 26 -31 26 -39z m-614 36 c4 -6 3 -8 -4 -4 -6 3 -12 -3 -14 -16
-3 -21 -4 -21 -18 -3 -8 10 -10 16 -4 12 7 -4 14 0 18 8 7 18 12 19 22 3z
m861 -169 c45 -18 76 -23 143 -22 47 0 98 5 113 12 41 16 24 -5 -23 -29 -22
-11 -54 -20 -73 -20 -50 0 -147 28 -197 57 -50 30 -125 97 -142 128 -6 11 18
-8 55 -42 43 -40 86 -69 124 -84z m-652 99 c2 -7 6 -28 9 -45 4 -30 2 -33 -20
-33 -30 0 -74 41 -74 70 0 17 6 20 40 20 24 0 42 -5 45 -12z m-1177 -111 c15
-43 15 -47 -4 -47 -8 0 -30 14 -47 32 -30 29 -31 32 -12 39 37 14 51 9 63 -24z
m1622 13 c0 -5 -5 -10 -11 -10 -5 0 -7 5 -4 10 3 6 8 10 11 10 2 0 4 -4 4 -10z
m-1739 -12 c1 -7 0 -17 -1 -23 -10 -39 -10 -96 -1 -114 9 -16 8 -27 -3 -48
l-14 -27 -21 34 c-22 36 -30 120 -11 120 5 0 7 7 4 15 -4 8 -1 15 6 15 6 0 9
4 6 9 -4 5 4 7 16 3 21 -5 22 -4 9 11 -9 11 -10 17 -2 17 6 0 12 -6 12 -12z
m-97 -53 c-6 -56 9 -116 41 -153 25 -29 25 -30 6 -53 l-18 -23 -33 67 c-28 57
-32 75 -28 120 4 43 20 84 35 87 2 0 0 -20 -3 -45z m133 -25 c-6 -16 -13 -28
-15 -26 -6 6 10 56 18 56 5 0 3 -13 -3 -30z m1911 -70 c-14 -22 -38 -27 -38
-8 0 6 3 9 6 5 4 -3 13 0 21 8 20 21 25 18 11 -5z m-55 -5 c-3 -9 -8 -14 -10
-11 -3 3 -2 9 2 15 9 16 15 13 8 -4z m30 -62 c-20 -7 -15 -23 5 -16 10 4 14 2
9 -3 -10 -10 -57 -13 -57 -4 0 12 24 30 40 29 10 0 11 -2 3 -6z m37 -3 c0 -5
-2 -10 -4 -10 -3 0 -8 5 -11 10 -3 6 -1 10 4 10 6 0 11 -4 11 -10z m25 0 c3
-5 1 -10 -4 -10 -6 0 -11 5 -11 10 0 6 2 10 4 10 3 0 8 -4 11 -10z m-61 -68
c3 -5 -1 -9 -9 -9 -8 0 -15 4 -15 9 0 4 4 8 9 8 6 0 12 -4 15 -8z m-30 -117
c-4 -8 -8 -15 -10 -15 -2 0 -4 7 -4 15 0 8 4 15 10 15 5 0 7 -7 4 -15z m43 -1
c-3 -3 -12 -4 -19 -1 -8 3 -5 6 6 6 11 1 17 -2 13 -5z m-655 -56 c-7 -7 -12
-8 -12 -2 0 14 12 26 19 19 2 -3 -1 -11 -7 -17z m493 2 c-3 -5 -12 -10 -18
-10 -7 0 -6 4 3 10 19 12 23 12 15 0z m-516 -57 c-8 -14 -69 -29 -69 -17 0 21
17 34 46 34 30 0 33 -2 23 -17z m124 0 c16 -10 -17 -33 -42 -30 -18 3 -27 10
-29 26 -3 21 -1 22 30 16 18 -4 37 -9 41 -12z m77 -33 c13 -8 13 -11 -1 -25
-20 -21 -48 -10 -42 16 6 21 20 24 43 9z m-240 -19 c0 -5 -7 -14 -15 -21 -8
-7 -15 -9 -15 -5 0 4 -7 2 -15 -5 -20 -17 -20 4 1 24 17 17 44 22 44 7z m571
-18 c-12 -20 -14 -14 -5 12 4 9 9 14 11 11 3 -2 0 -13 -6 -23z m-458 7 c7 0 3
-7 -7 -15 -21 -16 -56 -20 -56 -7 0 15 24 32 38 27 8 -3 19 -5 25 -5z m-1423
-51 c24 -18 27 -27 23 -54 -3 -18 0 -42 6 -54 10 -17 9 -21 -5 -21 -9 0 -18 9
-21 20 -3 11 -9 20 -14 20 -11 0 -11 -3 1 -36 9 -24 9 -25 -5 -14 -22 19 -39
83 -31 124 4 20 9 36 12 36 3 0 18 -10 34 -21z m1510 11 c0 -5 -4 -10 -9 -10
-5 0 -18 -3 -28 -7 -16 -6 -16 -5 -4 10 15 19 41 23 41 7z m-1205 -37 c19 -9
35 -24 35 -32 0 -33 -13 -61 -26 -61 -15 0 -18 6 -28 53 -4 15 -10 27 -16 27
-5 0 -10 -12 -12 -27 -2 -22 -9 -29 -30 -31 -20 -2 -28 1 -28 12 0 9 5 16 11
16 8 0 7 5 -1 15 -14 17 -15 17 20 32 34 15 34 15 75 -4z m980 -4 c8 -25 -2
-89 -15 -89 -4 0 -6 10 -2 22 3 14 2 19 -6 14 -7 -4 -12 -14 -12 -22 0 -8 -3
-14 -7 -14 -5 0 -8 25 -8 55 0 50 2 55 22 55 13 0 24 -8 28 -21z m108 10 c21
-5 41 -17 44 -25 7 -20 -14 -68 -43 -95 -24 -23 -32 -13 -15 20 8 13 5 17 -14
19 -13 1 -26 -5 -29 -13 -3 -8 -12 -15 -21 -15 -13 0 -14 4 -4 21 6 12 9 39 6
60 -5 35 -3 39 16 39 12 0 39 -5 60 -11z m-848 -29 c42 0 46 -2 43 -22 -5 -35
-58 -36 -113 -4 -24 15 -47 32 -51 38 -4 7 7 2 25 -11 17 -13 51 -25 74 -27
36 -3 38 -2 12 5 -34 9 -95 39 -95 47 0 2 13 -2 30 -11 16 -8 50 -15 75 -15z
m-402 0 c10 0 17 -8 17 -19 0 -11 6 -22 13 -24 6 -3 0 -6 -15 -6 -17 -1 -32 7
-42 20 -14 20 -43 18 -30 -2 3 -6 3 -17 0 -26 -10 -25 -36 4 -36 40 0 29 1 29
38 23 20 -3 45 -6 55 -6z m782 -10 c38 -6 43 -8 20 -10 -16 -1 -41 -1 -54 0
-14 1 -21 -2 -17 -9 10 -16 82 -13 116 4 40 21 38 10 -2 -15 -44 -27 -96 -26
-125 2 -28 26 -31 54 -5 43 9 -4 40 -11 67 -15z m285 -4 c0 -13 -3 -31 -6 -40
-9 -23 -34 -20 -34 4 0 26 -26 26 -33 0 -5 -21 -33 -37 -45 -26 -3 4 -1 11 6
15 7 4 10 15 6 24 -5 13 0 17 17 17 13 1 35 7 49 15 35 20 40 19 40 -9z m-778
-20 l51 -35 -34 -20 c-33 -20 -62 -20 -83 0 -6 6 -2 9 10 9 10 0 25 4 33 9 11
7 9 14 -12 34 -26 23 -34 37 -22 37 3 0 29 -15 57 -34z m613 -15 c-3 -5 2 -17
11 -26 22 -22 10 -31 -22 -16 -32 14 -39 9 -24 -18 14 -27 -1 -27 -25 -1 -20
22 -19 25 22 51 31 20 47 24 38 10z m955 -31 c-8 -5 -19 -10 -25 -10 -5 0 -3
5 5 10 8 5 20 10 25 10 6 0 3 -5 -5 -10z m-1290 -40 c0 -5 -2 -10 -4 -10 -3 0
-8 5 -11 10 -3 6 -1 10 4 10 6 0 11 -4 11 -10z m-50 -194 c0 -9 -30 -14 -35
-6 -4 6 3 10 14 10 12 0 21 -2 21 -4z m180 -16 c12 -8 11 -10 -7 -10 -12 0
-25 5 -28 10 -8 13 15 13 35 0z m947 -112 c-3 -8 -6 -5 -6 6 -1 11 2 17 5 13
3 -3 4 -12 1 -19z m-2 -38 c3 -5 1 -10 -4 -10 -6 0 -11 5 -11 10 0 6 2 10 4
10 3 0 8 -4 11 -10z m-45 -100 c0 -5 -4 -10 -10 -10 -5 0 -10 5 -10 10 0 6 5
10 10 10 6 0 10 -4 10 -10z m-35 -40 c3 -5 1 -10 -4 -10 -6 0 -11 5 -11 10 0
6 2 10 4 10 3 0 8 -4 11 -10z m-268 -206 c-3 -3 -12 -4 -19 -1 -8 3 -5 6 6 6
11 1 17 -2 13 -5z m-532 -203 c-3 -12 -10 -21 -15 -21 -5 0 -4 11 2 25 13 29
23 26 13 -4z m-365 -46 c0 -8 -4 -15 -8 -15 -5 0 -9 7 -9 15 0 8 4 15 9 15 4
0 8 -7 8 -15z"/>
<path d="M8480 2051 c0 -6 4 -13 10 -16 6 -3 7 1 4 9 -7 18 -14 21 -14 7z"/>
<path d="M7680 1929 c0 -5 5 -7 10 -4 6 3 10 8 10 11 0 2 -4 4 -10 4 -5 0 -10
-5 -10 -11z"/>
<path d="M8354 1706 c-39 -14 -82 -22 -97 -19 -20 4 -27 1 -27 -11 0 -21 68
-21 125 -1 49 18 48 18 39 3 -5 -8 0 -7 11 2 11 9 16 10 11 3 -4 -7 -2 -13 3
-13 6 0 11 6 11 13 0 8 4 7 10 -3 5 -8 10 -10 10 -5 0 6 9 12 20 13 43 4 48 6
43 18 -4 11 -49 25 -77 24 -6 -1 -43 -11 -82 -24z"/>
<path d="M7278 1694 c-9 -3 -19 -11 -21 -18 -4 -9 6 -12 31 -11 21 0 42 -2 47
-6 6 -4 23 -9 37 -11 15 -2 37 -13 49 -23 12 -11 19 -14 14 -6 -5 9 -3 12 6 9
8 -3 13 -11 11 -18 -2 -7 3 -10 11 -7 9 3 14 -1 13 -11 -1 -10 6 -16 16 -16
10 1 15 -2 12 -7 -6 -11 35 -48 54 -49 7 0 10 -4 7 -10 -3 -5 -1 -10 5 -10 6
0 9 -4 6 -8 -2 -4 4 -14 16 -21 16 -10 19 -10 13 1 -4 8 -1 7 7 -2 29 -33 124
-34 104 -1 -4 6 -17 11 -28 11 -14 0 -54 33 -109 89 -49 48 -105 97 -126 107
-37 17 -140 28 -175 18z"/>
<path d="M8608 1694 c-5 -5 -15 -7 -47 -13 -10 -2 46 -54 71 -67 38 -20 65
-18 71 6 3 11 1 18 -4 14 -5 -3 -9 3 -9 13 0 15 -2 16 -10 3 -7 -11 -10 -11
-10 -2 0 7 -6 12 -12 10 -7 -1 -23 2 -36 6 -19 6 -21 10 -11 22 11 13 8 20 -3
8z"/>
<path d="M7599 1639 c-12 -8 -12 -10 1 -19 8 -5 20 -10 26 -10 6 0 17 -6 23
-14 10 -12 8 -15 -14 -18 -14 -2 -26 -7 -26 -13 0 -12 62 -24 146 -29 33 -1
72 -6 86 -10 29 -8 51 10 25 20 -9 3 -16 11 -16 16 0 11 41 7 74 -7 14 -6 17
-4 14 11 -6 33 -51 40 -129 20 l-71 -18 -38 31 c-49 39 -82 52 -101 40z"/>
<path d="M8402 1629 c-23 -4 -48 -12 -55 -16 -6 -4 -37 -10 -67 -14 -43 -4
-51 -7 -35 -14 11 -5 22 -11 25 -15 7 -9 140 12 140 22 0 9 97 -20 125 -38 12
-8 32 -13 46 -13 13 1 31 0 39 -2 8 -2 15 3 15 11 0 17 -115 76 -160 83 -16 2
-49 0 -73 -4z"/>
<path d="M620 1545 c0 -77 16 -105 22 -38 2 27 8 39 21 41 14 3 17 -4 17 -37
0 -30 4 -41 15 -41 11 0 15 11 15 39 0 43 -19 66 -50 58 -17 -4 -20 0 -20 24
0 16 -4 29 -10 29 -6 0 -10 -32 -10 -75z"/>
<path d="M1100 1545 c0 -43 4 -75 10 -75 6 0 10 11 10 24 0 34 10 56 25 56 15
0 25 -22 25 -56 0 -13 5 -24 10 -24 12 0 13 70 1 89 -6 9 -18 11 -35 7 -24 -6
-26 -4 -26 24 0 16 -4 30 -10 30 -6 0 -10 -32 -10 -75z"/>
<path d="M1380 1545 c0 -43 4 -75 10 -75 6 0 10 32 10 75 0 43 -4 75 -10 75
-6 0 -10 -32 -10 -75z"/>
<path d="M2180 1545 c0 -60 3 -75 15 -75 12 0 15 15 15 75 0 60 -3 75 -15 75
-12 0 -15 -15 -15 -75z"/>
<path d="M515 1594 c-21 -21 -16 -35 23 -59 38 -25 35 -41 -7 -38 -34 1 -39
-19 -7 -25 65 -13 92 44 36 76 -35 20 -34 37 3 37 16 -1 27 5 27 12 0 19 -55
16 -75 -3z"/>
<path d="M8070 1584 c-25 -14 -56 -36 -70 -49 -33 -31 -91 -55 -135 -55 -34 0
-44 -15 -20 -32 17 -13 80 -9 101 7 12 8 24 11 28 8 3 -3 6 -1 6 5 0 6 10 14
22 18 12 3 31 15 42 26 31 29 103 78 115 78 6 0 11 5 11 10 0 19 -55 10 -100
-16z"/>
<path d="M1031 1582 c-6 -10 -8 -27 -6 -38 14 -70 16 -74 35 -74 11 0 20 5 20
10 0 6 -4 10 -10 10 -15 0 -12 57 3 64 10 5 10 7 0 12 -7 3 -13 12 -13 20 0
20 -17 17 -29 -4z"/>
<path d="M1538 1581 c-9 -10 -12 -23 -8 -27 5 -5 10 -25 12 -44 2 -27 8 -36
26 -38 25 -4 30 13 7 22 -8 3 -15 17 -15 31 0 16 6 25 15 25 8 0 15 5 15 10 0
6 -6 10 -14 10 -8 0 -16 7 -18 15 -2 13 -6 13 -20 -4z"/>
<path d="M1810 1586 c0 -8 -6 -17 -12 -20 -10 -5 -10 -7 0 -12 6 -3 12 -21 12
-40 0 -34 22 -56 38 -39 4 4 1 10 -5 12 -7 3 -13 17 -13 33 0 16 6 31 13 34
10 5 10 7 0 12 -7 3 -13 12 -13 20 0 8 -4 14 -10 14 -5 0 -10 -6 -10 -14z"/>
<path d="M2020 1586 c0 -8 -6 -17 -12 -19 -10 -4 -10 -8 -1 -14 6 -4 13 -24
15 -43 2 -27 8 -36 26 -38 25 -4 30 13 7 22 -22 8 -19 53 3 58 15 4 22 -5 35
-39 17 -46 14 -73 -10 -73 -8 0 -11 -4 -8 -10 20 -32 59 20 90 119 12 38 -17
20 -30 -19 -12 -36 -18 -33 -29 13 -5 22 -12 27 -36 27 -20 0 -30 5 -30 15 0
8 -4 15 -10 15 -5 0 -10 -6 -10 -14z"/>
<path d="M7225 1592 c-33 -8 -37 -27 -5 -27 10 0 23 -5 27 -9 4 -5 2 -6 -4 -2
-7 4 -13 3 -13 -3 0 -8 32 -24 52 -26 3 0 9 -3 13 -7 4 -4 13 -4 21 -1 8 3 14
0 14 -6 0 -6 7 -11 16 -11 8 0 12 5 8 11 -3 6 5 3 20 -6 14 -10 26 -22 26 -27
0 -5 5 -6 10 -3 6 3 10 -2 10 -11 0 -10 3 -14 6 -11 4 4 19 -2 34 -13 16 -11
33 -20 40 -20 6 0 8 -5 4 -11 -4 -7 -1 -10 7 -7 8 3 26 -5 40 -19 28 -26 99
-44 99 -24 0 6 -16 17 -35 25 -20 9 -70 51 -111 95 -45 47 -92 86 -114 95 -47
18 -125 27 -165 18z"/>
<path d="M741 1556 c-16 -19 -10 -66 10 -79 44 -28 95 25 69 72 -13 25 -61 29
-79 7z m63 -21 c8 -23 -4 -45 -25 -45 -22 0 -34 22 -25 45 3 8 14 15 25 15 10
0 21 -7 25 -15z"/>
<path d="M850 1494 c0 -59 3 -74 15 -74 10 0 15 10 15 29 0 24 3 28 20 24 28
-7 50 14 50 47 0 36 -16 48 -62 48 l-38 0 0 -74z m75 46 c11 -18 -6 -50 -26
-50 -13 0 -19 7 -19 23 0 13 3 27 7 30 10 10 31 8 38 -3z"/>
<path d="M1226 1554 c-21 -20 -20 -48 0 -69 18 -17 65 -17 71 1 2 7 -8 9 -27
6 -18 -3 -30 0 -30 7 0 6 14 11 30 11 22 0 30 5 30 18 0 39 -45 55 -74 26z
m54 -14 c0 -5 -9 -10 -20 -10 -11 0 -20 5 -20 10 0 6 9 10 20 10 11 0 20 -4
20 -10z"/>
<path d="M1437 1563 c-14 -13 -6 -20 18 -15 35 6 31 -11 -6 -25 -47 -18 -36
-47 19 -50 l42 -2 0 38 c0 20 -5 42 -12 49 -13 13 -50 16 -61 5z m43 -63 c0
-5 -7 -10 -15 -10 -8 0 -15 5 -15 10 0 6 7 10 15 10 8 0 15 -4 15 -10z"/>
<path d="M1616 1554 c-21 -20 -20 -48 0 -69 18 -17 65 -17 71 1 2 7 -8 9 -27
6 -18 -3 -30 0 -30 7 0 6 14 11 30 11 22 0 30 5 30 18 0 39 -45 55 -74 26z
m54 -14 c0 -5 -9 -10 -20 -10 -11 0 -20 5 -20 10 0 6 9 10 20 10 11 0 20 -4
20 -10z"/>
<path d="M1717 1563 c-14 -13 -6 -42 13 -48 11 -3 20 -11 20 -16 0 -5 -9 -9
-20 -9 -11 0 -20 -4 -20 -10 0 -11 30 -13 54 -4 24 9 19 30 -11 53 -27 20 -27
20 -5 21 12 0 22 5 22 10 0 11 -43 14 -53 3z"/>
<path d="M1933 1563 c-21 -8 -15 -30 15 -52 l27 -20 -27 -1 c-16 0 -28 -4 -28
-10 0 -11 30 -13 54 -4 24 9 19 30 -11 53 l-28 20 28 1 c16 0 26 4 22 10 -6
10 -31 12 -52 3z"/>
<path d="M2246 1554 c-21 -20 -20 -48 0 -69 18 -17 65 -17 71 1 2 7 -8 9 -27
6 -18 -3 -30 0 -30 7 0 6 14 11 30 11 22 0 30 5 30 18 0 39 -45 55 -74 26z
m54 -14 c0 -5 -9 -10 -20 -10 -11 0 -20 5 -20 10 0 6 9 10 20 10 11 0 20 -4
20 -10z"/>
<path d="M2353 1563 c-21 -8 -15 -30 15 -52 l27 -20 -27 -1 c-16 0 -28 -4 -28
-10 0 -11 30 -13 54 -4 24 9 19 30 -11 53 l-28 20 28 1 c16 0 26 4 22 10 -6
10 -31 12 -52 3z"/>
<path d="M8209 1490 c-31 -26 -15 -26 18 0 14 11 21 20 15 20 -5 0 -20 -9 -33
-20z"/>
<path d="M8393 1455 c-37 -16 -81 -73 -120 -154 -34 -72 -70 -121 -89 -121
-20 0 -17 20 11 74 13 25 21 46 17 46 -8 0 -52 -65 -52 -77 0 -3 -7 -14 -16
-24 -10 -12 -14 -27 -10 -42 4 -19 11 -23 31 -20 38 8 72 49 116 142 49 102
90 157 133 176 17 7 27 14 21 14 -5 0 -24 -6 -42 -14z"/>
<path d="M8153 1438 c-24 -28 -78 -116 -97 -160 -31 -73 -81 -103 -115 -69
-16 16 -20 30 -17 61 5 48 -3 51 -28 9 -14 -24 -16 -33 -6 -39 9 -5 9 -9 1
-14 -6 -4 -11 -13 -11 -21 0 -18 29 -47 41 -40 5 4 9 1 9 -5 0 -14 71 -6 98
11 26 17 74 93 96 154 10 28 29 69 42 93 25 46 19 55 -13 20z"/>
<path d="M7074 1382 c-5 -4 -16 -21 -23 -38 -21 -53 11 -134 53 -134 9 0 16
-5 16 -11 0 -5 4 -8 9 -4 5 3 12 1 15 -4 8 -12 46 -2 69 17 12 11 17 30 17 69
0 29 -4 53 -10 53 -5 0 -10 -13 -10 -30 0 -48 -20 -80 -49 -80 -51 1 -66 24
-66 100 0 71 -2 76 -21 62z"/>
<path d="M7210 1350 c0 -5 5 -10 10 -10 6 0 10 5 10 10 0 6 -4 10 -10 10 -5 0
-10 -4 -10 -10z"/>
<path d="M7331 1329 c-12 -36 -14 -109 -3 -124 11 -16 45 -31 67 -30 25 0 43
65 27 98 -10 21 -11 20 -11 -8 -1 -17 -8 -40 -16 -53 -13 -18 -19 -20 -34 -10
-16 9 -18 23 -16 85 1 40 1 73 0 73 -2 0 -8 -14 -14 -31z"/>
<path d="M7715 1276 c-25 -38 -16 -104 17 -129 37 -28 76 -17 73 20 -1 16 -3
52 -3 81 -1 35 -6 51 -13 47 -6 -4 -9 -32 -8 -64 3 -83 -17 -108 -41 -51 -8
19 -10 47 -6 75 8 51 4 56 -19 21z"/>
<path d="M9096 1280 c-16 -3 -31 -11 -34 -19 -3 -10 4 -12 36 -6 23 4 43 2 46
-3 3 -6 -12 -13 -34 -17 -50 -8 -56 -35 -8 -35 23 0 29 -3 21 -11 -10 -10 -43
-12 -100 -6 -37 4 -27 -17 13 -29 23 -6 33 -13 26 -18 -6 -4 -27 -3 -46 2 -48
14 -66 -5 -28 -30 26 -17 26 -18 4 -18 -13 0 -36 7 -51 15 -27 13 -41 11 -41
-6 0 -4 16 -13 34 -20 43 -16 37 -31 -7 -18 -40 11 -47 11 -47 -1 0 -5 12 -16
28 -25 l27 -16 -35 5 c-19 2 -46 7 -59 11 -44 14 -18 -19 30 -37 24 -9 40 -18
34 -19 -31 -5 -75 -3 -75 4 0 5 -5 5 -11 1 -14 -8 26 -33 54 -34 9 0 17 -4 17
-10 0 -14 -27 -12 -75 5 -48 17 -55 18 -55 5 0 -14 53 -39 89 -42 17 -1 31 -6
31 -11 0 -8 -25 -5 -85 9 -20 5 -20 5 0 -7 11 -7 29 -21 39 -31 11 -10 23 -18
27 -18 17 0 39 -33 39 -58 0 -25 -4 -23 -51 30 -51 58 -108 88 -143 75 -20 -8
-21 -27 -1 -27 41 0 96 -35 130 -81 26 -36 42 -49 60 -49 33 0 47 28 35 71
-35 119 5 192 173 318 32 25 65 57 73 73 14 26 14 32 0 52 -17 27 -39 34 -80
26z"/>
<path d="M7601 1270 c3 -23 -21 -78 -36 -84 -24 -9 -47 23 -40 55 8 37 -12 39
-21 2 -10 -37 14 -75 55 -87 28 -8 36 -7 47 9 15 20 16 86 2 107 -7 10 -8 10
-7 -2z"/>
<path d="M1558 1128 c12 -15 9 -17 -30 -21 l-43 -4 44 -1 c40 -2 42 -3 30 -19
-13 -16 -12 -17 4 -4 9 7 17 19 17 26 0 7 -8 19 -17 26 -16 13 -17 12 -5 -3z"/>
<path d="M500 1090 c0 -39 1 -40 35 -40 19 0 35 5 35 11 0 8 6 7 18 -2 14 -11
15 -11 5 1 -9 10 -9 18 -1 34 10 19 10 20 -5 7 -11 -9 -17 -10 -17 -2 0 6 -5
11 -11 11 -8 0 -8 -4 1 -15 16 -19 4 -35 -26 -35 -28 0 -33 26 -6 33 16 4 16
5 0 6 -10 0 -18 5 -18 10 0 5 8 12 18 14 13 4 11 5 -5 6 -20 1 -23 -4 -23 -39z"/>
<path d="M683 1090 c0 -25 2 -35 4 -22 2 12 2 32 0 45 -2 12 -4 2 -4 -23z"/>
<path d="M1130 1121 c0 -5 -9 -11 -21 -14 -29 -8 -22 -51 9 -55 20 -3 22 1 22
37 0 23 -2 41 -5 41 -3 0 -5 -4 -5 -9z m0 -41 c0 -21 -15 -27 -25 -10 -7 12 2
30 16 30 5 0 9 -9 9 -20z"/>
<path d="M1280 1121 c0 -5 -10 -11 -22 -13 -31 -4 -33 -51 -3 -56 20 -4 20 -3
1 11 -20 15 -15 37 10 37 8 0 14 -10 14 -25 0 -17 5 -25 18 -24 10 0 12 3 5 6
-15 5 -17 40 -4 45 5 2 3 9 -5 16 -8 7 -14 8 -14 3z"/>
<path d="M610 1066 c0 -22 4 -36 8 -30 4 6 15 13 25 17 27 10 19 52 -10 53
-20 1 -23 -3 -23 -40z m40 14 c0 -11 -4 -20 -9 -20 -14 0 -23 18 -16 30 10 17
25 11 25 -10z"/>
<path d="M714 1096 c-9 -24 4 -48 23 -44 12 2 18 12 18 28 0 29 -32 41 -41 16z
m36 -16 c0 -21 -15 -27 -25 -10 -7 12 2 30 16 30 5 0 9 -9 9 -20z"/>
<path d="M781 1078 c1 -22 3 -26 6 -13 3 11 10 26 15 33 8 9 6 12 -6 12 -12 0
-16 -9 -15 -32z"/>
<path d="M824 1095 c-9 -22 3 -45 23 -45 15 0 15 2 -3 15 -17 13 -17 14 -1 15
21 0 23 30 2 30 -9 0 -18 -7 -21 -15z"/>
<path d="M910 1066 c0 -22 4 -36 8 -30 4 6 15 13 25 17 27 10 19 52 -10 53
-20 1 -23 -3 -23 -40z m40 14 c0 -21 -15 -27 -25 -10 -7 12 2 30 16 30 5 0 9
-9 9 -20z"/>
<path d="M981 1078 c1 -22 3 -26 6 -13 3 11 10 26 15 33 8 9 6 12 -6 12 -12 0
-16 -9 -15 -32z"/>
<path d="M1024 1096 c-9 -24 4 -48 23 -44 12 2 18 12 18 28 0 29 -32 41 -41
16z m36 -16 c0 -21 -15 -27 -25 -10 -7 12 2 30 16 30 5 0 9 -9 9 -20z"/>
<path d="M1164 1080 c1 -18 7 -26 24 -28 19 -3 22 1 21 30 -2 30 -2 31 -6 6
-5 -34 -30 -37 -36 -5 -3 19 -4 19 -3 -3z"/>
<path d="M1324 1099 c-3 -6 0 -15 7 -20 12 -8 12 -11 -1 -19 -13 -8 -12 -10 3
-10 19 0 23 25 6 36 -8 4 -7 9 2 15 10 6 10 9 2 9 -6 0 -15 -5 -19 -11z"/>
<path d="M7177 1002 c-9 -2 -17 -8 -17 -14 0 -5 7 -7 16 -4 9 3 29 6 45 6 16
0 29 4 29 10 0 8 -33 9 -73 2z"/>
<path d="M7270 990 c0 -5 12 -10 26 -10 14 0 38 -8 52 -18 15 -10 35 -22 45
-25 10 -4 15 -11 12 -17 -3 -5 2 -10 12 -10 14 0 15 -2 4 -9 -9 -6 -10 -11 -2
-15 6 -4 11 -22 11 -40 0 -17 6 -38 12 -44 10 -10 10 -15 -2 -22 -13 -9 -13
-11 0 -20 13 -8 13 -10 -1 -10 -9 0 -24 -16 -35 -35 -10 -19 -21 -35 -24 -35
-10 0 -67 -55 -73 -70 -3 -8 -6 -10 -6 -4 -1 8 -12 6 -36 -4 -39 -18 -48 -37
-12 -27 71 20 106 37 100 51 -3 8 0 14 6 14 6 0 11 -5 11 -10 0 -6 8 -5 19 2
11 7 18 15 15 19 -2 4 0 10 6 14 5 3 10 1 10 -5 0 -7 7 -5 16 4 8 9 12 20 9
26 -3 5 1 10 10 10 11 0 15 5 12 14 -3 8 2 17 11 21 14 5 14 7 2 16 -11 8 -12
12 -2 16 6 2 12 9 12 14 0 6 -4 7 -10 4 -5 -3 -10 -2 -10 4 0 5 4 11 8 13 5 2
5 14 1 28 l-6 25 -11 -25 c-11 -25 -11 -25 -11 -2 -1 12 5 25 13 28 32 12 -32
91 -100 123 -46 22 -94 28 -94 11z m115 -30 c3 -5 1 -10 -4 -10 -6 0 -11 5
-11 10 0 6 2 10 4 10 3 0 8 -4 11 -10z"/>
<path d="M7135 980 c3 -5 8 -10 11 -10 2 0 4 5 4 10 0 6 -5 10 -11 10 -5 0 -7
-4 -4 -10z"/>
<path d="M8179 982 c-44 -12 -89 -42 -89 -61 0 -6 16 1 36 14 48 33 89 39 160
25 32 -7 66 -12 74 -13 8 0 21 -6 28 -14 15 -14 32 -17 32 -5 0 12 -61 41
-110 51 -44 9 -103 11 -131 3z"/>
<path d="M7094 965 c-15 -11 -16 -14 -4 -15 21 0 44 16 33 23 -6 4 -19 0 -29
-8z"/>
<path d="M768 963 c156 -2 408 -2 560 0 152 1 25 2 -283 2 -308 0 -433 -1
-277 -2z"/>
<path d="M7208 965 c-14 -14 3 -25 38 -25 52 0 101 -25 124 -62 17 -27 20 -43
15 -85 -4 -41 -2 -53 9 -53 16 0 26 30 26 81 0 40 -30 91 -72 122 -28 21 -126
36 -140 22z"/>
<path d="M8514 956 c-19 -14 -18 -15 6 -41 14 -15 32 -31 41 -36 13 -7 16 -3
13 16 -2 19 3 26 22 31 13 3 31 3 39 0 29 -11 6 11 -29 28 -42 20 -66 20 -92
2z"/>
<path d="M7046 925 c-20 -30 -13 -32 14 -5 10 10 15 22 11 25 -5 2 -16 -6 -25
-20z"/>
<path d="M8144 931 c-45 -27 -64 -59 -64 -106 0 -40 31 -105 49 -105 19 0 19
17 0 46 -50 76 -2 150 103 157 23 2 43 8 46 15 7 21 -98 15 -134 -7z"/>
<path d="M7173 909 c-22 -7 -31 -14 -27 -24 4 -11 -1 -15 -17 -15 -29 0 -56
-16 -46 -27 5 -4 11 -3 15 3 4 5 16 10 27 10 65 2 75 5 75 20 0 8 5 12 10 9 6
-4 8 -11 5 -16 -4 -5 6 -9 20 -9 17 0 24 -4 19 -12 -5 -8 -3 -8 7 -2 14 9 59
14 59 6 0 -2 -5 -12 -10 -22 -8 -16 -8 -18 5 -14 8 4 15 17 15 30 0 19 -5 24
-24 24 -14 0 -27 4 -30 9 -4 5 2 8 11 6 10 -2 26 -4 35 -4 9 -1 18 -9 20 -18
2 -10 6 -13 10 -8 10 16 -18 46 -44 47 -12 1 -29 6 -37 12 -12 9 -13 8 -6 -4
6 -12 5 -13 -6 -2 -15 14 -40 14 -86 1z"/>
<path d="M8058 897 c-22 -34 -29 -57 -16 -57 6 0 7 -5 2 -12 -5 -7 -9 -20 -8
-28 2 -14 3 -20 9 -37 2 -5 6 -18 10 -30 4 -13 13 -23 20 -23 7 0 15 -9 18
-20 3 -12 14 -20 27 -20 11 0 19 -4 15 -9 -3 -5 20 -21 51 -36 58 -28 89 -28
35 -1 -35 19 -109 88 -138 131 -28 40 -32 95 -10 128 9 14 13 28 8 31 -5 3
-15 -4 -23 -17z"/>
<path d="M7690 895 c0 -8 5 -15 11 -15 6 0 8 -9 4 -21 -6 -19 -4 -21 18 -15
14 3 29 1 32 -4 5 -8 11 -7 20 0 8 7 23 9 35 5 14 -5 20 -2 20 9 0 9 -5 16
-11 16 -8 0 -7 5 1 15 20 24 2 31 -31 12 -27 -15 -33 -15 -59 -2 -36 19 -40
19 -40 0z"/>
<path d="M8180 897 c-41 -14 -66 -53 -56 -88 3 -13 27 -47 54 -76 46 -51 48
-52 87 -44 22 5 33 9 24 10 -20 1 -63 47 -55 59 3 6 -1 13 -10 16 -12 5 -14
10 -5 20 6 7 8 16 4 20 -4 3 2 13 13 21 10 8 14 15 7 15 -6 0 -15 -4 -18 -10
-9 -15 -25 -12 -25 4 0 10 11 12 40 10 29 -2 39 0 34 8 -5 8 -2 9 10 5 14 -6
17 -3 12 8 -5 14 -4 14 16 0 13 -8 32 -14 43 -14 17 1 17 2 2 6 -9 2 -15 9
-12 14 4 5 15 5 28 -2 21 -10 21 -10 3 5 -24 19 -43 20 -49 4 -3 -8 -6 -6 -6
5 -1 14 -10 17 -53 16 -29 0 -69 -5 -88 -12z m56 -16 c-7 -11 -56 -21 -56 -10
0 4 8 10 18 12 30 8 43 7 38 -2z m-76 -21 c0 -5 -4 -10 -10 -10 -5 0 -10 5
-10 10 0 6 5 10 10 10 6 0 10 -4 10 -10z m17 -32 c-3 -8 -6 -5 -6 6 -1 11 2
17 5 13 3 -3 4 -12 1 -19z m23 -24 c0 -8 -5 -12 -10 -9 -6 4 -8 11 -5 16 9 14
15 11 15 -7z m-30 -4 c0 -5 -2 -10 -4 -10 -3 0 -8 5 -11 10 -3 6 -1 10 4 10 6
0 11 -4 11 -10z m43 -45 c-3 -9 -8 -14 -10 -11 -3 3 -2 9 2 15 9 16 15 13 8
-4z m27 -56 c0 -6 -4 -7 -10 -4 -5 3 -10 11 -10 16 0 6 5 7 10 4 6 -3 10 -11
10 -16z"/>
<path d="M8410 860 c0 -5 5 -10 10 -10 6 0 10 5 10 10 0 6 -4 10 -10 10 -5 0
-10 -4 -10 -10z"/>
<path d="M7280 834 c0 -8 5 -12 10 -9 6 4 8 11 5 16 -9 14 -15 11 -15 -7z"/>
<path d="M7350 840 c-8 -5 -11 -12 -7 -16 4 -4 13 -2 19 4 15 15 7 24 -12 12z"/>
<path d="M7600 830 c0 -5 6 -10 14 -10 8 0 18 5 21 10 3 6 -3 10 -14 10 -12 0
-21 -4 -21 -10z"/>
<path d="M7930 810 c6 -11 15 -18 21 -14 6 4 6 11 -2 20 -17 21 -31 17 -19 -6z"/>
<path d="M7326 803 c-10 -10 -7 -33 4 -33 6 0 10 7 10 16 0 8 4 13 9 9 5 -3
12 -2 15 3 5 9 -29 14 -38 5z"/>
<path d="M7290 785 c0 -8 4 -15 10 -15 5 0 7 7 4 15 -4 8 -8 15 -10 15 -2 0
-4 -7 -4 -15z"/>
<path d="M7347 773 c-4 -3 -7 -15 -7 -25 0 -10 -7 -21 -15 -24 -16 -6 -21 -24
-7 -24 5 0 18 18 30 40 18 35 18 53 -1 33z"/>
<path d="M8360 761 c0 -5 9 -11 21 -14 16 -4 18 -3 8 9 -13 16 -29 19 -29 5z"/>
<path d="M7160 746 c0 -9 -5 -16 -11 -16 -5 0 -7 -4 -4 -10 3 -5 10 -10 14
-10 12 0 21 39 10 46 -5 3 -9 -2 -9 -10z"/>
<path d="M7296 745 c-3 -8 -13 -15 -23 -15 -17 -1 -17 -1 0 -11 14 -8 23 -7
38 7 10 9 19 21 19 26 0 14 -28 9 -34 -7z"/>
<path d="M8405 730 c-7 -12 31 -19 46 -9 15 10 14 10 -19 14 -12 1 -25 -1 -27
-5z"/>
<path d="M7093 711 c-19 -8 -34 -24 -38 -39 -9 -35 2 -40 16 -6 11 29 11 29
20 7 4 -13 11 -23 13 -23 3 0 2 7 -1 17 -5 12 -3 14 8 8 8 -4 11 -5 7 0 -4 4
-3 16 3 27 14 26 10 27 -28 9z"/>
<path d="M8350 726 c0 -2 7 -7 16 -10 8 -3 12 -2 9 4 -6 10 -25 14 -25 6z"/>
<path d="M8430 699 c-24 -7 -23 -7 5 -6 17 0 36 -2 43 -7 7 -4 12 -5 12 -2 0
13 -37 22 -60 15z"/>
<path d="M7236 685 c-3 -8 -1 -15 3 -15 5 0 11 7 15 15 3 8 1 15 -3 15 -5 0
-11 -7 -15 -15z"/>
<path d="M7270 690 c0 -5 9 -10 21 -10 11 0 17 5 14 10 -3 6 -13 10 -21 10 -8
0 -14 -4 -14 -10z"/>
<path d="M7673 676 c-22 -7 -56 -24 -75 -36 -27 -19 -238 -228 -238 -236 0 -2
19 -12 43 -22 23 -11 70 -44 105 -75 71 -64 93 -73 160 -62 26 5 89 7 140 6
100 -2 127 7 165 55 28 36 84 66 138 73 56 7 63 21 19 36 -16 6 -78 59 -137
121 -60 61 -125 119 -146 128 -51 23 -124 28 -174 12z m122 -26 c15 -7 9 -9
-25 -9 -26 -1 -50 -5 -56 -11 -6 -6 -21 -6 -39 -1 l-30 8 35 11 c43 13 88 13
115 2z m-45 -57 c1 -17 1 -17 11 0 15 25 29 21 29 -9 0 -22 -32 -63 -51 -64
-10 0 -21 68 -14 80 10 16 25 11 25 -7z m-60 -12 c5 -11 10 -38 10 -61 0 -26
5 -43 15 -46 21 -9 105 65 105 93 0 18 6 23 26 23 47 0 92 -31 149 -101 31
-38 60 -69 65 -69 19 0 10 -17 -15 -28 -34 -16 -30 -18 -55 32 -25 52 -91 116
-120 116 -22 0 -26 -10 -9 -27 14 -14 1 -95 -14 -90 -7 2 -21 18 -32 35 -26
41 -43 40 -51 -3 -3 -19 -10 -37 -14 -40 -9 -6 -60 51 -60 66 0 15 -28 10 -38
-8 -9 -14 -11 -14 -21 6 -7 12 -9 31 -6 41 8 25 -11 26 -43 4 -28 -19 -52 -65
-66 -124 l-11 -45 -46 31 -47 31 64 66 c47 49 73 69 106 77 23 7 51 18 62 26
27 18 33 18 46 -5z m-65 -181 c-2 -19 -5 -42 -5 -50 0 -12 -10 -16 -37 -15
-38 0 -38 1 -37 40 0 22 9 57 19 78 l18 39 24 -29 c18 -22 22 -36 18 -63z
m308 62 c28 -31 50 -93 37 -106 -8 -8 -15 -6 -25 8 -8 10 -12 23 -8 29 3 6 1
7 -6 3 -6 -4 -11 -13 -10 -19 3 -25 -1 -38 -11 -32 -6 4 -8 10 -5 14 2 5 0 23
-5 41 -10 34 -4 80 10 80 4 0 14 -8 23 -18z m-192 -82 c5 0 9 -11 9 -24 0 -16
-7 -26 -21 -29 -16 -4 -19 -2 -14 11 5 14 4 14 -13 -1 -10 -9 -23 -17 -29 -17
-14 0 -24 40 -17 70 12 52 13 52 45 21 17 -17 35 -31 40 -31z m112 7 c10 -4
17 -17 17 -33 0 -20 -4 -25 -16 -20 -9 3 -20 6 -26 6 -6 0 -8 7 -4 15 3 8 3
15 0 15 -2 0 -9 -12 -14 -26 -14 -36 -30 -20 -30 30 0 53 8 61 34 38 12 -11
29 -22 39 -25z m-85 -94 c-10 -2 -26 -2 -35 0 -10 3 -2 5 17 5 19 0 27 -2 18
-5z m-59 -7 c-2 -2 -22 -7 -44 -10 -28 -4 -36 -3 -25 4 14 9 78 15 69 6z"/>
<path d="M7492 468 c2 -6 10 -14 18 -16 7 -3 10 0 6 6 -3 6 0 13 6 15 7 3 3 6
-10 6 -14 1 -22 -4 -20 -11z"/>
<path d="M8002 443 c13 -24 26 -43 31 -43 14 0 7 16 -23 50 l-31 35 23 -42z"/>
<path d="M7466 445 c-21 -22 -20 -32 5 -45 23 -13 24 -13 33 16 9 31 -17 50
-38 29z"/>
<path d="M7576 365 c4 -8 9 -15 13 -15 4 0 8 7 8 15 0 8 -6 15 -13 15 -8 0
-11 -6 -8 -15z"/>
<path d="M8295 682 c-27 -5 -44 -22 -22 -22 9 0 17 -5 17 -11 0 -6 9 -8 21 -4
16 5 19 4 14 -5 -5 -9 -4 -11 3 -6 7 4 12 14 12 22 0 11 -6 14 -22 9 -18 -5
-19 -4 -8 4 18 12 11 19 -15 13z"/>
<path d="M7244 649 c-19 -22 -19 -22 3 -10 24 12 39 31 25 31 -5 0 -17 -10
-28 -21z"/>
<path d="M7965 660 c-18 -30 107 -139 185 -163 51 -16 132 -15 138 1 3 10 -24
23 -58 28 -45 6 -81 18 -91 30 -6 8 -15 12 -19 9 -4 -2 -36 20 -71 50 -68 58
-74 61 -84 45z"/>
<path d="M7470 610 c-23 -27 -47 -50 -52 -50 -6 0 -16 -7 -22 -16 -7 -9 -37
-24 -66 -34 -56 -19 -77 -48 -30 -42 85 12 230 120 230 172 0 31 -15 24 -60
-30z"/>
<path d="M7185 630 c-8 -13 5 -13 25 0 13 8 13 10 -2 10 -9 0 -20 -4 -23 -10z"/>
<path d="M8370 626 c0 -2 11 -6 25 -8 13 -3 22 -1 19 3 -5 9 -44 13 -44 5z"/>
<path d="M8323 512 c-10 -9 -14 -14 -8 -10 7 4 15 5 18 1 4 -3 7 0 7 8 0 11 2
11 10 -1 6 -9 10 -10 10 -3 0 21 -17 23 -37 5z"/>
<path d="M8240 265 c-8 -9 -8 -15 -2 -15 12 0 26 19 19 26 -2 2 -10 -2 -17
-11z"/>
<path d="M7725 233 c-44 -9 -75 -26 -75 -40 0 -11 7 -13 33 -7 30 8 57 10 165
13 51 1 58 25 11 35 -34 7 -102 6 -134 -1z"/>
<path d="M7340 220 c0 -5 5 -10 11 -10 5 0 7 5 4 10 -3 6 -8 10 -11 10 -2 0
-4 -4 -4 -10z"/>
<path d="M7853 132 c-24 -25 -43 -50 -43 -56 0 -6 -4 -17 -9 -25 -8 -12 -13
-12 -35 3 -14 9 -26 12 -26 6 0 -6 9 -14 19 -18 19 -7 19 -8 -3 -18 -21 -10
-23 -8 -24 18 0 16 10 45 24 65 27 41 30 53 11 53 -15 0 -77 -81 -77 -100 0
-6 -8 -10 -17 -8 -12 2 -18 -5 -19 -23 -2 -25 -1 -25 57 -26 32 0 57 3 54 7
-6 9 25 23 34 15 3 -3 -1 -10 -9 -15 -11 -7 -5 -10 23 -10 22 0 37 5 37 12 0
9 3 9 12 0 17 -17 33 -15 18 3 -7 8 -19 15 -26 15 -19 0 -18 39 1 46 8 4 13 9
10 14 -2 4 7 18 20 30 25 23 32 45 18 53 -5 2 -27 -16 -50 -41z m-163 -104 c0
-13 -23 -5 -28 10 -2 7 2 10 12 6 9 -3 16 -11 16 -16z"/>
<path d="M8060 90 c0 -5 9 -14 20 -20 11 -6 20 -20 20 -31 0 -20 -1 -20 -31 5
-51 43 -72 25 -23 -20 21 -20 35 -24 95 -24 38 0 69 4 69 9 0 22 -54 71 -88
81 -46 12 -62 13 -62 0z"/>
<path d="M7860 60 c-9 -6 -10 -10 -3 -10 6 0 15 5 18 10 8 12 4 12 -15 0z"/>
</g>
</svg>
