<?xml version="1.0" standalone="no"?>
<!DOCTYPE svg PUBLIC "-//W3C//DTD SVG 20010904//EN"
 "http://www.w3.org/TR/2001/REC-SVG-20010904/DTD/svg10.dtd">
<svg version="1.0" xmlns="http://www.w3.org/2000/svg"
 width="1005.000000pt" height="846.000000pt" viewBox="0 0 1005.000000 846.000000"
 preserveAspectRatio="xMidYMid meet">

<g transform="translate(0.000000,846.000000) scale(0.100000,-0.100000)"
fill="#000000" stroke="none">
<path d="M3077 7912 c-22 -24 -21 -35 1 -55 35 -32 82 -15 82 28 0 44 -52 61
-83 27z"/>
<path d="M3382 7918 c-7 -7 -12 -21 -12 -33 0 -12 5 -26 12 -33 7 -7 21 -12
33 -12 12 0 26 5 33 12 7 7 12 21 12 33 0 12 -5 26 -12 33 -7 7 -21 12 -33 12
-12 0 -26 -5 -33 -12z"/>
<path d="M4246 7914 c-9 -8 -16 -22 -16 -29 0 -16 27 -45 41 -45 25 0 49 23
49 45 0 14 -8 29 -19 35 -27 14 -37 13 -55 -6z"/>
<path d="M4376 7914 c-9 -8 -16 -22 -16 -29 0 -16 27 -45 41 -45 25 0 49 23
49 45 0 14 -8 29 -19 35 -27 14 -37 13 -55 -6z"/>
<path d="M1810 7689 l0 -221 128 4 c113 3 130 5 159 26 64 46 62 151 -4 182
-39 18 -40 22 -11 35 53 23 60 111 14 154 -32 30 -82 40 -193 41 l-93 0 0
-221z m208 129 c17 -17 15 -63 -3 -78 -9 -7 -38 -15 -65 -18 l-50 -5 0 57 0
56 53 0 c29 0 58 -5 65 -12z m12 -178 c48 -48 14 -90 -71 -90 l-59 0 0 55 0
55 55 0 c42 0 60 -5 75 -20z"/>
<path d="M2264 7784 c-26 -12 -64 -59 -64 -78 0 -3 20 -6 45 -6 25 0 45 4 45
9 0 15 53 29 78 20 17 -6 22 -15 20 -31 -3 -23 -15 -27 -112 -43 -75 -12 -106
-77 -71 -145 28 -54 124 -61 177 -13 17 15 18 15 18 -5 0 -19 6 -22 40 -22
l40 0 0 128 c0 140 -6 159 -60 187 -37 19 -116 19 -156 -1z m126 -192 c0 -39
-30 -64 -72 -60 -29 3 -33 6 -33 33 0 27 4 31 45 42 62 16 60 16 60 -15z"/>
<path d="M2550 7635 l0 -165 225 0 225 0 0 165 0 165 -45 0 -45 0 0 -130 0
-130 -45 0 -45 0 0 130 0 130 -45 0 -45 0 0 -130 0 -130 -45 0 -45 0 0 130 0
130 -45 0 -45 0 0 -165z"/>
<path d="M3070 7635 l0 -165 45 0 45 0 0 165 0 165 -45 0 -45 0 0 -165z"/>
<path d="M3370 7635 l0 -165 45 0 45 0 0 165 0 165 -45 0 -45 0 0 -165z"/>
<path d="M3576 7738 c-15 -148 -18 -161 -42 -185 -21 -21 -24 -33 -24 -104 l0
-80 43 3 42 3 -3 48 -4 47 106 0 106 0 0 -50 0 -50 40 0 40 0 0 85 c0 84 0 85
-25 85 l-25 0 0 130 0 130 -124 0 -124 0 -6 -62z m169 -103 l0 -90 -61 -3 -62
-3 14 38 c7 21 13 54 14 73 1 71 8 81 54 78 l41 -3 0 -90z"/>
<path d="M4000 7778 c-50 -35 -71 -69 -76 -129 -7 -68 24 -134 76 -163 68 -40
178 -19 217 40 14 22 14 27 2 35 -23 15 -59 10 -86 -11 -34 -27 -69 -25 -98 5
-48 47 -37 55 85 55 l110 0 0 43 c0 87 -61 147 -151 147 -31 0 -57 -7 -79 -22z
m134 -70 c9 -12 16 -26 16 -30 0 -5 -31 -8 -70 -8 -62 0 -69 2 -63 18 16 46
90 59 117 20z"/>
<path d="M4300 7635 l0 -165 45 0 45 0 0 165 0 165 -45 0 -45 0 0 -165z"/>
<path d="M4797 7705 c-7 -101 -27 -165 -51 -165 -13 0 -16 -15 -16 -85 l0 -85
45 0 45 0 0 50 0 50 100 0 100 0 0 -51 0 -50 43 3 42 3 3 83 c3 82 3 82 -23
82 l-25 0 0 130 0 130 -128 0 -129 0 -6 -95z m173 -70 l0 -95 -61 0 c-54 0
-60 2 -54 18 4 9 12 52 18 95 l11 77 43 0 43 0 0 -95z"/>
<path d="M5231 7782 c-55 -27 -75 -63 -79 -140 -3 -57 0 -72 20 -101 38 -56
72 -75 131 -75 70 0 115 26 145 84 12 25 22 63 22 86 0 55 -37 122 -80 145
-44 24 -115 24 -159 1z m133 -95 c48 -100 -59 -214 -109 -116 -37 71 -3 163
59 157 25 -2 35 -11 50 -41z"/>
<path d="M5530 7635 l0 -165 45 0 45 0 0 60 c0 46 3 60 15 60 8 0 33 -27 55
-60 l41 -60 55 0 56 0 -38 53 c-21 28 -48 65 -60 82 l-23 29 22 31 c13 16 40
54 61 83 l38 52 -55 0 -54 0 -44 -65 c-24 -35 -50 -65 -56 -65 -9 0 -13 20
-13 65 l0 65 -45 0 -45 0 0 -165z"/>
<path d="M5860 7797 c0 -3 25 -76 55 -163 63 -180 66 -207 19 -212 -23 -2 -34
-9 -38 -25 -11 -43 -8 -47 39 -47 54 0 96 19 113 52 10 20 142 386 142 395 0
2 -22 3 -48 3 l-49 0 -33 -120 c-18 -66 -35 -118 -37 -116 -2 2 -18 55 -36
117 l-32 114 -47 3 c-27 2 -48 1 -48 -1z"/>
<path d="M6240 7636 l0 -166 40 0 40 0 0 92 c0 50 3 88 8 84 4 -4 21 -44 38
-89 30 -80 32 -82 64 -82 33 0 34 2 69 95 l36 94 3 -97 3 -97 44 0 45 0 0 165
0 166 -56 -3 -57 -3 -41 -107 c-23 -59 -43 -108 -46 -108 -3 0 -23 49 -45 108
l-40 107 -52 3 -53 3 0 -165z"/>
<path d="M6760 7777 c-51 -33 -75 -82 -74 -147 2 -121 87 -188 205 -160 49 12
104 60 96 84 -7 21 -66 19 -93 -3 -15 -12 -37 -21 -49 -21 -28 0 -61 27 -70
58 -6 22 -6 22 110 22 l117 0 -7 48 c-3 26 -14 60 -23 76 -38 64 -148 87 -212
43z m136 -72 c9 -14 14 -28 12 -31 -3 -3 -36 -4 -73 -2 l-67 3 22 28 c29 37
82 38 106 2z"/>
<path d="M7060 7635 l0 -165 40 0 40 0 0 65 0 65 55 0 55 0 0 -65 0 -65 45 0
45 0 0 165 0 165 -45 0 -45 0 0 -65 0 -65 -55 0 -55 0 0 65 0 65 -40 0 -40 0
0 -165z"/>
<path d="M7380 7765 l0 -35 50 0 50 0 0 -130 0 -130 45 0 45 0 0 130 0 130 50
0 50 0 0 35 0 35 -145 0 -145 0 0 -35z"/>
<path d="M7730 7634 l0 -165 47 3 46 3 56 100 56 100 3 -103 3 -102 39 0 40 0
0 165 0 165 -43 0 -42 0 -57 -102 -58 -103 0 103 0 102 -45 0 -45 0 0 -166z"/>
<path d="M8220 7765 l0 -35 50 0 50 0 0 -130 0 -130 45 0 45 0 0 130 0 130 50
0 50 0 0 35 0 35 -145 0 -145 0 0 -35z"/>
<path d="M8624 7786 c-32 -14 -64 -51 -64 -73 0 -19 70 -16 91 3 23 21 66 21
86 1 28 -28 9 -45 -57 -53 -36 -4 -74 -15 -93 -28 -27 -19 -32 -28 -35 -70 -4
-54 7 -73 56 -93 40 -17 92 -9 121 18 21 20 21 20 21 -1 0 -17 6 -20 45 -20
l45 0 0 120 c0 139 -11 173 -65 196 -43 18 -110 17 -151 0z m126 -189 c0 -42
-28 -68 -67 -65 -21 2 -41 10 -47 20 -19 31 17 53 107 67 4 0 7 -9 7 -22z"/>
<path d="M4477 7483 c-4 -27 -9 -65 -13 -85 -6 -36 -5 -38 20 -38 31 0 48 31
64 118 l9 52 -37 0 c-37 0 -37 0 -43 -47z"/>
<path d="M7407 7312 c-22 -24 -21 -35 1 -55 35 -32 82 -15 82 28 0 44 -52 61
-83 27z"/>
<path d="M8316 7314 c-9 -8 -16 -22 -16 -29 0 -20 28 -45 50 -45 23 0 50 26
50 49 0 39 -54 55 -84 25z"/>
<path d="M2090 7035 l0 -165 40 0 39 0 3 128 3 127 55 0 55 0 3 -127 3 -128
39 0 40 0 0 165 0 165 -140 0 -140 0 0 -165z"/>
<path d="M2485 7088 c-7 -99 -10 -114 -31 -135 -15 -14 -24 -36 -24 -53 0 -26
4 -30 28 -30 66 0 99 53 108 174 l7 86 38 0 39 0 0 -130 0 -130 45 0 45 0 0
165 0 165 -124 0 -124 0 -7 -112z"/>
<path d="M2874 7186 c-32 -14 -64 -51 -64 -73 0 -19 70 -16 91 3 23 21 66 21
86 1 28 -28 9 -45 -57 -53 -36 -4 -74 -15 -93 -28 -27 -19 -32 -28 -35 -70 -4
-54 7 -73 56 -93 40 -17 92 -9 121 18 21 20 21 20 21 -1 0 -17 6 -20 45 -20
l45 0 0 120 c0 139 -11 173 -65 196 -43 18 -110 17 -151 0z m126 -189 c0 -42
-28 -68 -67 -65 -21 2 -41 10 -47 20 -19 31 17 53 107 67 4 0 7 -9 7 -22z"/>
<path d="M3160 7035 l0 -165 40 0 40 0 0 65 0 66 58 -3 57 -3 3 -62 3 -63 39
0 40 0 0 165 0 165 -40 0 -40 0 0 -65 0 -65 -60 0 -60 0 0 65 0 65 -40 0 -40
0 0 -165z"/>
<path d="M3510 7035 l0 -165 48 0 47 1 55 100 55 100 3 -101 3 -100 44 0 45 0
0 166 0 165 -47 -3 -47 -3 -56 -97 -55 -97 -3 99 -3 100 -44 0 -45 0 0 -165z"/>
<path d="M4020 7035 l0 -165 101 0 c71 0 111 5 134 16 65 31 65 112 1 143
l-29 14 26 14 c37 19 45 58 20 91 -27 37 -73 51 -170 51 l-83 1 0 -165z m171
79 c21 -25 -1 -49 -50 -52 -41 -3 -41 -3 -41 32 0 35 1 36 39 36 23 0 44 -6
52 -16z m20 -120 c23 -27 -1 -49 -60 -52 l-51 -3 0 35 0 36 49 0 c32 0 53 -5
62 -16z"/>
<path d="M4572 7183 c-56 -28 -77 -68 -77 -150 0 -77 13 -106 69 -147 37 -28
135 -28 173 1 48 35 66 69 71 130 7 109 -58 183 -158 183 -25 0 -60 -8 -78
-17z m122 -72 c39 -43 28 -148 -19 -169 -37 -17 -71 0 -85 43 -24 72 7 145 60
145 15 0 35 -8 44 -19z"/>
<path d="M4916 7158 c-3 -24 -8 -69 -11 -100 -7 -74 -20 -109 -46 -115 -18 -5
-20 -12 -17 -87 l3 -81 43 -3 42 -3 0 50 0 51 99 0 100 0 3 -47 3 -48 43 -3
42 -3 0 85 c0 85 0 86 -25 86 l-25 0 0 130 0 130 -124 0 -125 0 -5 -42z m164
-123 l0 -95 -60 0 c-57 0 -60 1 -50 20 6 10 13 47 16 82 8 88 8 88 54 88 l40
0 0 -95z"/>
<path d="M5270 7035 l0 -165 45 0 45 0 0 65 0 65 55 0 55 0 0 -65 0 -65 45 0
45 0 0 165 0 165 -45 0 -45 0 0 -65 0 -65 -55 0 -55 0 0 65 0 65 -45 0 -45 0
0 -165z"/>
<path d="M5695 7181 c-43 -26 -62 -51 -74 -98 -22 -80 9 -167 71 -199 42 -22
123 -23 165 -1 72 38 102 161 57 238 -44 75 -149 104 -219 60z m120 -65 c13
-10 20 -30 23 -74 4 -55 2 -63 -21 -86 -32 -32 -51 -33 -82 -1 -33 32 -36 124
-5 155 23 23 58 26 85 6z"/>
<path d="M6000 7036 l0 -166 40 0 40 0 0 92 c0 50 3 88 8 84 4 -4 21 -44 38
-89 30 -80 32 -82 64 -82 33 0 34 2 69 95 l36 94 3 -97 3 -97 44 0 45 0 0 165
0 166 -56 -3 -57 -3 -41 -107 c-23 -59 -43 -108 -46 -108 -3 0 -23 49 -45 108
l-40 107 -52 3 -53 3 0 -165z"/>
<path d="M6420 7197 c0 -3 25 -76 55 -163 63 -180 66 -207 19 -212 -23 -2 -34
-9 -38 -25 -11 -43 -8 -47 39 -47 54 0 96 19 113 52 10 20 142 386 142 395 0
2 -22 3 -48 3 l-49 0 -33 -120 c-18 -66 -35 -118 -37 -116 -2 2 -18 55 -36
117 l-32 114 -47 3 c-27 2 -48 1 -48 -1z"/>
<path d="M6940 7036 l0 -166 40 0 40 0 0 92 c0 50 3 88 7 84 4 -4 21 -44 38
-89 29 -77 32 -82 62 -85 31 -3 31 -2 72 100 l40 103 1 -102 0 -103 45 0 45 0
0 165 0 166 -57 -3 -58 -3 -38 -100 c-21 -55 -42 -103 -45 -107 -4 -4 -26 41
-47 100 l-40 107 -53 3 -52 3 0 -165z"/>
<path d="M7400 7035 l0 -165 45 0 45 0 0 165 0 165 -45 0 -45 0 0 -165z"/>
<path d="M7631 7182 c-55 -27 -75 -63 -79 -140 -3 -57 0 -72 20 -101 38 -56
72 -75 131 -75 63 0 111 24 132 64 25 48 20 60 -24 60 -30 0 -42 -5 -55 -25
-16 -25 -58 -34 -82 -17 -38 25 -46 114 -13 156 27 35 72 35 95 1 13 -20 25
-25 55 -25 46 0 52 21 18 64 -44 56 -131 73 -198 38z"/>
<path d="M7910 7035 l0 -165 125 0 125 0 0 -55 0 -55 45 0 45 0 0 85 c0 84 0
85 -25 85 l-25 0 0 135 0 135 -45 0 -45 0 0 -130 0 -130 -55 0 -55 0 0 130 0
130 -45 0 -45 0 0 -165z"/>
<path d="M8310 7035 l0 -165 45 0 45 0 0 165 0 165 -45 0 -45 0 0 -165z"/>
<path d="M8491 6951 c-26 -26 -26 -46 -1 -71 24 -24 29 -24 58 -4 22 15 29 48
14 70 -15 24 -50 26 -71 5z"/>
<path d="M2300 6693 c-4 -119 -20 -295 -29 -312 -7 -12 -23 -26 -37 -31 -19
-8 -24 -17 -24 -45 0 -32 2 -35 30 -35 93 0 129 65 137 241 l6 119 58 0 59 0
0 -180 0 -180 45 0 45 0 0 220 0 220 -145 0 c-131 0 -145 -2 -145 -17z"/>
<path d="M2735 6588 c-36 -19 -65 -51 -65 -70 0 -14 8 -18 39 -18 21 0 44 6
50 14 26 32 91 22 91 -13 0 -26 -5 -28 -77 -40 -70 -11 -97 -25 -112 -58 -18
-39 -13 -71 17 -104 24 -27 36 -32 74 -33 34 -1 55 5 77 22 30 22 31 22 31 2
0 -17 6 -20 40 -20 l40 0 0 133 c0 121 -2 135 -21 156 -11 12 -32 26 -46 32
-33 12 -113 11 -138 -3z m115 -197 c0 -42 -25 -63 -69 -59 -30 3 -36 7 -39 29
-3 27 20 43 78 52 14 2 26 5 28 6 1 0 2 -12 2 -28z"/>
<path d="M3084 6581 c-69 -42 -99 -123 -74 -204 33 -111 174 -151 256 -73 18
17 36 43 40 59 6 26 5 27 -38 27 -35 0 -45 -4 -53 -22 -11 -26 -67 -37 -90
-18 -43 36 -36 151 10 172 31 14 72 3 80 -22 5 -16 15 -20 51 -20 50 0 54 9
24 58 -36 59 -143 82 -206 43z"/>
<path d="M3370 6435 l0 -165 45 0 45 0 0 60 c0 46 3 60 15 60 8 0 33 -27 55
-60 l41 -60 55 0 56 0 -38 53 c-21 28 -48 65 -60 82 l-23 29 22 31 c13 16 40
54 61 83 l38 52 -55 0 -54 0 -44 -65 c-24 -35 -50 -65 -56 -65 -9 0 -13 20
-13 65 l0 65 -45 0 -45 0 0 -165z"/>
<path d="M3784 6586 c-32 -14 -64 -51 -64 -73 0 -19 70 -16 91 3 23 21 66 21
86 1 28 -28 9 -45 -57 -53 -36 -4 -74 -15 -93 -28 -27 -19 -32 -28 -35 -70 -4
-54 7 -73 56 -93 40 -17 92 -9 121 18 21 20 21 20 21 -1 0 -17 6 -20 45 -20
l45 0 0 120 c0 139 -11 173 -65 196 -43 18 -110 17 -151 0z m126 -189 c0 -42
-28 -68 -67 -65 -21 2 -41 10 -47 20 -19 31 17 53 107 67 4 0 7 -9 7 -22z"/>
<path d="M4070 6435 l0 -165 101 0 c71 0 111 5 134 16 65 31 65 112 1 143
l-29 14 26 14 c37 19 45 58 20 91 -27 37 -73 51 -170 51 l-83 1 0 -165z m171
79 c21 -25 -1 -49 -50 -52 -41 -3 -41 -3 -41 32 0 35 1 36 39 36 23 0 44 -6
52 -16z m20 -120 c23 -27 -1 -49 -60 -52 l-51 -3 0 35 0 36 49 0 c32 0 53 -5
62 -16z"/>
<path d="M4480 6578 c-50 -35 -71 -69 -76 -129 -10 -106 58 -183 161 -183 62
0 116 30 139 78 25 52 21 145 -7 187 -45 68 -152 91 -217 47z m124 -64 c22
-21 30 -57 23 -106 -9 -69 -57 -94 -102 -55 -23 19 -27 31 -28 74 -1 65 22
103 63 103 15 0 36 -7 44 -16z"/>
<path d="M4920 6435 l0 -165 45 0 45 0 0 130 0 130 55 0 55 0 0 -130 0 -130
45 0 45 0 0 165 0 165 -145 0 -145 0 0 -165z"/>
<path d="M5280 6375 l0 -225 45 0 45 0 0 87 c0 81 1 86 15 66 32 -45 129 -48
168 -5 48 53 61 157 27 227 -36 75 -121 99 -179 49 l-31 -26 0 26 c0 24 -3 26
-45 26 l-45 0 0 -225z m199 136 c31 -31 36 -83 15 -128 -27 -55 -89 -59 -112
-8 -43 93 34 199 97 136z"/>
<path d="M5731 6582 c-55 -27 -75 -63 -79 -140 -3 -57 0 -72 20 -101 38 -56
72 -75 131 -75 70 0 115 26 145 84 12 25 22 63 22 86 0 55 -37 122 -80 145
-44 24 -115 24 -159 1z m133 -95 c48 -100 -59 -214 -109 -116 -37 71 -3 163
59 157 25 -2 35 -11 50 -41z"/>
<path d="M6090 6577 c-51 -34 -75 -82 -74 -148 1 -102 61 -163 159 -163 58 0
104 23 129 64 27 47 22 60 -27 60 -34 0 -44 -4 -52 -22 -7 -17 -20 -24 -47
-26 -48 -4 -68 24 -68 93 0 59 25 95 65 95 24 0 55 -23 55 -41 0 -5 20 -9 45
-9 49 0 53 6 30 51 -36 68 -147 92 -215 46z"/>
<path d="M6380 6434 l0 -165 47 3 46 3 56 100 56 100 3 -103 3 -102 39 0 40 0
0 165 0 165 -43 0 -42 0 -57 -102 -58 -103 0 103 0 102 -45 0 -45 0 0 -166z"/>
<path d="M6750 6436 l0 -166 40 0 40 0 0 92 c0 50 3 88 8 84 4 -4 21 -44 38
-89 30 -80 32 -82 64 -82 33 0 34 2 69 95 l36 94 3 -97 3 -97 44 0 45 0 0 165
0 166 -56 -3 -57 -3 -41 -107 c-23 -59 -43 -108 -46 -108 -3 0 -23 49 -45 108
l-40 107 -52 3 -53 3 0 -165z"/>
<path d="M7275 6581 c-43 -26 -62 -51 -74 -98 -22 -80 9 -167 71 -199 42 -22
123 -23 165 -1 72 38 102 161 57 238 -44 75 -149 104 -219 60z m120 -65 c13
-10 20 -30 23 -74 4 -55 2 -63 -21 -86 -32 -32 -51 -33 -82 -1 -33 32 -36 124
-5 155 23 23 58 26 85 6z"/>
<path d="M7756 6513 c-9 -114 -22 -164 -47 -170 -17 -5 -19 -15 -19 -89 l0
-84 45 0 45 0 0 50 0 50 100 0 100 0 0 -51 0 -50 43 3 42 3 3 83 3 82 -31 0
-30 0 0 130 0 130 -124 0 -123 0 -7 -87z m174 -78 l0 -95 -61 0 c-54 0 -60 2
-54 18 4 9 12 52 17 95 l11 77 43 0 44 0 0 -95z"/>
<path d="M8185 6581 c-43 -26 -62 -51 -74 -98 -22 -80 9 -167 71 -199 42 -22
123 -23 165 -1 72 38 102 161 57 238 -44 75 -149 104 -219 60z m120 -65 c13
-10 20 -30 23 -74 4 -55 2 -63 -21 -86 -32 -32 -51 -33 -82 -1 -33 32 -36 124
-5 155 23 23 58 26 85 6z"/>
<path d="M4110 5890 l0 -220 45 0 45 0 0 90 0 90 95 0 95 0 0 -90 0 -90 45 0
45 0 0 220 0 220 -45 0 -45 0 0 -90 0 -90 -95 0 -95 0 0 90 0 90 -45 0 -45 0
0 -220z"/>
<path d="M4620 5978 c-50 -35 -71 -69 -76 -129 -10 -106 58 -183 161 -183 62
0 116 30 139 78 25 52 21 145 -7 187 -45 68 -152 91 -217 47z m124 -64 c22
-21 30 -57 23 -106 -9 -69 -57 -94 -102 -55 -23 19 -27 31 -28 74 -1 65 22
103 63 103 15 0 36 -7 44 -16z"/>
<path d="M4890 5966 l0 -35 53 -3 52 -3 3 -127 3 -128 39 0 39 0 3 128 3 127
53 3 52 3 0 35 0 34 -150 0 -150 0 0 -34z"/>
<path d="M5294 5986 c-32 -14 -64 -51 -64 -73 0 -9 15 -13 45 -13 25 0 45 5
45 10 0 6 12 15 26 21 20 7 32 6 51 -6 42 -28 26 -48 -52 -62 -91 -17 -119
-37 -123 -91 -4 -53 11 -80 55 -99 43 -18 96 -10 124 18 19 19 19 19 19 -1 0
-17 7 -20 45 -20 l45 0 0 128 c0 143 -7 164 -66 188 -42 18 -109 17 -150 0z
m126 -189 c0 -12 -7 -33 -16 -45 -30 -43 -125 -18 -97 26 5 10 30 22 54 29 60
16 59 16 59 -10z"/>
<path d="M5550 5965 l0 -35 50 0 50 0 0 -130 0 -130 45 0 45 0 0 130 0 130 50
0 50 0 0 35 0 35 -145 0 -145 0 0 -35z"/>
<path d="M5955 5981 c-43 -26 -62 -51 -74 -98 -22 -80 9 -167 71 -199 42 -22
123 -23 165 -1 72 38 102 161 57 238 -44 75 -149 104 -219 60z m120 -65 c13
-10 20 -30 23 -74 4 -55 2 -63 -21 -86 -32 -32 -51 -33 -82 -1 -33 32 -36 124
-5 155 23 23 58 26 85 6z"/>
<path d="M6260 5835 l0 -165 45 0 45 0 0 60 c0 44 4 60 14 60 7 0 32 -27 55
-60 42 -60 43 -60 92 -60 27 0 49 3 49 8 -1 4 -25 41 -54 82 l-54 75 54 76
c30 43 54 80 54 83 0 3 -22 6 -49 6 -49 0 -50 0 -93 -62 -59 -84 -68 -85 -68
-4 l0 66 -45 0 -45 0 0 -165z"/>
<path d="M4070 5550 c0 -20 7 -20 1250 -20 1243 0 1250 0 1250 20 0 20 -7 20
-1250 20 -1243 0 -1250 0 -1250 -20z"/>
<path d="M5385 5353 c-49 -7 -65 -29 -65 -89 0 -63 18 -86 63 -82 39 4 63 42
53 82 -8 32 -48 51 -77 36 -10 -6 -19 -7 -19 -2 0 16 23 30 54 34 16 1 31 9
34 16 2 6 0 11 -5 11 -4 -1 -21 -4 -38 -6z m20 -113 c0 -28 -4 -36 -22 -38
-26 -4 -47 29 -38 59 5 15 14 19 33 17 24 -3 27 -8 27 -38z"/>
<path d="M6153 5353 c-41 -5 -63 -36 -63 -88 0 -52 23 -85 59 -85 60 0 85 84
36 116 -21 14 -31 15 -51 5 -23 -10 -24 -9 -14 9 6 11 21 20 35 20 32 0 56 10
49 21 -3 5 -8 8 -12 7 -4 0 -22 -3 -39 -5z m25 -90 c15 -28 -4 -65 -30 -61
-23 3 -35 35 -24 64 8 20 43 18 54 -3z"/>
<path d="M3340 5265 c0 -50 4 -85 10 -85 6 0 10 18 10 40 l0 40 45 0 45 0 0
-40 c0 -22 5 -40 10 -40 6 0 10 35 10 85 0 50 -4 85 -10 85 -5 0 -10 -16 -10
-35 0 -35 0 -35 -45 -35 -45 0 -45 0 -45 35 0 19 -4 35 -10 35 -6 0 -10 -35
-10 -85z"/>
<path d="M3526 5294 c-23 -23 -21 -91 3 -104 49 -25 101 3 101 55 0 55 -67 86
-104 49z m69 -25 c4 -11 4 -31 1 -45 -11 -42 -66 -25 -66 21 0 43 53 63 65 24z"/>
<path d="M3640 5300 c0 -5 9 -10 20 -10 18 0 20 -7 20 -55 0 -42 3 -55 15 -55
12 0 15 13 15 55 0 48 2 55 20 55 11 0 20 5 20 10 0 6 -25 10 -55 10 -30 0
-55 -4 -55 -10z"/>
<path d="M3780 5295 c-10 -13 -7 -14 25 -12 50 3 55 -17 8 -29 -33 -8 -38 -13
-38 -39 0 -29 1 -30 53 -32 l52 -1 0 44 c0 63 -13 84 -54 84 -19 0 -39 -7 -46
-15z m68 -72 c-4 -21 -36 -29 -51 -14 -9 9 -8 14 3 21 25 16 52 12 48 -7z"/>
<path d="M3890 5300 c0 -5 11 -10 25 -10 24 0 25 -3 25 -55 0 -30 5 -55 10
-55 6 0 10 25 10 55 0 48 2 55 20 55 11 0 20 5 20 10 0 6 -25 10 -55 10 -30 0
-55 -4 -55 -10z"/>
<path d="M4030 5245 c0 -51 3 -65 15 -65 9 0 15 9 15 25 0 32 9 32 35 -1 12
-15 27 -25 34 -23 10 4 6 13 -12 34 l-25 29 25 33 c20 26 22 33 10 33 -9 0
-24 -11 -35 -25 -11 -14 -23 -25 -26 -25 -3 0 -6 11 -6 25 0 16 -6 25 -15 25
-12 0 -15 -14 -15 -65z"/>
<path d="M4160 5245 c0 -81 17 -86 60 -17 l30 47 0 -47 c0 -27 5 -48 10 -48 6
0 10 28 10 65 0 78 -15 85 -51 23 l-24 -43 -3 43 c-2 28 -8 42 -18 42 -11 0
-14 -15 -14 -65z"/>
<path d="M4670 5245 l0 -65 50 0 c43 0 50 -3 50 -20 0 -11 7 -20 15 -20 10 0
15 10 15 30 0 17 -4 30 -10 30 -5 0 -10 25 -10 55 0 42 -3 55 -15 55 -12 0
-15 -13 -15 -55 0 -52 -1 -55 -25 -55 -24 0 -25 3 -25 55 0 42 -3 55 -15 55
-12 0 -15 -14 -15 -65z"/>
<path d="M4836 5288 c-21 -30 -20 -71 2 -91 32 -29 106 -18 87 13 -4 6 -13 5
-24 -2 -22 -14 -51 -4 -51 17 0 11 11 15 45 15 49 0 56 10 29 48 -10 14 -26
22 -44 22 -18 0 -34 -8 -44 -22z m72 -15 c2 -9 -7 -13 -27 -13 -30 0 -39 9
-24 24 11 10 46 3 51 -11z"/>
<path d="M5030 5219 c0 -72 3 -89 15 -89 10 0 15 10 15 29 0 25 3 28 25 23 35
-6 65 23 65 64 0 45 -22 63 -75 62 l-45 -1 0 -88z m89 49 c12 -33 -2 -63 -30
-63 -19 0 -25 6 -27 28 -2 16 -1 35 2 43 9 22 46 17 55 -8z"/>
<path d="M5196 5294 c-23 -23 -21 -91 3 -104 49 -25 101 3 101 55 0 55 -67 86
-104 49z m69 -25 c4 -11 4 -31 1 -45 -11 -42 -66 -25 -66 21 0 43 53 63 65 24z"/>
<path d="M5476 5288 c-33 -46 -7 -108 44 -108 38 0 60 24 60 65 0 18 -7 41
-16 49 -23 24 -70 20 -88 -6z m75 -19 c16 -31 -4 -71 -34 -67 -39 5 -37 88 2
88 11 0 25 -10 32 -21z"/>
<path d="M5610 5281 c0 -36 23 -61 56 -61 17 0 24 -5 24 -20 0 -11 7 -20 15
-20 12 0 15 14 15 65 0 51 -3 65 -15 65 -11 0 -15 -11 -15 -36 0 -31 -3 -35
-22 -32 -18 2 -24 11 -26 36 -4 42 -32 44 -32 3z"/>
<path d="M5760 5295 c-10 -13 -7 -14 25 -12 50 3 55 -17 8 -29 -33 -8 -38 -13
-38 -39 0 -29 2 -30 48 -31 l47 -2 0 58 c0 44 -4 59 -16 64 -27 11 -61 7 -74
-9z m70 -59 c0 -20 -16 -36 -36 -36 -25 0 -34 24 -11 33 15 7 47 8 47 3z"/>
<path d="M5966 5294 c-23 -23 -21 -91 3 -104 49 -25 101 3 101 55 0 55 -67 86
-104 49z m69 -25 c4 -11 4 -31 1 -45 -11 -42 -66 -25 -66 21 0 43 53 63 65 24z"/>
<path d="M6257 5303 c-4 -3 -7 -26 -7 -49 0 -24 -4 -46 -10 -49 -15 -9 -12
-25 5 -25 18 0 35 39 35 81 0 22 5 29 20 29 18 0 20 -7 20 -55 0 -42 3 -55 15
-55 12 0 15 14 15 65 l0 65 -43 0 c-24 0 -47 -3 -50 -7z"/>
<path d="M6390 5295 c-10 -13 -7 -14 25 -12 50 3 55 -17 8 -29 -33 -8 -38 -13
-38 -39 0 -29 1 -30 53 -32 l52 -1 0 44 c0 63 -13 84 -54 84 -19 0 -39 -7 -46
-15z m68 -72 c-4 -21 -36 -29 -51 -14 -9 9 -8 14 3 21 25 16 52 12 48 -7z"/>
<path d="M6526 5288 c-33 -46 -7 -108 44 -108 31 0 72 31 50 38 -6 2 -17 -1
-23 -7 -29 -29 -57 -6 -57 45 0 31 24 41 56 24 30 -16 41 -8 19 14 -24 24 -71
20 -89 -6z"/>
<path d="M6650 5300 c0 -5 9 -10 20 -10 18 0 20 -7 20 -55 0 -30 5 -55 10 -55
6 0 10 25 10 55 0 52 1 55 25 55 14 0 25 5 25 10 0 6 -25 10 -55 10 -30 0 -55
-4 -55 -10z"/>
<path d="M6780 5245 l0 -65 44 0 c51 0 71 18 62 54 -5 19 -15 27 -41 32 -25 4
-35 11 -35 25 0 11 -7 19 -15 19 -12 0 -15 -14 -15 -65z m78 -22 c-2 -10 -13
-19 -26 -21 -17 -3 -22 2 -22 17 0 16 6 21 26 21 19 0 25 -5 22 -17z"/>
<path d="M7065 5273 c-4 -21 -10 -48 -16 -61 -12 -30 -12 -72 1 -72 6 0 10 9
10 20 0 17 7 20 45 20 38 0 45 -3 45 -20 0 -11 7 -20 15 -20 10 0 15 10 15 30
0 17 -4 30 -10 30 -5 0 -10 25 -10 55 l0 55 -45 0 c-43 0 -44 -1 -50 -37z m65
-28 c0 -42 -2 -45 -26 -45 -24 0 -26 3 -20 31 3 17 6 38 6 45 0 8 9 14 20 14
17 0 20 -7 20 -45z"/>
<path d="M7216 5294 c-23 -23 -21 -91 3 -104 27 -14 66 -13 80 3 15 19 3 28
-20 14 -14 -9 -24 -9 -36 -1 -34 21 -26 34 21 34 41 0 46 2 46 23 0 13 -5 28
-12 35 -17 17 -64 15 -82 -4z m68 -19 c4 -12 -3 -15 -31 -15 -30 0 -34 2 -23
15 7 8 20 15 30 15 10 0 20 -7 24 -15z"/>
<path d="M4350 5250 c0 -6 47 -10 120 -10 73 0 120 4 120 10 0 6 -47 10 -120
10 -73 0 -120 -4 -120 -10z"/>
<path d="M6927 5193 c-10 -10 -8 -53 2 -53 8 0 20 32 21 53 0 9 -14 9 -23 0z"/>
<path d="M5305 5031 c-7 -12 12 -24 25 -16 11 7 4 25 -10 25 -5 0 -11 -4 -15
-9z"/>
<path d="M5570 5031 c-81 -14 -82 -171 0 -171 38 0 60 24 60 65 0 41 -31 68
-68 58 -18 -4 -23 -2 -20 8 3 8 13 15 24 17 48 7 64 13 59 22 -3 6 -9 9 -13 9
-4 -1 -23 -4 -42 -8z m35 -91 c9 -29 -12 -62 -38 -58 -22 3 -34 35 -23 64 8
22 54 18 61 -6z"/>
<path d="M7153 5033 c-41 -5 -63 -36 -63 -88 0 -52 23 -85 59 -85 60 0 85 84
36 116 -21 14 -31 15 -51 5 -23 -10 -24 -9 -14 9 6 11 21 20 35 20 32 0 56 10
49 21 -3 5 -8 8 -12 7 -4 0 -22 -3 -39 -5z m25 -90 c15 -28 -4 -65 -30 -61
-23 3 -35 35 -24 64 8 20 43 18 54 -3z"/>
<path d="M2970 4925 c0 -51 3 -65 15 -65 9 0 15 9 15 25 0 14 4 25 10 25 5 0
17 -11 26 -25 9 -14 23 -25 31 -25 13 0 13 3 -1 23 -28 38 -29 45 -6 77 17 24
18 30 6 30 -9 0 -23 -11 -32 -25 -9 -14 -20 -25 -25 -25 -5 0 -9 11 -9 25 0
16 -6 25 -15 25 -12 0 -15 -14 -15 -65z"/>
<path d="M3110 4900 c0 -53 4 -90 10 -90 6 0 10 13 10 29 0 28 2 29 33 24 24
-3 37 0 47 12 18 21 18 78 1 99 -16 19 -52 21 -69 4 -9 -9 -12 -9 -12 0 0 7
-4 12 -10 12 -6 0 -10 -37 -10 -90z m78 58 c30 -30 -2 -93 -36 -71 -21 13 -27
50 -12 69 15 17 32 18 48 2z"/>
<path d="M3260 4975 c-10 -13 -7 -14 25 -12 50 3 55 -17 8 -29 -33 -8 -38 -13
-38 -39 0 -29 1 -30 53 -32 l52 -1 0 44 c0 63 -13 84 -54 84 -19 0 -39 -7 -46
-15z m68 -72 c-4 -21 -36 -29 -51 -14 -9 9 -8 14 3 21 25 16 52 12 48 -7z"/>
<path d="M3390 4925 l0 -65 80 0 c73 0 80 -2 80 -20 0 -11 7 -20 15 -20 10 0
15 10 15 30 0 17 -4 30 -10 30 -5 0 -10 25 -10 55 0 42 -3 55 -15 55 -12 0
-15 -13 -15 -55 0 -48 -2 -55 -20 -55 -18 0 -20 7 -20 55 0 42 -3 55 -15 55
-12 0 -15 -13 -15 -55 0 -48 -2 -55 -20 -55 -18 0 -20 7 -20 55 0 42 -3 55
-15 55 -12 0 -15 -14 -15 -65z"/>
<path d="M3616 4974 c-9 -8 -16 -31 -16 -49 0 -18 7 -41 16 -49 19 -20 68 -21
83 -3 15 19 3 28 -20 14 -14 -9 -24 -9 -36 -1 -35 22 -26 34 27 34 49 0 51 1
44 23 -3 12 -11 28 -16 35 -14 17 -63 15 -82 -4z m72 -21 c2 -9 -8 -13 -33
-13 -33 0 -36 2 -25 15 15 18 51 16 58 -2z"/>
<path d="M3800 4980 c0 -5 9 -10 20 -10 18 0 20 -7 20 -55 0 -42 3 -55 15 -55
12 0 15 13 15 55 0 48 2 55 20 55 11 0 20 5 20 10 0 6 -25 10 -55 10 -30 0
-55 -4 -55 -10z"/>
<path d="M3940 4975 c-10 -13 -7 -14 25 -12 50 3 55 -17 8 -29 -33 -8 -38 -13
-38 -39 0 -29 1 -30 53 -32 l52 -1 0 44 c0 63 -13 84 -54 84 -19 0 -39 -7 -46
-15z m68 -72 c-4 -21 -36 -29 -51 -14 -9 9 -8 14 3 21 25 16 52 12 48 -7z"/>
<path d="M4130 4925 l0 -65 85 0 85 0 0 65 c0 51 -3 65 -15 65 -12 0 -15 -13
-15 -55 0 -48 -2 -55 -20 -55 -18 0 -20 7 -20 55 0 42 -3 55 -15 55 -12 0 -15
-13 -15 -55 0 -48 -2 -55 -20 -55 -18 0 -20 7 -20 55 0 42 -3 55 -15 55 -12 0
-15 -14 -15 -65z"/>
<path d="M4330 4925 l0 -65 44 0 c54 0 77 21 57 52 -9 14 -9 24 -2 31 7 7 7
16 0 29 -7 13 -21 18 -54 18 l-45 0 0 -65z m78 28 c2 -8 -6 -13 -22 -13 -17 0
-26 5 -26 16 0 19 41 16 48 -3z m5 -47 c7 -19 -1 -26 -30 -26 -16 0 -23 6 -23
20 0 14 7 20 24 20 13 0 26 -6 29 -14z"/>
<path d="M4470 4925 c0 -78 15 -85 51 -22 l24 42 3 -42 c2 -29 8 -43 18 -43
11 0 14 15 14 65 0 81 -17 86 -60 18 l-30 -48 0 48 c0 26 -4 47 -10 47 -6 0
-10 -28 -10 -65z"/>
<path d="M4630 4958 c0 -18 -7 -46 -15 -62 -20 -37 -20 -76 0 -76 8 0 15 9 15
20 0 17 7 20 45 20 38 0 45 -3 45 -20 0 -11 5 -20 10 -20 6 0 10 14 10 30 0
17 -4 30 -10 30 -5 0 -10 25 -10 55 l0 55 -45 0 c-44 0 -45 -1 -45 -32z m68
-30 c-3 -39 -6 -43 -32 -46 -23 -3 -28 0 -22 13 3 9 6 30 6 46 0 24 4 29 26
29 23 0 25 -3 22 -42z"/>
<path d="M4770 4925 l0 -65 80 0 80 0 0 65 c0 37 -4 65 -10 65 -5 0 -10 -25
-10 -55 0 -52 -1 -55 -25 -55 -24 0 -25 3 -25 55 0 70 -18 72 -22 3 -3 -46 -6
-53 -25 -56 -22 -3 -23 0 -23 52 0 31 -4 56 -10 56 -6 0 -10 -28 -10 -65z"/>
<path d="M4976 4968 c-21 -30 -20 -71 2 -91 32 -29 106 -18 87 13 -4 6 -13 5
-24 -2 -22 -14 -51 -4 -51 17 0 11 11 15 45 15 49 0 56 10 29 48 -10 14 -26
22 -44 22 -18 0 -34 -8 -44 -22z m72 -15 c2 -9 -7 -13 -27 -13 -30 0 -39 9
-24 24 11 10 46 3 51 -11z"/>
<path d="M5170 4925 l0 -65 45 0 c48 0 72 22 55 51 -5 7 -7 22 -4 32 9 28 -14
47 -57 47 l-39 0 0 -65z m71 30 c0 -5 -12 -11 -26 -13 -18 -2 -25 1 -25 13 0
12 7 15 25 13 14 -2 26 -7 26 -13z m4 -55 c0 -9 -11 -16 -27 -18 -23 -3 -28 1
-28 18 0 17 5 21 28 18 16 -2 27 -9 27 -18z"/>
<path d="M5310 4925 c0 -37 4 -65 10 -65 6 0 10 28 10 65 0 37 -4 65 -10 65
-6 0 -10 -28 -10 -65z"/>
<path d="M5387 4983 c-4 -3 -7 -23 -7 -44 0 -21 -7 -44 -15 -53 -8 -8 -15 -26
-15 -40 0 -16 6 -26 15 -26 8 0 15 9 15 20 0 17 7 20 45 20 38 0 45 -3 45 -20
0 -11 5 -20 10 -20 6 0 10 14 10 30 0 17 -4 30 -10 30 -5 0 -10 25 -10 55 l0
55 -38 0 c-21 0 -42 -3 -45 -7z m63 -58 c0 -43 -1 -45 -29 -45 l-28 0 10 45
c8 33 15 45 29 45 15 0 18 -8 18 -45z"/>
<path d="M5675 4923 c25 -68 25 -68 5 -85 -25 -20 -25 -28 -1 -28 25 0 33 13
64 98 31 85 31 82 13 82 -7 0 -19 -20 -26 -46 -14 -50 -22 -48 -40 9 -6 20
-18 37 -26 37 -11 0 -8 -15 11 -67z"/>
<path d="M5800 4925 l0 -65 45 0 c48 0 72 22 55 51 -5 7 -7 22 -4 32 9 28 -14
47 -57 47 l-39 0 0 -65z m71 30 c0 -5 -12 -11 -26 -13 -18 -2 -25 1 -25 13 0
12 7 15 25 13 14 -2 26 -7 26 -13z m4 -55 c0 -9 -11 -16 -27 -18 -23 -3 -28 1
-28 18 0 17 5 21 28 18 16 -2 27 -9 27 -18z"/>
<path d="M5940 4975 c-10 -13 -7 -14 25 -12 50 3 55 -17 8 -29 -33 -8 -38 -13
-38 -39 0 -29 1 -30 53 -32 l52 -1 0 44 c0 63 -13 84 -54 84 -19 0 -39 -7 -46
-15z m68 -72 c-4 -21 -36 -29 -51 -14 -9 9 -8 14 3 21 25 16 52 12 48 -7z"/>
<path d="M6077 4972 c-22 -25 -21 -75 1 -95 23 -21 66 -22 82 -2 17 21 7 29
-18 14 -21 -13 -52 -7 -52 11 0 5 9 10 20 10 11 0 20 5 20 10 0 6 -9 10 -20
10 -24 0 -27 28 -4 37 9 3 25 1 36 -6 25 -15 35 -7 18 14 -17 21 -63 19 -83
-3z"/>
<path d="M6190 4980 c0 -5 11 -10 25 -10 24 0 25 -3 25 -55 0 -30 5 -55 10
-55 6 0 10 25 10 55 0 48 2 55 20 55 11 0 20 5 20 10 0 6 -25 10 -55 10 -30 0
-55 -4 -55 -10z"/>
<path d="M6330 4925 l0 -65 39 0 c40 0 71 20 71 45 0 17 -38 45 -62 45 -11 0
-18 8 -18 20 0 11 -7 20 -15 20 -12 0 -15 -14 -15 -65z m78 -22 c-2 -10 -13
-19 -26 -21 -17 -3 -22 2 -22 17 0 16 6 21 26 21 19 0 25 -5 22 -17z"/>
<path d="M6477 4972 c-22 -25 -21 -75 1 -95 23 -21 66 -22 82 -2 17 21 7 29
-18 14 -31 -19 -52 -5 -52 36 0 41 21 55 52 36 25 -15 35 -7 18 14 -17 21 -63
19 -83 -3z"/>
<path d="M6612 4978 c-15 -15 -15 -41 -1 -55 8 -8 8 -17 -1 -33 -18 -33 -1
-39 24 -7 27 34 46 35 46 2 0 -16 6 -25 15 -25 12 0 15 14 15 65 l0 65 -43 0
c-24 0 -48 -5 -55 -12z m68 -29 c0 -15 -5 -20 -22 -17 -34 5 -37 38 -4 38 20
0 26 -5 26 -21z"/>
<path d="M6800 4899 c0 -72 3 -89 15 -89 10 0 15 10 15 28 0 26 3 28 28 24 36
-5 62 20 62 59 0 55 -15 69 -70 68 l-50 -2 0 -88z m91 50 c16 -31 -4 -71 -34
-67 -39 5 -37 88 2 88 11 0 25 -10 32 -21z"/>
<path d="M6966 4974 c-23 -23 -21 -91 3 -104 49 -25 101 3 101 55 0 55 -67 86
-104 49z m69 -25 c4 -11 4 -31 1 -45 -11 -42 -66 -25 -66 21 0 43 53 63 65 24z"/>
<path d="M7246 4968 c-33 -46 -7 -108 44 -108 38 0 60 24 60 65 0 18 -7 41
-16 49 -23 24 -70 20 -88 -6z m75 -19 c16 -31 -4 -71 -34 -67 -39 5 -37 88 2
88 11 0 25 -10 32 -21z"/>
<path d="M7370 4980 c0 -5 9 -10 20 -10 18 0 20 -7 20 -55 0 -30 5 -55 10 -55
6 0 10 25 10 55 0 52 1 55 25 55 14 0 25 5 25 10 0 6 -25 10 -55 10 -30 0 -55
-4 -55 -10z"/>
<path d="M7510 4980 c-11 -7 -12 -12 -4 -20 9 -9 14 -9 18 -1 11 16 46 13 46
-4 0 -8 -9 -15 -19 -15 -10 0 -29 -9 -42 -19 -36 -30 -16 -56 45 -57 l46 -1 0
52 c0 28 -5 56 -12 63 -14 14 -57 16 -78 2z m60 -80 c-12 -22 -50 -27 -50 -7
0 20 10 27 37 27 21 0 22 -3 13 -20z"/>
<path d="M7640 4875 c0 -8 7 -15 15 -15 8 0 15 7 15 15 0 8 -7 15 -15 15 -8 0
-15 -7 -15 -15z"/>
<path d="M4670 4610 c-18 -18 -20 -33 -20 -180 0 -147 2 -162 20 -180 20 -20
33 -20 650 -20 617 0 630 0 650 20 18 18 20 33 20 180 0 147 -2 162 -20 180
-20 20 -33 20 -650 20 -617 0 -630 0 -650 -20z m1110 -155 l23 -25 -23 -25
c-28 -29 -51 -34 -25 -5 18 20 17 20 -18 20 -21 0 -37 5 -37 10 0 6 16 10 37
10 35 0 36 0 18 20 -26 29 -3 24 25 -5z m-870 -35 c0 -27 -4 -50 -10 -50 -5 0
-10 20 -10 45 0 38 -3 45 -20 45 -17 0 -20 -7 -20 -45 0 -25 -4 -45 -10 -45
-5 0 -10 23 -10 50 l0 50 40 0 40 0 0 -50z m84 8 c23 -38 -36 -77 -64 -43 -10
12 -10 21 -1 41 13 29 47 30 65 2z m36 2 c0 -11 7 -20 15 -20 8 0 15 9 15 20
0 11 5 20 10 20 6 0 10 -18 10 -40 0 -22 -4 -40 -10 -40 -5 0 -10 3 -10 8 0 4
-10 12 -22 17 -23 10 -38 55 -19 55 6 0 11 -9 11 -20z m118 8 c7 -7 12 -25 12
-40 0 -25 -3 -28 -35 -28 -28 0 -35 4 -35 19 0 12 11 23 28 30 19 8 21 10 7
10 -34 -2 -41 1 -25 11 20 13 34 12 48 -2z m82 2 c0 -5 -4 -10 -10 -10 -5 0
-10 -13 -10 -30 0 -16 -4 -30 -10 -30 -5 0 -10 14 -10 30 0 20 -5 30 -15 30
-8 0 -15 5 -15 10 0 6 16 10 35 10 19 0 35 -4 35 -10z m31 -12 l0 -23 16 23
c23 33 33 27 33 -18 0 -41 -19 -58 -21 -17 l0 22 -11 -22 c-18 -37 -38 -28
-38 17 0 41 20 58 21 18z m196 2 c3 -11 9 -20 13 -20 4 0 10 9 13 20 4 16 14
20 51 20 25 0 46 -4 46 -10 0 -5 -4 -10 -10 -10 -5 0 -10 -13 -10 -30 0 -16
-4 -30 -10 -30 -5 0 -10 13 -10 29 0 19 -6 30 -18 33 -14 4 -22 -5 -36 -43
-10 -28 -23 -49 -31 -49 -17 0 -20 17 -5 22 6 2 6 16 -1 39 -9 28 -16 35 -30
32 -13 -4 -19 -14 -19 -34 0 -16 -4 -29 -10 -29 -5 0 -10 14 -10 30 0 17 -4
30 -10 30 -5 0 -10 5 -10 10 0 6 21 10 46 10 37 0 47 -4 51 -20z"/>
<path d="M4943 4414 c-7 -18 11 -39 26 -30 17 11 13 46 -4 46 -9 0 -18 -7 -22
-16z"/>
<path d="M5110 4390 c0 -5 4 -10 9 -10 6 0 13 5 16 10 3 6 -1 10 -9 10 -9 0
-16 -4 -16 -10z"/>
<path d="M1916 3373 c-24 -50 -32 -149 -15 -188 12 -28 13 -25 20 60 4 50 12
103 18 118 23 59 4 66 -23 10z"/>
<path d="M7298 3388 c-37 -20 -38 -21 -38 -79 0 -33 4 -59 10 -59 12 0 13 -40
2 -56 -4 -6 -17 -14 -29 -18 -28 -9 -30 -37 -3 -61 16 -14 20 -31 20 -76 0
-74 14 -89 85 -89 99 0 80 -38 -32 -64 -77 -17 -99 -36 -161 -131 -24 -38 -51
-74 -58 -78 -8 -4 -14 -12 -14 -17 0 -6 -37 -47 -83 -93 -93 -92 -147 -184
-147 -247 0 -53 19 -66 78 -52 26 6 48 9 50 7 2 -2 -4 -17 -12 -34 -22 -42
-20 -48 16 -56 17 -4 50 -16 72 -26 54 -25 36 -21 -190 44 -487 142 -540 146
-635 54 -73 -70 -248 -267 -313 -352 -82 -108 -206 -314 -206 -342 0 -28 -55
-65 -156 -107 -155 -63 -214 -95 -225 -120 -17 -36 -4 -71 36 -102 l36 -27
102 31 c56 17 142 36 191 41 125 14 145 31 166 140 4 24 12 46 17 50 5 3 29
35 52 70 24 35 60 80 80 100 41 41 217 191 224 191 2 0 10 -28 17 -62 21 -108
139 -488 188 -603 25 -60 56 -120 68 -132 12 -12 25 -39 29 -61 l6 -39 -73
-50 c-40 -27 -103 -66 -140 -87 -68 -37 -98 -67 -98 -96 0 -12 17 -20 63 -29
56 -11 67 -10 107 7 56 24 141 48 200 57 73 10 108 25 130 52 25 32 25 73 -2
143 -11 30 -21 73 -23 95 -3 48 -20 147 -41 235 -12 53 -54 340 -50 347 1 0
24 -6 53 -15 l51 -17 7 -90 c23 -310 90 -663 135 -709 19 -19 54 -15 63 7 3 7
-1 58 -9 113 -17 125 -29 471 -20 585 l8 86 156 6 c86 3 166 9 177 12 20 6 20
1 20 -197 0 -208 7 -248 40 -248 8 0 17 10 19 23 18 93 56 359 56 387 0 48 7
55 75 81 33 12 68 28 78 37 16 14 17 13 17 -9 0 -13 -7 -73 -15 -134 -28 -207
-15 -599 22 -673 26 -51 50 -63 72 -35 17 20 19 51 24 315 6 365 24 515 131
1068 l33 175 43 -3 c23 -1 69 -14 103 -27 41 -17 80 -25 121 -25 62 0 135 15
137 28 16 112 -1 162 -105 300 -107 142 -232 292 -259 311 -31 22 -112 16
-191 -13 -38 -15 -70 -25 -72 -24 -1 2 -6 21 -10 43 -7 39 -6 40 13 23 26 -24
50 -23 63 2 6 11 24 27 40 35 21 11 31 25 36 50 7 40 0 55 -18 37 -9 -9 -16
-8 -29 4 -14 13 -17 26 -12 64 5 44 2 54 -31 104 -20 31 -41 56 -45 56 -5 0
-11 8 -13 18 -13 47 -207 68 -280 30z m120 -182 c4 -35 23 -41 60 -22 29 15
62 13 62 -4 0 -4 -17 -18 -37 -30 -26 -16 -33 -24 -23 -28 26 -8 50 -46 50
-82 0 -19 9 -60 19 -90 19 -53 19 -55 1 -90 -10 -19 -35 -54 -55 -78 -29 -34
-43 -42 -64 -40 -25 3 -26 5 -24 66 1 44 7 70 19 83 15 16 15 24 4 63 l-12 45
-43 -6 c-53 -7 -95 2 -95 21 0 7 14 16 30 20 17 3 30 11 30 17 0 7 -11 9 -30
6 -28 -6 -30 -4 -30 23 0 16 -7 35 -15 44 -19 19 -19 26 0 26 8 0 21 16 29 35
17 40 15 40 63 20 20 -8 38 -13 40 -11 10 10 -39 46 -62 46 -21 0 -25 5 -25
30 l0 30 53 -34 c38 -25 53 -40 55 -60z m409 -293 c30 -17 143 -138 143 -154
0 -4 -16 -10 -35 -13 -20 -4 -50 -20 -68 -35 -26 -23 -36 -27 -55 -18 -28 13
-57 -11 -73 -62 -25 -80 -42 -67 -49 37 l-5 77 -35 -2 c-37 -2 -104 -28 -152
-60 -42 -27 -46 -7 -6 35 45 47 87 114 94 152 6 26 12 30 58 39 28 5 60 12 71
14 44 10 82 6 112 -10z m-461 -122 l-1 -70 -52 2 c-31 1 -57 -3 -65 -11 -7 -7
-14 -45 -16 -88 -4 -70 -6 -76 -32 -89 -15 -8 -33 -28 -40 -45 -7 -16 -17 -30
-22 -30 -5 0 -4 9 2 19 5 11 10 38 10 61 0 25 11 63 30 100 17 33 30 64 30 70
0 21 -19 9 -40 -25 -21 -34 -40 -46 -40 -25 0 16 98 144 122 159 20 12 90 38
109 40 4 1 6 -30 5 -68z m713 -173 c75 -103 120 -200 108 -231 -11 -30 -131
-23 -219 12 -90 35 -162 51 -233 51 -30 0 -74 7 -97 17 -54 21 -53 20 -39 37
16 19 6 36 -20 36 -11 0 -17 5 -14 10 3 6 15 10 25 10 24 0 36 20 19 31 -10 6
-6 9 15 9 20 0 40 -12 69 -41 22 -22 48 -44 58 -50 24 -12 269 -12 269 1 0 5
-34 28 -76 51 -74 41 -102 73 -91 102 5 14 106 55 137 56 8 0 48 -45 89 -101z
m-419 47 l0 -36 -49 7 c-56 7 -91 -7 -91 -36 0 -11 5 -20 12 -20 7 0 6 -6 -4
-17 -25 -29 -29 -95 -8 -121 10 -12 24 -22 30 -22 15 0 -81 -89 -97 -90 -6 0
-31 9 -56 19 -48 21 -64 50 -44 83 10 16 8 22 -12 39 -13 11 -22 21 -20 22 2
2 17 8 32 15 55 23 -2 70 -63 52 -19 -5 -34 -9 -35 -7 -1 1 1 25 4 52 6 49 6
50 44 53 21 2 62 -2 92 -8 l54 -11 -5 -67 c-3 -37 -6 -81 -9 -98 -3 -32 9 -63
21 -52 3 4 13 49 20 100 8 51 16 98 19 105 6 17 115 72 143 73 19 0 22 -5 22
-35z m150 -69 c0 -35 -4 -45 -20 -49 -31 -8 -40 13 -23 56 21 52 43 49 43 -7z
m-685 -23 c-1 -83 -25 -119 -92 -138 -29 -9 -53 -20 -53 -25 0 -15 60 -12 116
5 57 17 75 8 51 -28 -11 -17 -37 -30 -89 -44 -105 -31 -178 -46 -185 -40 -14
14 46 104 140 211 55 64 104 116 107 116 3 0 5 -26 5 -57z m745 -21 c-27 -4
-34 2 -26 24 6 15 8 15 27 -2 l21 -19 -22 -3z m-579 -35 c-54 -27 -64 -47 -24
-47 15 0 35 -4 43 -10 13 -8 13 -10 0 -14 -8 -3 -28 -5 -44 -3 -40 3 -46 -22
-7 -29 24 -5 30 -11 26 -24 -3 -11 1 -20 11 -24 34 -13 4 -17 -38 -5 -58 17
-78 36 -78 73 1 41 27 74 75 91 63 22 86 17 36 -8z m372 -204 c-19 -82 -93
-451 -93 -469 0 -3 -14 6 -31 20 -17 14 -43 29 -57 32 -15 3 -32 7 -39 9 -20
6 1 58 60 147 59 90 137 239 157 303 13 42 19 55 24 55 2 0 -7 -44 -21 -97z
m107 70 c0 -8 -9 -49 -19 -91 -87 -342 -159 -950 -161 -1357 0 -80 -3 -96 -12
-80 -6 11 -16 23 -21 27 -6 3 -12 37 -13 75 -2 37 -5 115 -9 173 -3 58 -1 161
4 230 15 186 88 625 130 785 11 39 27 108 36 155 9 47 18 90 20 97 5 16 45 4
45 -14z m-140 0 c0 -7 -149 -282 -163 -300 -7 -10 -18 -8 -47 7 -114 58 -340
117 -405 104 -18 -3 -35 -1 -39 4 -3 5 21 35 54 66 73 67 113 80 196 65 32 -6
74 -8 92 -5 24 3 49 -2 87 -21 54 -27 54 -27 76 -7 25 22 130 92 142 93 4 1 7
-2 7 -6z m-1136 -494 c165 -77 384 -114 677 -114 l137 0 40 33 c23 17 48 32
57 32 12 0 15 6 10 20 -8 25 -1 25 44 -2 120 -71 120 -126 1 -179 -84 -38
-192 -52 -399 -53 l-195 -1 -7 25 c-7 24 -7 24 -8 3 -1 -22 -5 -23 -76 -23
-40 0 -96 5 -123 10 l-49 11 -39 102 -39 102 -75 37 c-103 50 -64 48 44 -3z
m852 -311 c-3 -13 -16 -66 -28 -118 l-23 -95 -3 109 c-3 114 1 126 41 126 13
0 16 -6 13 -22z m-495 -220 c-3 -197 9 -408 29 -500 9 -43 4 -50 -9 -15 -12
31 -68 364 -76 452 -4 39 -16 115 -26 170 -10 55 -19 101 -19 103 0 1 24 2 53
2 l52 0 -4 -212z m-1055 160 c45 -22 46 -24 40 -61 -4 -22 -13 -54 -21 -72
-16 -40 -32 -45 -205 -68 -63 -8 -137 -25 -163 -36 -45 -19 -50 -20 -73 -5
-13 9 -24 22 -24 29 0 7 44 30 98 50 168 64 221 93 255 141 17 24 34 44 39 44
4 0 28 -10 54 -22z m901 -606 c25 -79 25 -83 8 -102 -12 -13 -31 -20 -56 -20
-54 0 -183 -26 -247 -50 -33 -13 -66 -19 -80 -15 -21 5 -9 15 89 72 182 105
188 111 155 174 l-13 26 59 -1 59 -1 26 -83z"/>
<path d="M7310 3180 c0 -11 5 -20 10 -20 6 0 10 9 10 20 0 11 -4 20 -10 20 -5
0 -10 -9 -10 -20z"/>
<path d="M7457 1813 c-16 -15 -6 -34 15 -31 29 4 38 38 10 38 -10 0 -22 -3
-25 -7z"/>
<path d="M6795 1770 c-4 -6 -3 -16 3 -22 6 -6 12 -6 17 2 4 6 3 16 -3 22 -6 6
-12 6 -17 -2z"/>
<path d="M6632 1758 c-7 -7 -12 -19 -12 -27 0 -11 4 -10 20 4 21 19 26 35 12
35 -4 0 -13 -5 -20 -12z"/>
<path d="M7397 1744 c-8 -8 3 -34 14 -34 11 0 12 27 0 34 -4 3 -11 3 -14 0z"/>
<path d="M6725 1728 c-7 -18 10 -58 25 -58 15 0 12 33 -4 56 -13 17 -15 17
-21 2z"/>
<path d="M6900 1726 c0 -16 28 -42 36 -33 8 7 -14 47 -26 47 -6 0 -10 -6 -10
-14z"/>
<path d="M7082 1728 c-14 -14 -16 -38 -3 -38 12 0 41 29 41 41 0 13 -24 11
-38 -3z"/>
<path d="M7320 1711 c0 -11 4 -21 9 -21 18 0 21 18 6 30 -13 10 -15 9 -15 -9z"/>
<path d="M7182 1686 c2 -16 9 -31 17 -34 10 -3 11 2 6 19 -12 39 -27 48 -23
15z"/>
<path d="M7040 1671 c0 -22 15 -35 30 -26 7 4 7 13 0 26 -14 25 -30 25 -30 0z"/>
<path d="M2171 3355 c-46 -7 -88 -19 -93 -26 -32 -48 -41 -81 -46 -160 -6
-109 11 -187 43 -199 16 -6 24 -19 28 -50 3 -24 10 -47 15 -52 13 -13 200 44
260 78 44 26 56 57 26 68 -14 5 -16 20 -12 104 3 53 7 104 9 112 3 9 -8 18
-31 26 -29 10 -35 17 -36 40 -2 75 -1 74 -41 73 -21 -1 -76 -7 -122 -14z m141
-50 c-5 -39 -12 -41 -92 -25 -36 7 -49 5 -64 -8 -30 -27 -48 -80 -60 -176 -11
-90 -29 -121 -42 -71 -10 39 12 216 32 258 17 35 21 37 63 38 25 0 66 4 91 8
78 14 76 15 72 -24z m-22 -75 l75 -12 0 -117 0 -118 -115 -46 c-84 -34 -117
-43 -123 -34 -12 17 -1 255 14 297 18 51 27 60 53 51 12 -5 55 -14 96 -21z"/>
<path d="M4185 3316 c-53 -17 -177 -82 -205 -108 l-22 -20 25 -27 c35 -37 54
-78 66 -146 7 -41 8 -71 1 -94 -5 -19 -7 -37 -5 -40 3 -3 33 1 66 8 34 7 63
10 66 8 2 -3 -1 -14 -8 -25 -7 -11 -9 -27 -6 -36 5 -13 22 -16 97 -16 53 0 90
-4 90 -10 0 -5 6 -10 14 -10 28 0 73 50 102 112 26 58 28 73 29 186 2 146 1
147 -105 140 l-67 -5 -42 48 c-23 27 -45 49 -49 48 -4 0 -25 -6 -47 -13z m89
-63 c41 -64 71 -238 44 -260 -10 -9 -218 -83 -232 -83 -2 0 -5 35 -8 79 -4 61
-11 92 -34 137 -16 32 -30 61 -32 65 -3 6 14 15 128 65 41 19 83 34 92 34 10
0 29 -17 42 -37z m191 -153 c0 -97 -2 -110 -32 -172 l-32 -68 -78 0 c-101 0
-125 7 -121 32 2 14 20 27 62 42 82 31 89 43 83 146 -3 47 -9 95 -13 108 -6
23 -5 23 62 20 l69 -3 0 -105z"/>
<path d="M4608 3258 c9 -43 9 -136 -1 -170 -10 -36 10 -38 23 -2 21 54 5 204
-21 204 -5 0 -5 -15 -1 -32z"/>
<path d="M3289 3031 c-18 -14 -23 -31 -27 -79 -4 -53 -7 -61 -27 -66 -25 -6
-48 -52 -43 -88 2 -18 10 -24 34 -26 21 -2 35 -11 42 -27 11 -23 10 -24 -56
-30 -99 -11 -177 -41 -275 -109 -149 -101 -165 -118 -324 -343 -18 -25 -33
-55 -33 -67 0 -29 0 -28 -126 -144 l-111 -101 -13 77 c-13 85 -24 112 -44 112
-19 0 -26 23 -26 79 0 61 -16 81 -71 92 -102 19 -240 7 -341 -31 -48 -18 -58
-26 -68 -56 -14 -40 -6 -86 18 -107 28 -26 122 -37 214 -27 45 5 86 6 91 1 4
-4 0 -24 -9 -44 -22 -45 -12 -106 41 -274 38 -121 87 -206 122 -211 26 -4 94
32 182 94 35 25 65 43 67 41 3 -2 -25 -65 -60 -139 -36 -75 -99 -219 -141
-322 -41 -102 -89 -213 -106 -247 -22 -43 -29 -69 -26 -89 6 -26 2 -29 -46
-49 -97 -39 -286 -148 -294 -168 -3 -8 2 -22 10 -31 15 -15 25 -14 124 7 159
33 159 33 148 24 -5 -5 -31 -26 -58 -47 -53 -42 -70 -67 -61 -90 10 -27 43
-18 152 40 58 31 103 51 99 43 -3 -8 -20 -47 -37 -87 -31 -72 -36 -127 -13
-127 13 0 163 144 201 193 l25 33 51 -55 c71 -77 156 -108 156 -57 0 9 -23 58
-50 110 -35 66 -47 97 -40 106 6 7 7 25 4 41 -7 36 100 363 171 524 26 58 76
184 113 280 36 96 67 176 68 178 2 4 229 -167 265 -200 24 -22 27 -35 38 -143
7 -66 26 -195 42 -287 16 -92 29 -176 29 -187 0 -10 7 -24 15 -31 8 -7 15 -28
15 -48 0 -31 10 -45 86 -120 63 -61 106 -93 158 -118 102 -49 128 -52 176 -20
33 22 40 32 40 59 0 39 -35 97 -113 189 -55 65 -55 66 -45 107 9 34 7 60 -11
139 -55 246 -106 442 -129 501 -26 66 -85 145 -183 244 -86 86 -86 87 23 136
51 23 110 53 130 67 21 13 40 24 43 24 2 0 17 -18 32 -41 15 -22 54 -59 87
-82 34 -22 77 -53 96 -68 53 -42 168 -99 200 -99 72 0 438 241 556 365 11 12
33 30 47 40 19 12 27 26 27 46 0 23 8 33 43 54 58 33 98 32 277 -9 80 -18 150
-31 157 -29 19 7 25 40 12 65 -6 13 -28 37 -48 55 l-36 32 67 1 c65 0 98 14
98 41 0 28 -105 92 -171 106 -31 6 -30 23 1 23 10 0 55 11 99 25 63 20 81 30
81 44 0 34 -120 56 -293 55 l-147 -2 35 40 c70 77 83 138 28 138 -63 0 -247
-142 -332 -256 -32 -43 -55 -63 -75 -68 -49 -10 -343 -323 -390 -413 -9 -18
-18 -33 -20 -33 -10 0 -57 94 -96 190 -23 58 -57 133 -76 167 -44 79 -129 173
-158 173 -26 1 -79 29 -55 30 30 0 60 34 70 79 7 32 6 67 -6 133 -15 86 -15
89 5 110 42 45 13 56 -156 57 -105 1 -125 -2 -145 -18z m32 -36 c-1 -15 -24
-12 -29 3 -3 9 2 13 12 10 10 -1 17 -7 17 -13z m229 -44 c0 -5 -10 -11 -22
-14 -18 -5 -19 -8 -8 -21 7 -9 18 -16 25 -16 15 0 28 -101 19 -147 -5 -27 -11
-33 -45 -38 -45 -8 -51 -15 -71 -77 -15 -46 -13 -56 8 -40 5 4 -11 -14 -37
-40 -26 -27 -51 -48 -56 -48 -4 0 -9 12 -10 26 0 15 -11 40 -23 57 -20 26 -21
34 -11 62 17 47 14 60 -19 95 -20 22 -29 39 -25 51 7 22 5 22 -29 9 -22 -8
-26 -7 -26 10 0 10 5 22 12 26 7 4 8 3 4 -4 -4 -7 -1 -12 9 -12 9 0 13 5 10
10 -9 14 9 12 23 -2 17 -17 32 6 32 50 0 59 26 72 140 72 55 0 100 -4 100 -9z
m1120 -178 c-34 -38 -66 -78 -71 -90 -13 -33 -1 -56 26 -49 93 23 385 37 385
18 0 -5 -51 -19 -112 -32 -121 -25 -138 -32 -138 -61 0 -14 13 -20 58 -29 102
-21 175 -41 207 -58 l30 -17 -38 -3 c-21 -2 -78 1 -125 7 -78 10 -88 9 -100
-6 -7 -9 -11 -22 -9 -28 2 -5 45 -33 97 -60 116 -62 128 -83 28 -49 -97 33
-220 64 -254 64 -15 0 -50 -11 -78 -24 -28 -13 -71 -30 -95 -37 -43 -13 -45
-13 -65 14 -11 16 -33 61 -48 102 l-27 75 49 61 c76 95 242 240 300 262 41 15
36 1 -20 -60z m-1394 -140 c9 -47 9 -48 -16 -48 -14 -1 -36 -4 -48 -9 -22 -7
-23 -6 -17 16 19 61 35 88 53 88 14 0 20 -11 28 -47z m-173 -20 c-2 -16 -5
-56 -8 -91 -4 -67 -21 -104 -56 -122 -26 -15 -66 -5 -77 18 -18 34 -22 108 -7
128 21 29 28 15 34 -61 1 -11 6 -27 11 -35 8 -13 12 -12 31 6 16 16 24 43 32
103 8 65 14 81 27 81 13 0 16 -7 13 -27z m427 -43 l0 -49 -25 25 c-21 21 -23
28 -13 49 19 43 38 31 38 -25z m-261 -47 c-7 -10 -30 -37 -51 -60 -36 -40 -50
-83 -28 -83 27 0 72 34 100 75 17 25 35 45 41 45 8 0 -19 -46 -76 -127 -32
-45 -115 -38 -115 9 0 40 92 158 123 158 17 0 18 -2 6 -17z m401 -22 c0 -4
-25 -20 -55 -36 -57 -29 -147 -107 -182 -160 -11 -16 -28 -59 -36 -95 -16 -63
-16 -64 5 -87 17 -18 19 -26 10 -35 -9 -9 -15 -9 -24 0 -18 18 -25 15 -32 -12
-3 -13 -13 -27 -22 -30 -13 -5 -15 -2 -9 16 4 13 11 46 17 73 5 28 18 79 29
115 13 43 19 95 19 153 0 48 4 87 9 87 13 0 18 -28 16 -97 -1 -35 0 -63 2 -63
1 0 21 20 44 45 23 25 76 68 116 95 67 45 93 54 93 31z m-731 -85 c34 -18 101
-91 101 -110 0 -8 -4 -18 -10 -21 -5 -3 -10 2 -10 11 0 28 -75 92 -117 100
-21 4 -42 10 -48 14 -17 12 -75 -19 -85 -46 -6 -14 -10 -42 -10 -62 -1 -20 -7
-48 -15 -62 -14 -24 -14 -24 -15 21 0 71 9 104 40 138 26 28 35 31 85 31 31 0
68 -6 84 -14z m1412 -33 c12 -30 26 -58 43 -86 8 -14 8 -20 -4 -27 -11 -7 -8
-10 16 -10 18 0 38 -8 49 -20 17 -19 17 -20 -1 -22 -39 -3 -49 -5 -67 -13 -28
-12 -106 1 -127 20 -33 30 -21 75 38 153 30 39 39 40 53 5z m-611 0 c0 -4 -21
-26 -46 -49 -46 -41 -46 -42 -25 -54 12 -6 43 -10 68 -9 30 2 48 -1 51 -9 2
-7 -3 -12 -12 -12 -21 0 -21 0 -56 -10 -17 -5 -44 -5 -65 1 -29 8 -35 14 -35
38 0 18 11 38 33 58 44 42 87 65 87 46z m445 -123 c8 -22 12 -40 10 -40 -2 0
2 -19 11 -42 8 -22 12 -43 10 -45 -2 -3 2 -20 10 -38 18 -45 18 -61 -2 -69 -9
-4 -18 -5 -20 -3 -1 1 -17 59 -34 127 -18 69 -36 130 -42 135 -14 14 -62 -46
-102 -130 -35 -71 -44 -105 -52 -185 -8 -78 -15 -110 -24 -110 -26 0 2 206 38
289 9 22 48 74 86 116 65 73 69 75 83 56 7 -11 20 -38 28 -61z m-1499 -17 c-8
-26 -18 -79 -22 -118 -7 -76 -12 -94 -24 -75 -10 15 19 188 37 223 22 43 27
25 9 -30z m618 51 c21 -8 20 -40 -4 -89 -11 -22 -19 -50 -20 -62 0 -12 -4 -25
-10 -28 -5 -3 -10 -28 -10 -55 0 -43 -13 -71 -26 -57 -10 10 19 145 43 199 14
31 22 61 19 66 -19 31 -134 -63 -161 -130 -20 -50 -22 -123 -4 -144 9 -11 9
-18 1 -26 -35 -35 -55 84 -27 159 23 59 88 130 140 154 47 22 40 20 59 13z
m-1099 -33 c28 -6 30 -9 32 -62 l2 -55 -53 -26 -52 -26 -24 25 c-22 23 -26 24
-124 18 -56 -4 -119 -3 -141 2 -37 8 -40 11 -40 42 0 31 4 35 49 53 28 10 75
23 105 27 67 10 204 11 246 2z m765 -142 c-27 -68 -50 -130 -50 -136 0 -7 -4
-13 -10 -13 -5 0 -7 -6 -4 -14 5 -14 -35 -60 -44 -51 -6 6 26 72 38 80 20 12
9 25 -39 49 -53 28 -101 77 -101 106 0 32 18 32 35 1 18 -36 69 -77 108 -86
24 -7 27 -5 27 20 0 14 4 24 9 21 12 -8 32 50 25 69 -4 9 1 18 11 21 9 4 14
13 10 22 -4 12 24 46 32 38 1 -1 -20 -58 -47 -127z m65 2 c-9 -27 -23 -55 -31
-61 -19 -16 -18 -7 5 38 10 20 22 55 26 77 7 30 10 35 13 17 2 -12 -4 -45 -13
-71z m-724 -107 l12 -83 -36 -41 c-35 -37 -48 -70 -29 -70 14 0 215 184 266
244 l49 57 19 -43 c10 -23 26 -50 33 -58 13 -14 8 -32 -37 -144 -48 -117 -56
-130 -88 -145 -19 -9 -67 -37 -106 -62 -39 -25 -86 -51 -104 -59 -32 -13 -34
-12 -57 16 -13 16 -28 47 -34 69 -6 22 -14 47 -19 55 -8 16 -16 54 -45 204
-18 95 -19 93 80 135 48 21 72 26 77 18 3 -6 12 -48 19 -93z m1359 42 c104
-10 170 -26 170 -41 0 -17 -97 -77 -119 -73 -10 3 -2 11 27 26 44 23 54 41 25
43 -77 6 -158 21 -170 31 -14 11 -18 32 -5 25 4 -3 36 -7 72 -11z m-971 -155
c35 -33 121 -52 145 -32 7 6 16 8 19 4 4 -3 7 -1 7 6 0 7 4 10 10 6 10 -6 -50
-185 -62 -185 -11 0 -10 28 1 34 5 3 7 16 3 28 -3 13 -1 19 5 15 14 -9 25 20
18 44 -5 15 -17 19 -56 21 -27 0 -55 1 -61 2 -22 2 -68 48 -68 68 0 24 2 23
39 -11z m490 6 c5 -13 17 -29 26 -37 32 -26 165 -189 194 -237 21 -35 38 -93
65 -218 20 -93 46 -208 58 -255 11 -47 23 -106 25 -132 4 -41 2 -50 -22 -72
-32 -30 -119 -51 -168 -42 -35 7 -36 8 -51 79 -8 40 -22 122 -31 182 -8 61
-22 155 -30 210 -21 149 -36 176 -141 276 -50 47 -116 100 -147 118 -52 30
-56 35 -51 59 9 36 23 52 39 46 21 -8 153 14 184 31 35 19 40 19 50 -8z m-369
-221 c0 -9 -31 -76 -35 -76 -2 0 -3 6 -1 13 3 6 7 24 10 40 4 15 11 27 16 27
6 0 10 -2 10 -4z m-206 -87 c26 -23 53 -54 62 -70 10 -19 22 -29 38 -29 27 0
36 -7 30 -25 -3 -7 -13 -11 -23 -8 -14 4 -20 -2 -23 -26 -2 -17 -1 -34 3 -38
4 -5 -9 -44 -29 -88 -19 -44 -61 -156 -92 -249 -34 -98 -61 -163 -65 -156 -4
7 -3 15 2 19 9 5 27 74 28 108 0 6 4 15 8 19 11 12 8 49 -5 66 -12 13 -24 13
-118 -3 -58 -10 -114 -18 -125 -19 -17 0 -17 2 -5 14 13 11 105 32 194 42 37
5 39 8 31 34 -11 36 -66 91 -107 107 -25 10 -36 19 -30 25 23 23 120 -51 147
-113 20 -44 50 -52 64 -16 36 89 49 145 38 156 -6 6 -1 13 12 20 16 9 21 21
21 56 0 24 -3 46 -7 48 -5 3 -46 8 -93 12 -90 7 -107 12 -93 25 4 5 44 5 87 0
44 -5 82 -8 84 -6 8 9 -32 57 -66 78 -20 13 -40 26 -45 29 -12 9 0 29 17 29 7
0 34 -19 60 -41z m166 -29 c0 -5 -4 -10 -10 -10 -5 0 -10 5 -10 10 0 6 5 10
10 10 6 0 10 -4 10 -10z m848 -740 c57 -77 82 -122 82 -144 0 -20 -39 -46 -67
-46 -45 0 -157 67 -230 138 -81 77 -95 109 -40 95 48 -12 131 -7 163 11 16 8
32 15 35 16 4 0 29 -31 57 -70z m-1114 22 c-4 -18 -10 -32 -15 -32 -12 0 -11
14 3 45 15 32 20 27 12 -13z m-293 -18 c42 -46 136 -86 212 -92 51 -4 70 -9
74 -21 3 -9 16 -37 29 -62 13 -26 31 -59 39 -75 8 -15 13 -30 10 -32 -7 -7
-50 21 -107 70 -39 34 -62 47 -71 41 -8 -4 -51 -48 -97 -96 -45 -48 -85 -85
-88 -83 -3 3 14 44 37 92 25 52 38 91 33 99 -6 11 -33 1 -126 -45 -66 -33
-121 -58 -124 -56 -2 3 22 24 53 48 98 73 119 94 110 107 -5 9 -18 11 -39 6
-17 -3 -69 -12 -116 -20 -47 -8 -96 -17 -110 -20 -14 -4 29 26 95 65 66 40
127 78 135 86 19 19 23 18 51 -12z m276 -56 c-3 -8 -6 -5 -6 6 -1 11 2 17 5
13 3 -3 4 -12 1 -19z"/>
<path d="M3408 2923 c-10 -2 -18 -9 -18 -14 0 -15 73 -6 78 9 4 12 -24 15 -60
5z"/>
<path d="M3430 2860 c0 -11 5 -20 10 -20 6 0 10 9 10 20 0 11 -4 20 -10 20 -5
0 -10 -9 -10 -20z"/>
<path d="M3490 2869 c0 -6 4 -19 10 -29 7 -13 6 -19 -6 -24 -20 -8 -9 -26 16
-26 27 0 30 10 13 53 -14 35 -33 50 -33 26z"/>
<path d="M3530 2866 c0 -9 5 -16 10 -16 6 0 10 4 10 9 0 6 -4 13 -10 16 -5 3
-10 -1 -10 -9z"/>
<path d="M3446 2771 c-9 -15 23 -36 35 -24 8 8 5 14 -9 22 -12 6 -23 7 -26 2z"/>
<path d="M4314 2305 c-13 -27 -4 -40 31 -47 17 -2 19 2 17 27 -3 26 -16 45
-32 45 -3 0 -10 -11 -16 -25z"/>
<path d="M2571 1124 c0 -11 3 -14 6 -6 3 7 2 16 -1 19 -3 4 -6 -2 -5 -13z"/>
<path d="M2788 2934 c-27 -20 -48 -39 -48 -44 0 -4 14 -10 31 -14 26 -5 30
-10 27 -33 -3 -27 -1 -28 39 -29 37 -1 43 2 54 27 6 16 9 39 5 52 -6 25 -43
77 -54 77 -4 0 -28 -17 -54 -36z m70 -16 c14 -14 16 -68 3 -68 -5 0 -16 -3
-25 -6 -11 -4 -16 0 -16 13 0 10 -5 24 -12 31 -8 8 -8 15 2 27 15 18 32 19 48
3z"/>
<path d="M1926 2852 c-29 -6 -99 -48 -110 -65 -17 -26 60 -164 112 -204 58
-44 89 -43 128 5 73 88 74 76 -24 177 -62 64 -93 89 -106 87z m29 -43 c4 -12
36 -50 70 -85 l64 -63 -41 -45 c-45 -52 -54 -51 -116 8 -32 30 -108 144 -101
150 8 7 104 55 111 56 4 0 10 -10 13 -21z"/>
<path d="M1611 2702 c-2 -36 78 -142 106 -142 20 0 16 10 -24 54 -21 23 -48
55 -60 72 -12 16 -22 23 -22 16z"/>
<path d="M2680 2631 c-116 -73 -256 -246 -248 -304 3 -18 10 -12 48 38 24 33
89 106 144 163 58 60 96 106 90 111 -5 5 -20 1 -34 -8z"/>
<path d="M2510 2598 c-52 -42 -91 -88 -74 -88 15 1 139 118 132 125 -3 3 -29
-13 -58 -37z"/>
<path d="M1371 2297 c-44 -48 -64 -174 -41 -258 14 -49 51 -103 75 -108 19 -3
19 -2 -1 20 -45 50 -58 90 -57 174 1 70 24 165 40 165 5 0 137 -32 140 -34 1
-1 -5 -22 -13 -46 -18 -51 -11 -109 17 -159 11 -18 19 -35 17 -36 -2 -1 -26
-14 -55 -29 -50 -25 -70 -42 -60 -52 2 -3 16 1 30 7 23 10 30 8 57 -14 27 -23
86 -47 116 -47 24 0 86 69 119 133 19 38 33 72 30 76 -2 5 -19 11 -36 15 -41
8 -99 44 -99 61 0 26 -16 24 -61 -6 -24 -16 -47 -29 -50 -29 -11 0 8 79 25
105 28 43 16 49 -139 80 -24 4 -36 1 -54 -18z m291 -192 c26 -26 55 -45 67
-45 21 0 21 -2 -10 -45 -42 -59 -91 -102 -109 -98 -30 8 -90 36 -90 42 0 3 21
19 46 34 l47 28 -37 31 c-20 17 -36 34 -34 39 2 4 19 19 38 33 19 13 36 25 36
25 1 1 22 -19 46 -44z"/>
<path d="M4847 1929 c-94 -32 -167 -67 -167 -81 0 -7 7 -35 15 -62 24 -79 24
-79 -51 -75 l-66 4 -17 -46 c-24 -61 -67 -122 -135 -189 l-57 -55 -58 63 c-52
56 -61 63 -79 53 -34 -18 -52 -53 -52 -97 0 -34 8 -53 44 -101 72 -94 169
-170 254 -198 65 -21 96 -16 165 28 92 59 139 125 223 315 19 42 28 52 48 52
39 0 122 20 139 33 12 10 13 27 6 100 -9 102 -35 166 -87 220 -54 56 -60 58
-125 36z m100 -61 c54 -55 79 -115 88 -205 l7 -71 -49 -8 c-26 -4 -58 -11 -70
-15 -22 -8 -23 -6 -23 44 0 64 -11 77 -66 77 -89 0 -99 6 -111 68 -6 31 -12
63 -14 71 -3 9 26 24 91 46 52 19 97 34 100 34 3 1 25 -18 47 -41z m-240 -204
c49 -8 107 -13 131 -9 40 6 42 5 42 -20 0 -33 -39 -132 -96 -245 -33 -67 -54
-95 -101 -134 -76 -64 -138 -94 -161 -80 -21 14 -27 56 -12 85 11 19 6 27 -54
83 l-66 61 50 40 c49 38 140 157 140 182 0 23 20 64 29 59 5 -4 49 -13 98 -22z
m-227 -404 c-2 -8 -4 -30 -5 -47 0 -28 -3 -32 -20 -27 -33 10 -40 16 -124 92
-122 111 -150 171 -105 223 13 15 27 4 137 -105 77 -76 120 -126 117 -136z"/>
<path d="M7908 1561 c-56 -8 -65 -16 -70 -56 -2 -23 -11 -33 -35 -44 -33 -15
-42 -34 -23 -46 6 -4 8 -16 5 -26 -4 -11 -2 -26 4 -32 6 -8 6 -18 1 -27 -6 -8
-10 -34 -10 -57 0 -23 -4 -45 -10 -48 -24 -15 -7 -25 30 -19 21 4 76 1 121 -6
60 -8 98 -9 148 -1 94 16 193 18 198 5 2 -7 -36 -13 -114 -17 -117 -7 -186
-20 -210 -39 -7 -6 -13 -28 -13 -49 0 -44 -9 -47 -86 -28 -32 8 -44 16 -44 29
0 10 -3 25 -6 33 -4 12 3 13 45 5 33 -6 57 -5 69 1 15 8 13 11 -13 21 -16 7
-55 14 -86 17 -65 6 -79 -5 -54 -43 19 -29 11 -94 -11 -94 -8 0 -14 -10 -14
-25 0 -14 -6 -34 -12 -45 -21 -34 2 -53 93 -79 64 -18 106 -23 179 -22 99 1
379 35 417 51 27 11 39 62 23 100 -6 16 -29 40 -50 53 -30 20 -38 34 -44 66
-4 25 -14 46 -26 53 -27 17 -25 38 4 38 45 0 56 10 56 51 0 26 -7 46 -21 60
-20 20 -28 21 -123 14 -55 -4 -134 -13 -175 -21 -40 -9 -76 -13 -78 -10 -10
10 90 30 202 41 146 14 165 17 165 26 0 5 -6 9 -14 9 -8 0 -15 14 -18 34 -4
32 -1 36 34 49 37 15 49 39 27 52 -6 4 -70 11 -142 15 -73 5 -163 11 -202 14
-38 2 -91 1 -117 -3z m282 -46 c7 -9 11 -18 8 -20 -3 -3 -81 -2 -173 2 -120 6
-170 12 -173 21 -3 9 34 12 161 12 135 0 167 -3 177 -15z m135 -4 c-11 -5 -39
-12 -62 -16 -36 -6 -43 -4 -43 9 0 13 12 16 63 15 42 0 55 -3 42 -8z m-300
-51 c14 -6 0 -9 -45 -9 -45 0 -59 3 -45 9 11 5 31 9 45 9 14 0 34 -4 45 -9z
m246 -20 c42 -23 21 -37 -68 -44 -74 -5 -170 -22 -208 -37 -5 -2 -11 -2 -12 1
-1 3 -6 17 -12 32 l-10 27 67 6 c37 3 92 10 122 14 80 12 99 12 121 1z m-351
-33 c16 -8 26 -23 28 -40 3 -27 3 -28 -20 -14 -13 8 -46 18 -74 22 -45 6 -51
9 -47 26 4 15 14 19 47 19 22 0 52 -6 66 -13z m-3 -84 c-20 -2 -52 -2 -70 0
-17 2 0 4 38 4 39 0 53 -2 32 -4z m410 -1 c7 -4 14 -19 15 -32 3 -24 1 -25
-87 -33 -49 -4 -128 -11 -175 -16 -47 -4 -89 -5 -93 -1 -4 4 -5 19 -2 32 7 27
22 30 265 52 19 1 42 3 50 4 8 1 21 -2 27 -6z m-376 -43 c20 -10 27 -49 9 -49
-23 0 -146 33 -155 42 -30 27 97 34 146 7z m360 -145 c5 -15 7 -30 3 -33 -5
-6 -124 -21 -285 -37 l-66 -7 -7 33 c-3 18 -4 35 -2 37 5 5 241 31 299 32 43
1 49 -2 58 -25z m29 -79 c15 -9 19 -14 10 -15 -29 -1 -255 -29 -325 -40 -57
-10 -76 -9 -102 2 -32 14 -32 14 35 14 59 0 196 20 302 44 49 11 52 11 80 -5z
m66 -78 c-5 -22 -14 -26 -83 -36 -43 -6 -126 -15 -184 -20 -58 -6 -117 -15
-131 -20 -14 -5 -29 -7 -32 -4 -10 10 -7 51 4 58 26 16 410 65 424 54 5 -4 6
-19 2 -32z m-564 12 c98 -26 108 -32 108 -70 l0 -28 -37 16 c-21 9 -65 24 -98
33 -52 15 -60 20 -63 43 -2 15 -1 27 2 27 3 0 43 -10 88 -21z"/>
<path d="M1582 1526 c-35 -13 -65 -26 -66 -27 -2 -2 0 -38 5 -80 13 -133 61
-213 146 -243 46 -16 43 -18 86 47 14 21 28 33 32 28 3 -6 -19 -38 -48 -73
-49 -57 -57 -63 -88 -60 -51 6 -103 37 -142 84 -62 78 -71 112 -37 143 27 25
18 31 -14 10 -45 -30 -33 -86 41 -187 39 -54 101 -88 159 -88 46 0 80 29 133
114 34 55 39 76 16 76 -19 0 -19 -1 4 50 l19 42 -35 37 c-19 20 -49 61 -67 91
-38 66 -54 70 -144 36z m129 -58 c17 -35 42 -75 56 -90 l25 -27 -48 -76 c-27
-42 -51 -78 -54 -80 -3 -2 -20 3 -37 10 -44 19 -87 83 -109 161 -23 85 -14
112 41 129 23 6 50 17 60 23 31 18 33 16 66 -50z"/>
<path d="M3640 1378 c1 -37 30 -199 39 -215 9 -17 10 -17 17 0 10 27 -2 149
-20 191 -14 35 -36 49 -36 24z"/>
<path d="M3751 1293 c0 -10 4 -27 9 -38 7 -17 9 -15 9 12 1 17 -3 35 -9 38 -5
3 -10 -2 -9 -12z"/>
<path d="M4871 1247 c-26 -53 -82 -100 -154 -128 -24 -9 -44 -24 -46 -34 -3
-16 2 -17 39 -11 99 16 171 81 193 176 12 49 -8 47 -32 -3z"/>
<path d="M4873 1067 c-30 -20 -44 -47 -25 -47 18 0 72 41 72 55 0 20 -8 18
-47 -8z"/>
<path d="M1420 1014 c0 -43 112 -103 166 -90 41 11 29 36 -16 36 -48 0 -100
20 -129 49 -17 17 -21 18 -21 5z"/>
<path d="M8557 967 c-2 -7 -31 -21 -63 -31 -33 -10 -101 -38 -151 -62 -96 -44
-113 -65 -78 -94 17 -15 233 -59 287 -60 48 0 156 43 195 78 35 30 56 112 29
112 -7 0 -19 6 -25 14 -15 18 -125 56 -162 56 -15 0 -29 -6 -32 -13z m112 -47
c41 -11 76 -22 79 -25 2 -2 -38 -32 -89 -65 -103 -67 -98 -66 -219 -34 -112
29 -112 29 -50 56 30 12 82 37 115 54 33 17 67 32 75 32 8 1 48 -7 89 -18z
m91 -80 c0 -11 -58 -50 -74 -50 -5 0 9 13 30 29 46 35 44 34 44 21z"/>
<path d="M8538 903 c-30 -8 -20 -21 18 -25 37 -4 56 8 33 23 -15 9 -23 10 -51
2z"/>
</g>
</svg>
