<?xml version="1.0" standalone="no"?>
<!DOCTYPE svg PUBLIC "-//W3C//DTD SVG 20010904//EN"
 "http://www.w3.org/TR/2001/REC-SVG-20010904/DTD/svg10.dtd">
<svg version="1.0" xmlns="http://www.w3.org/2000/svg"
 width="978.000000pt" height="666.000000pt" viewBox="0 0 978.000000 666.000000"
 preserveAspectRatio="xMidYMid meet">

<g transform="translate(0.000000,666.000000) scale(0.100000,-0.100000)"
fill="#000000" stroke="none">
<path d="M3180 6513 c0 -170 11 -206 70 -235 33 -17 140 -18 1800 -18 1660 0
1767 1 1800 18 59 29 70 65 70 235 l0 147 -1870 0 -1870 0 0 -147z"/>
<path d="M2604 4541 c-32 -14 -64 -60 -64 -92 0 -24 -4 -29 -25 -29 -22 0 -25
-4 -25 -35 0 -31 3 -35 25 -35 l25 0 0 -130 0 -130 45 0 45 0 0 130 0 130 35
0 c33 0 35 2 35 35 0 33 -2 35 -36 35 -31 0 -35 3 -32 23 2 17 11 23 34 25 26
3 33 8 38 34 3 17 4 33 2 35 -10 10 -82 12 -102 4z"/>
<path d="M3972 4538 c-7 -7 -12 -21 -12 -33 0 -12 5 -26 12 -33 7 -7 21 -12
33 -12 12 0 26 5 33 12 7 7 12 21 12 33 0 12 -5 26 -12 33 -7 7 -21 12 -33 12
-12 0 -26 -5 -33 -12z"/>
<path d="M8207 4532 c-22 -24 -21 -35 1 -55 35 -32 82 -15 82 28 0 44 -52 61
-83 27z"/>
<path d="M770 4490 l0 -40 65 0 65 0 0 -180 0 -180 45 0 45 0 0 180 0 180 71
0 70 0 -3 38 -3 37 -177 3 -178 2 0 -40z"/>
<path d="M5179 4510 c-75 -39 -109 -106 -109 -210 1 -85 43 -161 108 -194 97
-49 231 -9 268 80 21 49 18 54 -31 54 -39 0 -46 -4 -59 -29 -18 -34 -34 -41
-88 -41 -54 0 -92 38 -102 103 -16 102 32 177 112 177 33 0 78 -31 87 -60 5
-16 15 -20 52 -20 l46 0 -7 31 c-9 46 -44 89 -90 110 -54 25 -140 24 -187 -1z"/>
<path d="M7470 4460 c0 -36 -2 -40 -25 -40 -22 0 -25 -4 -25 -35 0 -31 3 -35
25 -35 l25 0 0 -105 c0 -99 2 -107 25 -130 20 -20 34 -25 78 -25 l54 0 -6 32
c-5 23 -14 34 -31 38 -24 6 -25 9 -28 98 l-3 92 31 0 c28 0 30 3 30 35 0 32
-2 35 -30 35 -28 0 -30 2 -30 40 l0 40 -45 0 -45 0 0 -40z"/>
<path d="M8790 4461 c0 -37 -2 -41 -25 -41 -22 0 -25 -4 -25 -35 0 -31 3 -35
25 -35 l25 0 0 -109 c0 -106 1 -110 26 -130 19 -15 41 -21 75 -21 44 0 49 2
49 23 0 29 -11 44 -35 48 -18 4 -20 13 -23 97 l-3 92 31 0 c28 0 30 3 30 35 0
32 -2 35 -29 35 -27 0 -30 3 -33 38 -3 36 -4 37 -45 40 l-43 3 0 -40z"/>
<path d="M1167 4413 c-4 -3 -7 -78 -7 -165 l0 -158 50 0 50 0 0 108 c0 122 9
142 68 142 31 0 32 2 32 40 0 38 -2 40 -30 40 -21 0 -39 -9 -55 -26 l-25 -27
0 27 c0 24 -4 26 -38 26 -21 0 -42 -3 -45 -7z"/>
<path d="M1472 4403 c-28 -13 -62 -57 -62 -78 0 -3 20 -5 45 -5 25 0 45 4 45
9 0 15 53 29 78 20 17 -6 22 -15 20 -31 -3 -23 -7 -24 -112 -43 -53 -9 -86
-44 -86 -92 0 -51 22 -80 71 -93 45 -12 88 -3 121 27 17 15 18 15 18 -5 0 -19
6 -22 40 -22 l40 0 0 128 c0 140 -6 159 -60 187 -38 20 -116 19 -158 -2z m112
-234 c-27 -29 -88 -23 -92 10 -5 31 6 40 59 49 41 7 44 6 47 -16 2 -13 -4 -33
-14 -43z"/>
<path d="M1780 4255 l0 -165 45 0 45 0 0 109 c0 107 1 110 27 130 28 23 59 20
81 -7 8 -10 12 -53 12 -124 l0 -108 45 0 45 0 0 131 0 131 -34 34 c-26 26 -42
34 -70 34 -40 0 -91 -22 -99 -42 -3 -7 -6 -1 -6 15 -1 25 -4 27 -46 27 l-45 0
0 -165z"/>
<path d="M2213 4400 c-57 -34 -70 -90 -30 -135 15 -18 42 -31 92 -43 52 -13
71 -22 73 -36 8 -38 -66 -51 -95 -16 -12 13 -30 20 -54 20 -46 0 -51 -6 -33
-41 45 -87 229 -84 272 4 31 64 -13 118 -107 132 -78 12 -106 41 -62 65 29 15
49 12 71 -10 23 -23 100 -29 100 -7 0 21 -29 56 -60 72 -42 22 -128 19 -167
-5z"/>
<path d="M2821 4398 c-52 -35 -71 -68 -77 -129 -10 -106 58 -183 161 -183 97
0 156 63 157 169 1 97 -53 156 -149 163 -48 3 -64 0 -92 -20z m123 -64 c22
-21 30 -57 23 -106 -9 -68 -57 -94 -102 -56 -23 20 -27 31 -27 77 1 67 22 101
62 101 15 0 36 -7 44 -16z"/>
<path d="M3140 4255 l0 -165 45 0 45 0 0 108 c0 124 9 142 73 142 36 0 37 1
37 40 0 38 -1 40 -32 40 -19 0 -41 -9 -55 -22 l-23 -21 0 21 c0 19 -5 22 -45
22 l-45 0 0 -165z"/>
<path d="M3400 4255 l0 -165 45 0 45 0 0 115 c0 111 1 115 25 131 23 15 27 15
50 0 24 -16 25 -20 25 -131 l0 -115 45 0 45 0 0 115 c0 111 1 115 25 131 23
15 27 15 50 0 24 -16 25 -20 25 -131 l0 -115 45 0 45 0 0 136 0 136 -29 29
c-43 42 -122 38 -157 -9 -9 -12 -15 -11 -37 12 -36 36 -94 36 -136 0 l-31 -26
0 26 c0 24 -4 26 -40 26 l-40 0 0 -165z"/>
<path d="M3960 4255 l0 -165 45 0 45 0 0 165 0 165 -45 0 -45 0 0 -165z"/>
<path d="M4140 4255 l0 -165 45 0 45 0 0 108 c0 123 9 145 59 145 50 0 56 -13
59 -138 l4 -115 45 0 45 0 -4 136 -3 136 -33 29 c-44 39 -107 41 -151 3 l-31
-26 0 26 c0 24 -4 26 -40 26 l-40 0 0 -165z"/>
<path d="M4566 4390 c-75 -66 -69 -225 10 -277 39 -25 109 -22 139 7 l25 23 0
-46 c0 -36 -4 -49 -19 -57 -29 -15 -87 -12 -101 5 -13 16 -52 19 -83 6 -17 -6
-17 -8 4 -35 57 -73 204 -75 263 -5 26 30 26 31 26 220 l0 189 -45 0 c-41 0
-45 -2 -45 -25 l0 -24 -26 24 c-40 37 -102 35 -148 -5z m153 -66 c31 -39 29
-107 -4 -139 -29 -30 -45 -31 -79 -4 -22 17 -26 28 -26 73 0 87 63 128 109 70z"/>
<path d="M5611 4402 c-54 -27 -74 -63 -79 -136 -5 -76 19 -131 71 -162 43 -25
122 -24 167 2 43 24 80 93 80 150 0 55 -37 122 -80 145 -44 24 -115 24 -159 1z
m123 -74 c34 -55 28 -128 -15 -160 -49 -36 -99 9 -99 90 0 77 78 125 114 70z"/>
<path d="M5929 4341 c-2 -43 -2 -117 0 -165 l3 -86 44 0 44 0 0 114 c0 118 3
127 46 140 32 10 68 -24 69 -65 1 -19 2 -69 3 -111 l2 -78 45 0 45 0 0 115 c0
126 -12 171 -51 199 -37 25 -102 21 -138 -10 l-31 -26 0 26 c0 24 -4 26 -39
26 l-39 0 -3 -79z"/>
<path d="M6382 4403 c-47 -23 -75 -67 -80 -128 -6 -68 11 -117 53 -153 81 -72
217 -41 245 56 l9 32 -45 0 c-24 0 -44 -4 -44 -9 0 -19 -32 -41 -59 -41 -44 0
-66 33 -66 97 0 45 4 58 24 74 32 26 66 24 88 -7 16 -21 25 -25 60 -22 l42 3
-18 41 c-31 68 -131 96 -209 57z"/>
<path d="M6739 4397 c-51 -34 -71 -79 -67 -157 4 -72 22 -106 73 -136 44 -27
130 -25 176 3 43 27 66 68 43 77 -30 12 -64 6 -84 -14 -40 -40 -119 -11 -120
43 0 15 12 17 111 17 l112 0 -6 52 c-4 29 -15 64 -25 78 -44 60 -150 79 -213
37z m133 -64 c35 -32 23 -43 -47 -43 -69 0 -79 8 -48 42 20 22 70 23 95 1z"/>
<path d="M7050 4195 l0 -225 45 0 45 0 0 88 c0 84 1 86 18 65 36 -48 125 -48
170 -1 67 72 51 242 -27 282 -49 26 -98 21 -132 -13 l-29 -29 0 29 c0 28 -2
29 -45 29 l-45 0 0 -225z m190 145 c10 -5 24 -26 30 -46 22 -67 -8 -134 -60
-134 -43 0 -65 33 -65 97 0 45 4 58 24 74 26 21 44 24 71 9z"/>
<path d="M7743 4406 c-17 -8 -36 -23 -42 -35 -14 -25 -14 -76 -1 -100 11 -21
79 -51 114 -51 13 0 34 -8 47 -19 20 -16 21 -21 10 -35 -19 -23 -78 -21 -93 4
-10 15 -24 20 -55 20 -52 0 -56 -16 -15 -60 77 -87 262 -43 262 62 0 46 -32
74 -100 89 -30 6 -63 16 -72 21 -26 13 -22 37 7 50 22 10 30 8 55 -10 37 -28
100 -30 100 -4 0 10 -14 31 -30 47 -26 25 -40 30 -93 32 -39 2 -74 -2 -94 -11z"/>
<path d="M8200 4255 l0 -165 45 0 45 0 0 165 0 165 -45 0 -45 0 0 -165z"/>
<path d="M8379 4341 c-2 -43 -2 -117 0 -165 l3 -86 44 0 44 0 0 114 c0 118 3
127 46 140 32 10 68 -24 69 -65 1 -19 2 -69 3 -111 l2 -78 45 0 45 0 0 115 c0
126 -12 171 -51 199 -37 25 -102 21 -138 -10 l-31 -26 0 26 c0 24 -4 26 -39
26 l-39 0 -3 -79z"/>
<path d="M9085 4408 c-73 -40 -108 -124 -85 -207 35 -133 219 -161 291 -45 48
78 24 191 -51 241 -36 25 -119 31 -155 11z m101 -66 c21 -14 34 -51 34 -97 0
-35 -6 -51 -25 -70 -13 -14 -31 -25 -40 -25 -9 0 -27 11 -40 25 -33 32 -36
124 -5 155 20 20 56 26 76 12z"/>
<path d="M898 3679 c-44 -23 -68 -63 -68 -115 0 -55 49 -97 139 -119 83 -20
110 -43 93 -80 -23 -50 -123 -42 -147 13 -8 18 -18 22 -52 22 -38 0 -43 -3
-43 -22 0 -34 35 -85 72 -105 47 -25 162 -24 204 1 67 40 85 129 38 185 -19
23 -46 37 -110 57 -93 28 -113 47 -88 82 23 33 98 31 120 -3 13 -20 24 -25 60
-25 48 0 52 6 29 54 -34 71 -163 100 -247 55z"/>
<path d="M2540 3480 l0 -220 45 0 45 0 0 220 0 220 -45 0 -45 0 0 -220z"/>
<path d="M1302 3570 c-50 -31 -72 -75 -72 -145 0 -79 23 -123 80 -152 54 -28
101 -29 157 -4 49 23 84 75 57 85 -30 11 -66 6 -91 -14 -14 -11 -33 -20 -43
-20 -26 0 -70 39 -70 61 0 18 8 19 110 19 l110 0 0 38 c0 50 -28 102 -69 129
-44 30 -122 31 -169 3z m130 -67 c35 -32 23 -43 -47 -43 -69 0 -79 8 -48 42
20 22 70 23 95 1z"/>
<path d="M1663 3570 c-31 -18 -53 -48 -53 -69 0 -18 87 -14 94 4 7 20 70 20
86 0 23 -28 4 -44 -60 -51 -36 -4 -74 -15 -93 -28 -28 -19 -32 -28 -35 -72 -2
-42 1 -53 22 -73 35 -33 96 -39 141 -13 28 17 35 18 35 7 0 -11 12 -15 45 -15
l45 0 0 128 c0 140 -6 159 -60 187 -42 22 -128 19 -167 -5z m137 -183 c0 -39
-27 -67 -65 -67 -41 0 -62 27 -42 53 10 13 57 30 100 36 4 1 7 -9 7 -22z"/>
<path d="M1977 3583 c-4 -3 -7 -78 -7 -165 l0 -158 50 0 50 0 0 114 c0 107 1
116 22 130 29 20 34 20 58 -4 18 -18 20 -33 20 -130 l0 -110 45 0 45 0 0 115
c0 111 1 115 25 131 23 15 27 15 50 0 24 -16 25 -20 25 -131 l0 -115 45 0 45
0 0 136 0 136 -30 30 c-28 28 -35 30 -82 26 -42 -4 -56 -11 -75 -34 -13 -16
-23 -24 -23 -17 0 7 -10 21 -22 33 -32 29 -89 27 -127 -6 l-31 -26 0 26 c0 23
-4 26 -38 26 -21 0 -42 -3 -45 -7z"/>
<path d="M2795 3581 c-80 -33 -117 -147 -76 -237 34 -76 111 -108 198 -85 42
12 97 63 90 85 -7 21 -66 19 -93 -3 -35 -28 -69 -26 -99 4 -48 47 -37 55 85
55 l110 0 0 43 c0 55 -28 106 -71 129 -35 19 -108 23 -144 9z m119 -83 c9 -12
16 -26 16 -30 0 -5 -31 -8 -70 -8 -62 0 -69 2 -63 18 16 46 90 59 117 20z"/>
<path d="M3142 3575 c-43 -19 -66 -70 -51 -114 13 -36 46 -56 118 -72 58 -12
80 -31 61 -54 -19 -22 -77 -19 -92 5 -18 28 -98 29 -98 1 0 -28 43 -68 88 -82
117 -35 238 55 192 142 -14 25 -52 43 -122 58 -31 7 -58 18 -61 25 -15 37 47
57 85 27 31 -25 98 -29 98 -6 0 8 -13 29 -29 47 -25 29 -35 32 -92 35 -41 2
-76 -2 -97 -12z"/>
<path d="M3492 3575 c-46 -20 -67 -73 -48 -118 14 -35 71 -67 120 -67 13 0 34
-8 47 -19 20 -16 21 -21 10 -35 -19 -23 -78 -21 -93 4 -18 28 -98 29 -98 1 0
-10 16 -33 35 -49 89 -79 255 -31 255 73 0 37 -33 71 -79 81 -107 23 -139 52
-86 76 22 10 30 8 55 -10 37 -28 100 -30 100 -4 0 10 -14 31 -30 47 -26 25
-40 30 -93 32 -39 2 -74 -2 -95 -12z"/>
<path d="M1997 2834 c-8 -8 1 -24 14 -24 5 0 9 7 9 15 0 15 -12 20 -23 9z"/>
<path d="M4532 2831 c2 -7 7 -12 11 -12 12 1 9 15 -3 20 -7 2 -11 -2 -8 -8z"/>
<path d="M6995 2831 c-6 -11 9 -23 19 -14 9 9 7 23 -3 23 -6 0 -12 -4 -16 -9z"/>
<path d="M7420 2780 c0 -77 -12 -100 -50 -100 -38 0 -50 23 -50 94 0 31 -4 56
-10 56 -6 0 -10 -28 -10 -63 0 -81 17 -107 70 -107 53 0 70 26 70 107 0 34 -4
65 -10 68 -6 4 -10 -17 -10 -55z"/>
<path d="M7880 2825 c0 -8 5 -15 10 -15 6 0 10 7 10 15 0 8 -4 15 -10 15 -5 0
-10 -7 -10 -15z"/>
<path d="M1810 2745 c0 -50 4 -85 10 -85 6 0 10 18 10 40 l0 40 45 0 45 0 0
-40 c0 -29 4 -40 15 -40 12 0 15 16 15 85 0 69 -3 85 -15 85 -10 0 -15 -11
-15 -35 0 -35 0 -35 -45 -35 -45 0 -45 0 -45 35 0 19 -4 35 -10 35 -6 0 -10
-35 -10 -85z"/>
<path d="M2070 2770 c0 -33 4 -60 10 -60 6 0 10 27 10 60 0 33 -4 60 -10 60
-6 0 -10 -27 -10 -60z"/>
<path d="M2230 2745 c0 -50 4 -85 10 -85 6 0 10 35 10 85 0 50 -4 85 -10 85
-6 0 -10 -35 -10 -85z"/>
<path d="M2300 2799 c0 -17 4 -28 10 -24 6 3 10 17 10 31 0 13 -4 24 -10 24
-5 0 -10 -14 -10 -31z"/>
<path d="M2670 2746 c0 -51 4 -86 10 -86 6 0 10 16 10 35 0 28 4 35 20 35 13
0 26 -12 37 -35 9 -19 23 -35 30 -35 11 0 10 6 -3 31 -14 28 -14 34 0 62 22
47 3 71 -58 75 l-46 3 0 -85z m68 68 c18 -5 22 -13 20 -33 -2 -21 -9 -27 -35
-29 -32 -3 -33 -2 -33 32 0 37 6 41 48 30z"/>
<path d="M3120 2745 c0 -50 4 -85 10 -85 6 0 10 35 10 85 0 50 -4 85 -10 85
-6 0 -10 -35 -10 -85z"/>
<path d="M3880 2745 c0 -100 18 -116 22 -20 l3 65 44 -65 c60 -89 71 -86 71
20 0 68 -3 85 -15 85 -10 0 -15 -16 -17 -61 l-3 -61 -43 61 c-23 34 -47 61
-52 61 -6 0 -10 -37 -10 -85z"/>
<path d="M4820 2745 l0 -85 44 0 c57 0 86 23 93 75 4 31 0 46 -17 68 -18 23
-29 27 -71 27 l-49 0 0 -85z m95 50 c46 -46 22 -115 -41 -115 l-34 0 0 63 c0
35 3 67 7 70 14 14 45 6 68 -18z"/>
<path d="M5440 2745 c0 -50 4 -85 10 -85 6 0 10 35 10 85 0 50 -4 85 -10 85
-6 0 -10 -35 -10 -85z"/>
<path d="M6160 2745 c0 -47 4 -85 9 -85 13 0 21 27 15 45 -4 8 -3 26 0 40 8
32 50 35 67 4 16 -32 -3 -69 -36 -69 -15 0 -24 -4 -20 -10 11 -18 53 -11 69
12 20 29 20 58 0 87 -14 19 -23 22 -50 18 -31 -5 -34 -3 -34 19 0 13 -4 24
-10 24 -6 0 -10 -35 -10 -85z"/>
<path d="M6850 2798 c0 -25 -3 -29 -12 -20 -31 31 -88 -3 -88 -53 0 -50 57
-84 88 -53 9 9 12 9 12 0 0 -7 5 -12 10 -12 6 0 10 35 10 85 0 50 -4 85 -10
85 -5 0 -10 -14 -10 -32z m-9 -49 c16 -31 -4 -71 -33 -67 -28 4 -42 29 -34 61
8 34 50 37 67 6z"/>
<path d="M7490 2745 c0 -50 4 -85 10 -85 6 0 10 11 10 23 0 38 12 39 41 5 15
-18 30 -30 34 -26 4 4 -5 21 -19 39 l-27 32 27 28 c36 37 10 39 -28 2 l-28
-27 0 47 c0 26 -4 47 -10 47 -6 0 -10 -35 -10 -85z"/>
<path d="M4370 2806 c0 -8 -6 -17 -12 -19 -10 -4 -10 -7 -1 -14 6 -5 13 -31
15 -58 3 -45 6 -50 28 -53 23 -2 24 -1 8 11 -21 17 -25 92 -5 101 10 5 10 7 0
12 -7 3 -13 12 -13 20 0 8 -4 14 -10 14 -5 0 -10 -6 -10 -14z"/>
<path d="M2000 2725 c0 -37 4 -65 10 -65 6 0 10 28 10 65 0 37 -4 65 -10 65
-6 0 -10 -28 -10 -65z"/>
<path d="M2360 2723 c0 -35 4 -63 10 -63 6 0 10 19 10 43 0 51 11 70 36 65 15
-2 20 -14 22 -56 4 -67 20 -67 24 1 3 45 6 52 26 55 21 3 22 0 22 -52 0 -43 3
-56 15 -56 11 0 15 12 15 46 0 76 -8 83 -100 81 l-80 -1 0 -63z"/>
<path d="M2830 2736 c0 -63 12 -76 63 -74 l37 1 0 64 c0 76 -18 85 -22 11 -3
-49 -5 -53 -28 -53 -23 0 -25 4 -28 53 -4 68 -22 67 -22 -2z"/>
<path d="M2991 2776 c-19 -23 -7 -43 34 -60 45 -19 37 -41 -12 -33 -24 4 -33
2 -30 -6 6 -19 72 -21 86 -3 19 23 7 43 -34 60 -47 20 -47 41 1 33 25 -4 34
-2 31 6 -6 18 -62 20 -76 3z"/>
<path d="M3203 2783 c-25 -10 -12 -20 23 -19 48 1 55 -20 10 -28 -78 -15 -72
-70 8 -72 l46 -2 0 52 c0 29 -5 57 -12 64 -12 12 -52 15 -75 5z m67 -67 c0
-19 -16 -36 -34 -36 -29 0 -39 10 -25 27 10 12 59 19 59 9z"/>
<path d="M3330 2723 c0 -35 4 -63 10 -63 6 0 10 19 10 43 0 53 11 70 41 65 21
-3 24 -9 27 -55 4 -69 22 -68 22 1 0 64 -11 76 -68 73 l-42 -1 0 -63z"/>
<path d="M3663 2783 c-25 -9 -13 -20 22 -19 43 1 45 -16 3 -30 -71 -24 -59
-75 18 -72 l44 2 0 44 c0 58 -14 82 -48 81 -15 0 -33 -3 -39 -6z m67 -67 c0
-22 -17 -36 -41 -36 -30 0 -41 23 -16 33 15 7 57 8 57 3z"/>
<path d="M4076 2768 c-43 -60 10 -128 78 -102 28 11 17 24 -14 18 -29 -6 -60
8 -60 27 0 5 23 9 50 9 54 0 61 10 34 48 -10 14 -26 22 -44 22 -18 0 -34 -8
-44 -22z m72 -15 c2 -9 -8 -13 -33 -13 -33 0 -36 2 -25 15 15 18 51 16 58 -2z"/>
<path d="M4227 2757 c19 -31 19 -33 2 -62 -23 -37 -14 -48 12 -15 l19 25 19
-25 c26 -33 39 -18 14 16 -20 27 -20 28 -1 61 22 37 9 46 -16 11 l-16 -23 -16
23 c-25 34 -38 26 -17 -11z"/>
<path d="M4530 2711 c0 -54 -4 -81 -12 -84 -7 -2 -10 -8 -6 -12 4 -4 14 -5 23
-2 12 5 15 24 15 92 0 50 -4 85 -10 85 -6 0 -10 -33 -10 -79z"/>
<path d="M4611 2776 c-19 -23 -7 -43 34 -60 45 -19 37 -41 -12 -33 -24 4 -33
2 -30 -6 6 -19 72 -21 86 -3 19 23 7 43 -34 60 -47 20 -47 41 1 33 25 -4 34
-2 31 6 -6 18 -62 20 -76 3z"/>
<path d="M5017 2772 c-22 -25 -21 -75 1 -95 23 -21 65 -22 82 -3 10 13 5 15
-31 13 -34 -2 -44 2 -47 16 -3 14 4 17 42 17 41 0 46 2 46 23 0 13 -5 28 -12
35 -18 18 -63 14 -81 -6z m71 -19 c2 -9 -8 -13 -32 -13 -34 0 -44 8 -29 24 11
11 56 2 61 -11z"/>
<path d="M5164 2728 c13 -35 30 -63 36 -63 7 0 24 29 37 63 16 43 19 62 11 60
-7 -3 -20 -23 -28 -46 -8 -23 -17 -42 -21 -42 -3 0 -12 20 -19 45 -7 25 -19
45 -26 45 -10 0 -7 -16 10 -62z"/>
<path d="M5306 2774 c-9 -8 -16 -31 -16 -49 0 -18 7 -41 16 -49 19 -20 68 -21
84 -2 10 13 5 15 -31 13 -34 -2 -44 2 -47 16 -3 14 4 17 42 17 39 0 46 3 46
19 0 27 -26 51 -55 51 -13 0 -31 -7 -39 -16z m72 -21 c2 -9 -8 -13 -32 -13
-34 0 -44 8 -29 24 11 11 56 2 61 -11z"/>
<path d="M5527 2772 c-38 -42 -10 -112 45 -112 33 0 52 24 52 65 0 18 -6 40
-13 49 -18 22 -64 20 -84 -2z m74 -23 c18 -34 -4 -71 -39 -67 -21 2 -28 9 -30
31 -2 16 -1 35 2 43 8 22 54 17 67 -7z"/>
<path d="M5670 2698 c0 -52 4 -88 10 -88 6 0 10 13 10 28 0 26 3 28 30 24 42
-6 60 13 60 63 0 52 -15 65 -69 63 l-41 -1 0 -89z m85 27 c0 -35 -3 -40 -24
-43 -27 -4 -41 12 -41 49 0 33 8 41 40 37 22 -3 25 -8 25 -43z"/>
<path d="M5836 2768 c-43 -60 10 -128 78 -102 28 11 17 24 -14 18 -29 -6 -60
8 -60 27 0 5 23 9 50 9 54 0 61 10 34 48 -10 14 -26 22 -44 22 -18 0 -34 -8
-44 -22z m72 -15 c2 -9 -8 -13 -33 -13 -33 0 -36 2 -25 15 15 18 51 16 58 -2z"/>
<path d="M5980 2723 c0 -35 4 -63 10 -63 6 0 10 23 10 51 0 42 3 52 20 56 30
8 24 22 -10 21 l-30 -1 0 -64z"/>
<path d="M6333 2783 c-25 -10 -12 -20 23 -19 48 1 55 -20 10 -28 -78 -15 -72
-70 8 -72 l46 -2 0 52 c0 29 -5 57 -12 64 -12 12 -52 15 -75 5z m67 -67 c0
-19 -16 -36 -34 -36 -29 0 -39 10 -25 27 10 12 59 19 59 9z"/>
<path d="M6474 2776 c-11 -29 1 -50 34 -58 19 -5 32 -15 32 -25 0 -13 -7 -14
-42 -9 -36 6 -40 5 -28 -9 13 -16 57 -20 78 -6 25 16 10 55 -25 65 -34 9 -44
30 -20 39 8 3 20 1 28 -4 22 -14 33 -11 19 6 -16 19 -69 20 -76 1z"/>
<path d="M6617 2772 c-22 -25 -21 -75 1 -95 23 -21 65 -22 82 -3 10 13 5 15
-31 13 -34 -2 -44 2 -47 16 -3 14 4 17 42 17 41 0 46 2 46 23 0 13 -5 28 -12
35 -18 18 -63 14 -81 -6z m71 -19 c2 -9 -8 -13 -32 -13 -34 0 -44 8 -29 24 11
11 56 2 61 -11z"/>
<path d="M7000 2725 c0 -37 4 -65 10 -65 6 0 10 28 10 65 0 37 -4 65 -10 65
-6 0 -10 -28 -10 -65z"/>
<path d="M7070 2723 c0 -76 18 -85 22 -10 3 48 5 52 28 52 23 0 25 -4 28 -52
4 -69 22 -68 22 1 0 63 -12 76 -63 74 l-37 -1 0 -64z"/>
<path d="M7630 2723 c0 -35 4 -63 10 -63 6 0 10 18 10 39 0 52 8 71 31 71 10
0 19 4 19 10 0 5 -16 9 -35 8 l-35 -1 0 -64z"/>
<path d="M7740 2775 c-12 -14 -8 -15 28 -9 56 9 59 -18 5 -32 -33 -8 -38 -13
-38 -39 0 -29 2 -30 48 -31 l47 -2 0 52 c0 29 -5 57 -12 64 -17 17 -63 15 -78
-3z m68 -72 c-4 -22 -58 -31 -58 -10 0 20 10 27 37 27 18 0 24 -5 21 -17z"/>
<path d="M7880 2725 c0 -37 4 -65 10 -65 6 0 10 28 10 65 0 37 -4 65 -10 65
-6 0 -10 -28 -10 -65z"/>
<path d="M7950 2723 c0 -76 18 -85 22 -10 3 48 5 52 28 52 23 0 25 -4 28 -52
2 -29 7 -53 13 -53 11 0 12 100 1 118 -5 7 -26 11 -50 10 l-42 -1 0 -64z"/>
<path d="M8116 2774 c-9 -8 -16 -31 -16 -49 0 -18 7 -41 16 -49 19 -20 68 -21
84 -2 10 13 5 15 -31 13 -34 -2 -44 2 -47 16 -3 14 4 17 42 17 39 0 46 3 46
19 0 27 -26 51 -55 51 -13 0 -31 -7 -39 -16z m72 -21 c2 -9 -8 -13 -32 -13
-34 0 -44 8 -29 24 11 11 56 2 61 -11z"/>
<path d="M2070 2675 c0 -9 5 -15 11 -13 6 2 11 8 11 13 0 5 -5 11 -11 13 -6 2
-11 -4 -11 -13z"/>
<path d="M4457 2684 c-8 -8 1 -24 14 -24 5 0 9 7 9 15 0 15 -12 20 -23 9z"/>
<path d="M8257 2684 c-8 -8 1 -24 14 -24 5 0 9 7 9 15 0 15 -12 20 -23 9z"/>
<path d="M3490 2649 c0 -35 15 -31 22 6 4 17 1 25 -8 25 -9 0 -14 -11 -14 -31z"/>
<path d="M4567 2020 l-669 -5 -19 -24 c-17 -21 -19 -41 -19 -203 0 -173 1
-180 23 -202 l23 -23 829 -6 c1179 -10 1440 -9 1468 4 41 19 47 48 47 235 l0
176 -29 29 -29 29 -479 -2 c-263 -2 -779 -5 -1146 -8z m1052 -228 c-27 -63
-39 -74 -39 -35 0 28 -4 32 -32 35 l-33 4 55 26 c30 14 58 24 62 22 4 -3 -2
-26 -13 -52z m-1085 22 c7 -17 -6 -18 -22 -2 -9 9 -15 9 -24 0 -8 -8 -5 -14
14 -21 31 -12 40 -24 32 -45 -7 -18 -59 -22 -69 -5 -11 16 3 23 19 10 15 -12
36 -8 36 7 0 4 -13 13 -30 19 -16 6 -30 18 -30 27 0 33 62 41 74 10z m36 3 c0
-8 10 -13 23 -13 18 1 22 -5 25 -36 2 -22 -1 -38 -7 -38 -6 0 -11 14 -11 30 0
20 -5 30 -15 30 -10 0 -15 -10 -15 -30 0 -16 -4 -30 -10 -30 -5 0 -10 23 -10
50 0 28 5 50 10 50 6 0 10 -6 10 -13z m810 -8 c0 -18 2 -19 15 -9 20 17 32 5
15 -15 -11 -13 -10 -19 5 -35 16 -18 16 -20 2 -20 -9 0 -21 8 -26 18 -10 16
-10 16 -11 0 0 -10 -4 -18 -10 -18 -5 0 -10 23 -10 50 0 28 5 50 10 50 6 0 10
-10 10 -21z m-676 -21 c23 -38 -36 -77 -64 -43 -10 12 -10 21 -1 41 13 29 47
30 65 2z m33 -5 l7 -28 6 24 c8 33 27 38 33 9 l4 -23 8 23 c7 21 25 31 25 13
0 -18 -22 -71 -30 -71 -5 0 -12 10 -16 22 l-7 23 -8 -23 c-11 -29 -25 -28 -33
2 -3 13 -9 31 -12 40 -3 9 -1 16 5 16 6 0 14 -12 18 -27z m241 -15 c2 -22 -1
-38 -7 -38 -6 0 -11 14 -11 30 0 17 -4 30 -10 30 -5 0 -10 -13 -10 -30 0 -37
-18 -40 -22 -3 -4 39 -28 42 -28 4 0 -17 -4 -31 -10 -31 -5 0 -10 17 -10 39
l0 38 53 -1 52 -1 3 -37z m35 16 l14 -27 7 27 c3 14 11 26 17 26 11 0 6 -21
-17 -77 -7 -19 -20 -33 -30 -33 -13 0 -14 3 -4 15 9 11 9 22 1 46 -19 54 -11
68 12 23z m114 -1 l7 -28 6 24 c8 33 27 38 33 9 l4 -23 8 23 c7 21 25 31 25
13 0 -18 -22 -71 -30 -71 -5 0 -12 10 -16 22 l-7 23 -8 -23 c-11 -29 -25 -28
-33 2 -3 13 -9 31 -12 40 -3 9 -1 16 5 16 6 0 14 -12 18 -27z m153 13 c6 -8
10 -25 8 -38 -2 -18 -9 -23 -33 -23 -24 0 -31 5 -33 23 -4 25 13 52 33 52 7 0
18 -7 25 -14z m70 3 c0 -5 -7 -9 -15 -9 -10 0 -15 -10 -15 -30 0 -16 -4 -30
-10 -30 -5 0 -10 17 -10 39 0 34 3 39 25 39 14 0 25 -4 25 -9z"/>
<path d="M4653 1774 c-8 -21 13 -42 28 -27 13 13 5 43 -11 43 -6 0 -13 -7 -17
-16z"/>
<path d="M5242 1768 c2 -13 8 -23 13 -23 6 0 11 10 13 23 2 15 -2 22 -13 22
-11 0 -15 -7 -13 -22z"/>
</g>
</svg>
